<svg width="37" height="35" viewBox="0 0 37 35" fill="none" xmlns="http://www.w3.org/2000/svg">
<path d="M24.963 28.2407C22.7344 28.239 20.5368 27.7191 18.544 26.7212C16.4963 25.6851 14.7242 24.1766 13.374 22.3208L15.674 21.0767C15.9801 20.911 16.2299 20.6584 16.3915 20.3501C16.553 20.0418 16.619 19.6922 16.581 19.3462C16.5457 18.9981 16.4075 18.6683 16.1842 18.3989C15.9609 18.1295 15.6626 17.9329 15.327 17.8335L7.55904 15.5396V15.4331C7.55304 15.2941 7.54704 15.155 7.54704 15.02C7.54004 14.944 7.54004 14.8205 7.54004 14.7095C7.54295 10.8108 9.09231 7.07171 11.8482 4.31396C14.604 1.55622 18.3413 0.00507228 22.24 -0.000488281C26.1399 0.0040115 29.8787 1.55527 32.6363 4.31299C35.3938 7.0707 36.9448 10.8096 36.949 14.7095C36.9385 17.2571 36.2701 19.7587 35.0087 21.9722C33.7473 24.1856 31.9356 26.0357 29.749 27.3433L29.72 27.3618H29.713L29.687 27.3765C29.475 27.4765 29.25 27.5765 29.022 27.6675C29.0051 27.6667 28.9881 27.6689 28.972 27.6743C27.6689 28.0505 26.3194 28.2408 24.963 28.2407V28.2407ZM16.125 14.4194C16.0494 14.4159 15.9738 14.4275 15.9027 14.4536C15.8316 14.4797 15.7665 14.5192 15.711 14.5708C15.6604 14.6155 15.6198 14.6704 15.5918 14.7319C15.5639 14.7935 15.5493 14.8607 15.549 14.9282C15.5451 15.0042 15.5575 15.0801 15.5855 15.1509C15.6134 15.2216 15.6562 15.2856 15.711 15.3384C15.8238 15.4414 15.9724 15.4954 16.125 15.4897H17.499C17.5654 15.7273 17.6448 15.9612 17.737 16.1899C18.0503 16.9495 18.5039 17.6432 19.074 18.2349C19.6376 18.8221 20.3115 19.2922 21.057 19.6187C21.8209 19.9527 22.6463 20.123 23.48 20.1187C24.1917 20.1212 24.8997 20.0168 25.58 19.8081C26.2589 19.5937 26.8809 19.2289 27.4 18.7417C27.4584 18.6791 27.5045 18.6064 27.536 18.5269C27.5636 18.453 27.5772 18.3752 27.576 18.2964C27.5785 18.2198 27.5657 18.1434 27.5384 18.0718C27.5111 18.0002 27.4699 17.9349 27.417 17.8794C27.317 17.7766 27.1853 17.7099 27.043 17.6909C27.0176 17.687 26.9918 17.6851 26.966 17.6851C26.8427 17.6877 26.7243 17.734 26.632 17.8159C26.1829 18.1685 25.6816 18.449 25.146 18.647C24.6135 18.8406 24.0507 18.9382 23.484 18.9351C22.8147 18.9397 22.1522 18.8007 21.541 18.5278C20.943 18.2587 20.4024 17.8767 19.949 17.4028C19.4893 16.9195 19.1235 16.3548 18.87 15.7378C18.841 15.6688 18.814 15.5978 18.789 15.5298L18.778 15.5005H23.948C24.0959 15.5031 24.2392 15.4483 24.348 15.3481C24.4018 15.2948 24.4438 15.2303 24.4712 15.1597C24.4986 15.089 24.5108 15.0137 24.507 14.938C24.5067 14.8707 24.4924 14.8041 24.465 14.7427C24.4376 14.6812 24.3978 14.6268 24.348 14.5815C24.2947 14.531 24.2319 14.4914 24.1633 14.4653C24.0946 14.4392 24.0215 14.4268 23.948 14.4292H18.523C18.4926 14.1897 18.4773 13.9489 18.477 13.7075C18.4772 13.4079 18.5026 13.1083 18.553 12.813H25.067C25.1405 12.8154 25.2136 12.803 25.2823 12.7769C25.351 12.7508 25.4138 12.7112 25.467 12.6606C25.5192 12.6101 25.5604 12.5493 25.5877 12.4819C25.6151 12.4146 25.6282 12.3427 25.626 12.27C25.6272 12.1994 25.6137 12.129 25.5863 12.064C25.5589 11.9989 25.5183 11.9406 25.467 11.8921C25.4138 11.8415 25.351 11.802 25.2823 11.7759C25.2136 11.7498 25.1405 11.7373 25.067 11.7397H18.858C18.8635 11.7306 18.8679 11.7216 18.871 11.7114C19.1223 11.0932 19.4884 10.5282 19.95 10.0464C20.404 9.57057 20.9442 9.18466 21.542 8.91064C22.1517 8.63195 22.8147 8.48965 23.485 8.49365C24.0663 8.48382 24.645 8.57407 25.196 8.75928C25.6952 8.94073 26.1556 9.21449 26.553 9.56689C26.6455 9.64695 26.7597 9.69824 26.881 9.71338H26.942C27.0241 9.7147 27.1053 9.69583 27.179 9.65967C27.2183 9.64174 27.253 9.61577 27.2806 9.58252C27.3081 9.54927 27.3277 9.51019 27.338 9.46826C27.4232 9.42578 27.4911 9.35491 27.53 9.26807C27.573 9.17857 27.587 9.0778 27.57 8.97998C27.5504 8.87299 27.4898 8.77824 27.401 8.71533C26.8625 8.25318 26.2463 7.88996 25.581 7.64307C24.9051 7.4134 24.1949 7.30047 23.481 7.30908C22.6418 7.30161 21.8106 7.47202 21.042 7.80908C20.2993 8.14006 19.6263 8.60923 19.059 9.19189C18.4884 9.77889 18.0377 10.4715 17.732 11.231C17.668 11.392 17.608 11.562 17.553 11.731H16.123C16.0474 11.7276 15.9719 11.739 15.9008 11.7651C15.8297 11.7912 15.7646 11.8318 15.709 11.8833C15.6568 11.9312 15.6153 11.989 15.5874 12.0542C15.5594 12.1194 15.5457 12.1903 15.547 12.2612C15.5443 12.3342 15.5573 12.4066 15.5853 12.4741C15.6132 12.5416 15.6555 12.6022 15.709 12.6519C15.7646 12.7033 15.8297 12.7439 15.9008 12.77C15.9719 12.7961 16.0474 12.8075 16.123 12.8042H17.315C17.2778 13.1007 17.2591 13.3989 17.259 13.6978C17.259 13.9308 17.271 14.1754 17.295 14.4204L16.125 14.4194Z" fill="black"/>
<path d="M29.2889 28.8073C26.004 29.7547 22.4983 29.5911 19.3159 28.342C16.1334 27.0929 13.4524 24.8282 11.6889 21.8993L15.1119 20.0353C15.2141 19.9799 15.2973 19.8951 15.3508 19.7919C15.4043 19.6887 15.4256 19.5718 15.4119 19.4564C15.3995 19.3415 15.3536 19.2327 15.2798 19.1438C15.206 19.0549 15.1076 18.9897 14.9969 18.9564L4.03193 15.7293C3.88257 15.6893 3.72366 15.706 3.58593 15.7763C3.44952 15.8528 3.34835 15.9794 3.30393 16.1294L0.0849214 27.0944C0.0513056 27.206 0.0517913 27.3252 0.0862946 27.4366C0.120798 27.548 0.187749 27.6466 0.278601 27.7197C0.369453 27.7929 0.480066 27.8372 0.596274 27.8471C0.712482 27.857 0.829008 27.832 0.93093 27.7754L4.37693 25.8953C5.87881 28.3738 7.99536 30.4224 10.5216 31.8425C13.0477 33.2627 15.8979 34.0063 18.7959 34.0013C21.5878 34.0053 24.3355 33.305 26.7849 31.9654C27.8846 31.3668 28.912 30.644 29.8469 29.8113C29.9428 29.7208 30.0063 29.6013 30.0274 29.4712C30.0486 29.341 30.0262 29.2075 29.9639 29.0913C29.9008 28.9743 29.7995 28.8825 29.6768 28.8311C29.5541 28.7798 29.4176 28.7721 29.2899 28.8093L29.2889 28.8073Z" fill="black"/>
</svg>
