<svg xmlns="http://www.w3.org/2000/svg" width="44" height="44" viewBox="0 0 44 44">
  <g id="cashback" transform="translate(-151.356 -313.356)">
    <circle id="Ellipse_5720" data-name="Ellipse 5720" cx="22" cy="22" r="22" transform="translate(151.356 313.356)" fill="#fff"/>
    <g id="cashbackk" transform="translate(162.155 325.303)">
      <path id="Subtraction_6" data-name="Subtraction 6" d="M10.308,16.7a8.446,8.446,0,0,1-6.853-3.5l1.358-.736a1.046,1.046,0,0,0-.206-1.918L.014,9.19l0-.063C.007,9.045,0,8.963,0,8.883c0-.045,0-.116,0-.184A8.7,8.7,0,1,1,13.136,16.17l-.017.011,0,0-.015.008c-.125.059-.259.12-.393.172a.077.077,0,0,0-.029,0A8.565,8.565,0,0,1,10.308,16.7ZM5.081,8.528a.336.336,0,0,0-.245.09.284.284,0,0,0-.1.212.312.312,0,0,0,.1.242.344.344,0,0,0,.245.09H5.9a3.793,3.793,0,0,0,.932,1.621A3.664,3.664,0,0,0,8,11.6a3.529,3.529,0,0,0,1.433.294,4.171,4.171,0,0,0,1.239-.184,2.805,2.805,0,0,0,1.077-.63.41.41,0,0,0,.08-.127.374.374,0,0,0,.023-.137.341.341,0,0,0-.094-.246.377.377,0,0,0-.221-.112.315.315,0,0,0-.045,0,.307.307,0,0,0-.2.077,3.246,3.246,0,0,1-.879.492,2.839,2.839,0,0,1-.983.17,2.765,2.765,0,0,1-1.149-.241,3.011,3.011,0,0,1-.941-.665A3.2,3.2,0,0,1,6.7,9.3c-.017-.041-.033-.083-.048-.123l-.007-.018H9.706a.341.341,0,0,0,.237-.09.318.318,0,0,0,.094-.242.288.288,0,0,0-.094-.212.33.33,0,0,0-.237-.09H6.5A3.4,3.4,0,0,1,6.471,8.1a3.152,3.152,0,0,1,.045-.529h3.852a.328.328,0,0,0,.237-.09.31.31,0,0,0,.094-.231.3.3,0,0,0-.094-.223.328.328,0,0,0-.237-.09H6.7A.084.084,0,0,0,6.7,6.921a3.117,3.117,0,0,1,.638-.984,3.064,3.064,0,0,1,.941-.671,2.727,2.727,0,0,1,1.149-.247,3.016,3.016,0,0,1,1.012.157,2.506,2.506,0,0,1,.8.477.363.363,0,0,0,.194.086h.036a.311.311,0,0,0,.14-.031.171.171,0,0,0,.094-.114.242.242,0,0,0,.114-.117.282.282,0,0,0,.023-.171.245.245,0,0,0-.1-.156,3.548,3.548,0,0,0-1.077-.634,3.722,3.722,0,0,0-1.239-.2,3.51,3.51,0,0,0-1.443.3,3.8,3.8,0,0,0-1.172.818,3.727,3.727,0,0,0-.785,1.206c-.038.1-.074.2-.106.3H5.081a.338.338,0,0,0-.245.09.3.3,0,0,0-.1.223.3.3,0,0,0,.1.231.338.338,0,0,0,.245.09h.7a4.258,4.258,0,0,0-.033.529c0,.138.007.281.022.426Z" transform="translate(4.42)" fill="#aaa8bf"/>
      <path id="Path_11183" data-name="Path 11183" d="M178.92,274.533a9.18,9.18,0,0,1-10.407-4.085l2.024-1.1a.344.344,0,0,0,.176-.343.348.348,0,0,0-.245-.3l-6.484-1.908a.369.369,0,0,0-.264.028.355.355,0,0,0-.167.209l-1.9,6.484a.347.347,0,0,0,.5.4l2.038-1.112a9.95,9.95,0,0,0,8.527,4.794,9.818,9.818,0,0,0,4.724-1.2,9.682,9.682,0,0,0,1.811-1.274.352.352,0,0,0,.069-.426.344.344,0,0,0-.4-.167Z" transform="translate(-161.634 -257.498)" fill="#aaa8bf"/>
    </g>
  </g>
</svg>
