<svg width="40" height="41" viewBox="0 0 40 41" fill="none" xmlns="http://www.w3.org/2000/svg">
<path d="M0.00100327 18.6181L1.38344 4.01762C1.4535 3.26097 2.05598 2.66312 2.81258 2.58839L17.4123 1.20587H17.4309C17.5804 1.20587 17.6971 1.25258 17.7859 1.34132L39.6574 23.2141C39.7007 23.2573 39.735 23.3086 39.7584 23.3651C39.7819 23.4216 39.7939 23.4822 39.7939 23.5434C39.7939 23.6045 39.7819 23.6651 39.7584 23.7216C39.735 23.7781 39.7007 23.8294 39.6574 23.8726L22.6664 40.8645C22.5777 40.9533 22.461 41 22.3349 41C22.2088 41 22.092 40.9533 22.0033 40.8645L0.131775 18.9918C0.0383644 18.8937 -0.00833893 18.7583 0.00100327 18.6181ZM11.1633 15.2646C12.8119 15.2646 14.1523 13.9241 14.1523 12.2754C14.1523 10.6266 12.8119 9.28613 11.1633 9.28613C9.51461 9.28613 8.1742 10.6266 8.1742 12.2754C8.1742 13.9241 9.51461 15.2646 11.1633 15.2646Z" fill="black"/>
<path d="M0.00100327 17.4123L1.38344 2.81174C1.4535 2.05509 2.05598 1.45725 2.81258 1.38252L17.4122 0H17.4309C17.5804 0 17.6971 0.0467068 17.7859 0.13545L39.6574 22.0082C39.7007 22.0514 39.735 22.1027 39.7584 22.1592C39.7819 22.2157 39.7939 22.2763 39.7939 22.3375C39.7939 22.3987 39.7819 22.4592 39.7584 22.5157C39.735 22.5722 39.7007 22.6236 39.6574 22.6668L22.6664 39.6587C22.5777 39.7474 22.461 39.7941 22.3349 39.7941C22.2087 39.7941 22.092 39.7474 22.0033 39.6587L0.131771 17.7859C0.0383644 17.6878 -0.00833893 17.5524 0.00100327 17.4123ZM11.1633 14.0587C12.8119 14.0587 14.1523 12.7182 14.1523 11.0695C14.1523 9.42074 12.8119 8.08026 11.1633 8.08026C9.51461 8.08026 8.1742 9.42074 8.1742 11.0695C8.1742 12.7182 9.51461 14.0587 11.1633 14.0587Z" fill="#50b7ed"/>
<path d="M16.6036 21.1991C17.4828 21.5104 18.1164 22.0496 18.5045 22.8166C18.8882 23.5746 18.9315 24.3732 18.6343 25.2124C18.3348 26.0583 17.7974 26.6551 17.0222 27.0027C16.2403 27.348 15.4098 27.365 14.5306 27.0537C13.6581 26.7448 13.0333 26.2125 12.6562 25.4568C12.2792 24.7012 12.2404 23.9004 12.5399 23.0545C12.8371 22.2153 13.3733 21.6219 14.1485 21.2742C14.9194 20.9176 15.7378 20.8925 16.6036 21.1991ZM15.2903 15.9219L15.9413 14.0836L26.9002 28.6677L26.2458 30.516L15.2903 15.9219ZM16.0589 22.7377C15.5926 22.5726 15.1648 22.5635 14.7755 22.7105C14.3861 22.8575 14.1172 23.1408 13.9686 23.5604C13.8153 23.9933 13.8425 24.3927 14.0503 24.7586C14.2604 25.1179 14.5986 25.38 15.0648 25.5451C15.5444 25.7149 15.9788 25.7263 16.3681 25.5793C16.7598 25.4257 17.0323 25.1324 17.1856 24.6995C17.3366 24.2732 17.3058 23.8838 17.0933 23.5312C16.8832 23.172 16.5384 22.9075 16.0589 22.7377ZM27.6165 17.5318C28.5023 17.8455 29.1359 18.3846 29.5173 19.1493C29.901 19.9073 29.9419 20.7126 29.64 21.5651C29.3429 22.4043 28.8067 22.9978 28.0315 23.3454C27.2563 23.6931 26.4257 23.7101 25.5399 23.3964C24.6674 23.0874 24.0426 22.5551 23.6655 21.7995C23.2885 21.0439 23.2485 20.2464 23.5457 19.4072C23.8452 18.5613 24.3804 17.96 25.1513 17.6034C25.9222 17.2467 26.7439 17.2229 27.6165 17.5318ZM27.0752 19.0604C26.609 18.8953 26.1867 18.8919 25.8083 19.0503C25.4232 19.2063 25.1553 19.4974 25.0043 19.9237C24.8534 20.35 24.8785 20.7449 25.0795 21.1084C25.2763 21.4629 25.6078 21.7227 26.0741 21.8878C26.547 22.0552 26.9814 22.0666 27.3774 21.922C27.7691 21.7684 28.0404 21.4784 28.1914 21.0522C28.3423 20.6259 28.3139 20.2298 28.1062 19.8639C27.8918 19.4957 27.5481 19.2278 27.0752 19.0604Z" fill="white"/>
</svg>
