<svg xmlns="http://www.w3.org/2000/svg" width="44" height="44" viewBox="0 0 44 44">
  <g id="deposit" transform="translate(-151.356 -313.356)">
    <circle id="Ellipse_5720" data-name="Ellipse 5720" cx="22" cy="22" r="22" transform="translate(151.356 313.356)" fill="#fff"/>
    <g id="deposit-2" data-name="deposit" transform="translate(87.651 290.763)">
      <path id="Path_11167" data-name="Path 11167" d="M119.726,438.135a7.749,7.749,0,0,0,4.926-1.524v.766c0,1.728-2.117,3.031-4.926,3.031s-4.926-1.3-4.926-3.031v-.766A7.748,7.748,0,0,0,119.726,438.135Z" transform="translate(-39.704 -384.828)" fill="#aaa8bf"/>
      <path id="Path_11168" data-name="Path 11168" d="M124.651,221.432c0,1.728-2.117,3.031-4.926,3.031s-4.926-1.3-4.926-3.031,2.117-3.031,4.926-3.031S124.651,219.7,124.651,221.432Z" transform="translate(-39.704 -176.46)" fill="#aaa8bf"/>
      <path id="Path_11169" data-name="Path 11169" d="M119.726,354.135a7.749,7.749,0,0,0,4.926-1.524v.766c0,1.728-2.117,3.031-4.926,3.031s-4.926-1.3-4.926-3.031v-.766A7.748,7.748,0,0,0,119.726,354.135Z" transform="translate(-39.704 -304.617)" fill="#aaa8bf"/>
      <path id="Path_11170" data-name="Path 11170" d="M371.726,438.135a7.749,7.749,0,0,0,4.926-1.524v.766c0,1.728-2.117,3.031-4.926,3.031s-4.926-1.3-4.926-3.031v-.766A7.748,7.748,0,0,0,371.726,438.135Z" transform="translate(-280.337 -384.828)" fill="#aaa8bf"/>
      <path id="Path_11171" data-name="Path 11171" d="M376.651,221.432c0,1.728-2.117,3.031-4.926,3.031s-4.926-1.3-4.926-3.031,2.117-3.031,4.926-3.031S376.651,219.7,376.651,221.432Z" transform="translate(-280.337 -176.46)" fill="#aaa8bf"/>
      <path id="Path_11172" data-name="Path 11172" d="M371.726,354.135a7.749,7.749,0,0,0,4.926-1.524v.766c0,1.728-2.117,3.031-4.926,3.031s-4.926-1.3-4.926-3.031v-.766A7.748,7.748,0,0,0,371.726,354.135Z" transform="translate(-280.337 -304.617)" fill="#aaa8bf"/>
      <path id="Path_11173" data-name="Path 11173" d="M273.36,38.687l-3.031,3.031a.758.758,0,0,1-1.071,0l-3.031-3.031a.758.758,0,0,1,.536-1.293h1.516V35.121a1.516,1.516,0,1,1,3.031,0v2.273h1.516a.758.758,0,0,1,.535,1.293Z" transform="translate(-184.088)" fill="#aaa8bf"/>
    </g>
  </g>
</svg>
