<svg width="34" height="36" viewBox="0 0 34 36" fill="none" xmlns="http://www.w3.org/2000/svg">
<path d="M7.753 32.0109C10.5355 32.1191 13.2713 31.2722 15.506 29.6108V30.8169C15.506 33.5369 12.174 35.5879 7.753 35.5879C3.332 35.5879 0 33.5369 0 30.8169V29.6108C2.23471 31.2722 4.9705 32.1191 7.753 32.0109V32.0109Z" fill="#222222"/>
<path d="M15.506 18.8911C15.506 21.6111 12.174 23.6621 7.753 23.6621C3.332 23.6621 0 21.6111 0 18.8911C0 16.1711 3.332 14.1201 7.753 14.1201C12.174 14.1201 15.506 16.1711 15.506 18.8911Z" fill="#222222"/>
<path d="M7.753 26.047C10.5355 26.1552 13.2713 25.3083 15.506 23.647V24.853C15.506 27.573 12.174 29.624 7.753 29.624C3.332 29.624 0 27.573 0 24.853V23.647C2.23471 25.3083 4.9705 26.1552 7.753 26.047V26.047Z" fill="#222222"/>
<path d="M25.6441 32.0109C28.4266 32.1191 31.1624 31.2722 33.3971 29.6108V30.8169C33.3971 33.5369 30.0651 35.5879 25.6441 35.5879C21.2231 35.5879 17.8911 33.5369 17.8911 30.8169V29.6108C20.1258 31.2722 22.8616 32.1191 25.6441 32.0109V32.0109Z" fill="#222222"/>
<path d="M33.3971 18.8911C33.3971 21.6111 30.0651 23.6621 25.6441 23.6621C21.2231 23.6621 17.8911 21.6111 17.8911 18.8911C17.8911 16.1711 21.2231 14.1201 25.6441 14.1201C30.0651 14.1201 33.3971 16.1711 33.3971 18.8911Z" fill="#222222"/>
<path d="M25.6441 26.047C28.4266 26.1552 31.1624 25.3083 33.3971 23.647V24.853C33.3971 27.573 30.0651 29.624 25.6441 29.624C21.2231 29.624 17.8911 27.573 17.8911 24.853V23.647C20.1258 25.3083 22.8616 26.1552 25.6441 26.047V26.047Z" fill="#222222"/>
<path d="M22.3131 8.99501L17.5422 13.766C17.3185 13.9894 17.0153 14.1149 16.6991 14.1149C16.383 14.1149 16.0798 13.9894 15.8561 13.766L11.0841 8.99501C10.917 8.82836 10.8032 8.61586 10.757 8.38443C10.7108 8.153 10.7343 7.91306 10.8246 7.69501C10.9148 7.47696 11.0678 7.29062 11.2641 7.1596C11.4604 7.02858 11.6912 6.95877 11.9272 6.95901H14.3131V3.38602C14.3066 3.06864 14.3635 2.75315 14.4805 2.45804C14.5975 2.16293 14.7721 1.89413 14.9943 1.66737C15.2165 1.44062 15.4816 1.26048 15.7743 1.1375C16.067 1.01452 16.3812 0.951172 16.6986 0.951172C17.0161 0.951172 17.3303 1.01452 17.623 1.1375C17.9156 1.26048 18.1808 1.44062 18.403 1.66737C18.6251 1.89413 18.7998 2.16293 18.9168 2.45804C19.0337 2.75315 19.0906 3.06864 19.0841 3.38602V6.96402H21.4702C21.7062 6.96377 21.9369 7.03358 22.1332 7.1646C22.3295 7.29562 22.4824 7.48196 22.5727 7.70001C22.663 7.91806 22.6865 8.158 22.6403 8.38943C22.5941 8.62086 22.4802 8.83336 22.3131 9.00002V8.99501Z" fill="#222222"/>
</svg>
