<svg xmlns="http://www.w3.org/2000/svg" width="44" height="44" viewBox="0 0 44 44">
  <g id="earn" transform="translate(-151.356 -313.356)">
    <circle id="Ellipse_5720" data-name="Ellipse 5720" cx="22" cy="22" r="22" transform="translate(151.356 313.356)" fill="#fff"/>
    <g id="cashback" transform="translate(88.614 293.314)">
      <path id="Path_11174" data-name="Path 11174" d="M320.43,104.11h.731v4.14h-.731Z" transform="translate(-236.978 -69.732)" fill="#aaa8bf"/>
      <path id="Path_11174_-_Outline" data-name="Path 11174 - Outline" d="M320.336,103.86h.731a.156.156,0,0,1,.156.156v4.14a.156.156,0,0,1-.156.156h-.731a.156.156,0,0,1-.156-.156v-4.14A.156.156,0,0,1,320.336,103.86Zm.574.313h-.418V108h.418Z" transform="translate(-236.884 -69.639)" fill="#aaa8bf"/>
      <path id="Path_11175" data-name="Path 11175" d="M320.43,59.305h.731v1.218h-.731Z" transform="translate(-236.978 -26.876)" fill="#aaa8bf"/>
      <path id="Path_11175_-_Outline" data-name="Path 11175 - Outline" d="M320.336,59.055h.731a.156.156,0,0,1,.156.156v1.218a.156.156,0,0,1-.156.156h-.731a.156.156,0,0,1-.156-.156V59.211A.156.156,0,0,1,320.336,59.055Zm.574.313h-.418v.905h.418Z" transform="translate(-236.884 -26.782)" fill="#aaa8bf"/>
      <path id="Path_11176" data-name="Path 11176" d="M270.03,143.3h.731v2.435h-.731Z" transform="translate(-188.77 -107.218)" fill="#aaa8bf"/>
      <path id="Path_11176_-_Outline" data-name="Path 11176 - Outline" d="M269.936,143.05h.731a.156.156,0,0,1,.156.156v2.435a.156.156,0,0,1-.156.156h-.731a.156.156,0,0,1-.156-.156v-2.435A.156.156,0,0,1,269.936,143.05Zm.574.313h-.418v2.123h.418Z" transform="translate(-188.676 -107.124)" fill="#aaa8bf"/>
      <path id="Path_11177" data-name="Path 11177" d="M438.03,31.305h.731v2.426h-.731Z" transform="translate(-349.463 -0.094)" fill="#aaa8bf"/>
      <path id="Path_11177_-_Outline" data-name="Path 11177 - Outline" d="M437.936,31.055h.731a.156.156,0,0,1,.156.156v2.426a.156.156,0,0,1-.156.156h-.731a.156.156,0,0,1-.156-.156V31.211A.156.156,0,0,1,437.936,31.055Zm.574.313h-.418v2.113h.418Z" transform="translate(-349.37)" fill="#aaa8bf"/>
      <path id="Path_11178" data-name="Path 11178" d="M488.43,59.305h.731v1.208h-.731Z" transform="translate(-397.671 -26.876)" fill="#aaa8bf"/>
      <path id="Path_11178_-_Outline" data-name="Path 11178 - Outline" d="M488.336,59.055h.731a.156.156,0,0,1,.156.156v1.208a.156.156,0,0,1-.156.156h-.731a.156.156,0,0,1-.156-.156V59.211A.156.156,0,0,1,488.336,59.055Zm.574.313h-.418v.9h.418Z" transform="translate(-397.578 -26.782)" fill="#aaa8bf"/>
      <path id="Path_11179" data-name="Path 11179" d="M221.094,219.023h.244V217.8h.731v1.218h.731V217.8h.731v1.218h.731V217.8h.731v1.218h.243a1.461,1.461,0,1,0,0-2.923h-4.14a1.461,1.461,0,0,0,0,2.923Z" transform="translate(-140.565 -176.852)" fill="#aaa8bf" fill-rule="evenodd"/>
      <path id="Path_11180" data-name="Path 11180" d="M389.094,107.023h.244V105.8h.731v1.218h.731V105.8h.731v1.218h.731V105.8h.731v1.218h.243a1.461,1.461,0,1,0,0-2.923h-4.14a1.461,1.461,0,0,0,0,2.923Z" transform="translate(-301.258 -69.723)" fill="#aaa8bf" fill-rule="evenodd"/>
      <path id="Path_11181" data-name="Path 11181" d="M113.692,300.887a1.5,1.5,0,0,0-.916-.7,1.549,1.549,0,0,0-1.152.144l-4.515,2.5h-2a1.883,1.883,0,0,1-1.819,1.2H99.2V303.3h4.094a1.22,1.22,0,0,0,1.232-.974.381.381,0,0,0,.012-.073,1.1,1.1,0,0,0-1.094-1.132l-7.394-.012a2.562,2.562,0,0,0-1.878.784l-2.762,2.774-.017.012.039.039,2.725,4.691.044.073.348.594.107-.131,3.495-3.5h9.15l5.845-3.487h0a1.54,1.54,0,0,0,.7-.923,1.5,1.5,0,0,0-.149-1.145Z" transform="translate(-17.899 -257.231)" fill="#aaa8bf" fill-rule="evenodd"/>
      <path id="Path_11181_-_Outline" data-name="Path 11181 - Outline" d="M112.266,299.834h0a1.738,1.738,0,0,1,.446.058,1.7,1.7,0,0,1,1.03.789l0,0a1.7,1.7,0,0,1,.164,1.283,1.718,1.718,0,0,1-.781,1.035l0,0-5.841,3.485a.187.187,0,0,1-.1.027H98.114l-3.433,3.438-.1.124a.188.188,0,0,1-.307-.024l-.391-.666-2.714-4.672-.022-.022a.188.188,0,0,1,.023-.285l0,0,2.751-2.763a2.762,2.762,0,0,1,1.978-.84h.035l7.392.012a1.286,1.286,0,0,1,1.281,1.326v.007a.571.571,0,0,1-.018.109l0,.007a1.407,1.407,0,0,1-1.411,1.106H99.271v.355h3.913a1.695,1.695,0,0,0,1.638-1.079.188.188,0,0,1,.175-.12h1.951l4.473-2.478A1.74,1.74,0,0,1,112.266,299.834Zm1.149,1.03a1.321,1.321,0,0,0-.8-.609,1.373,1.373,0,0,0-1.013.126l-4.516,2.5a.188.188,0,0,1-.091.023h-1.876a2.07,2.07,0,0,1-1.946,1.2H99.084a.188.188,0,0,1-.188-.188v-.731a.188.188,0,0,1,.188-.188h4.094a1.036,1.036,0,0,0,1.052-.838.194.194,0,0,0,.005-.031.911.911,0,0,0-.907-.935l-7.394-.012H95.9a2.387,2.387,0,0,0-1.71.727l-2.667,2.679,2.722,4.683.217.371L97.9,306.2a.188.188,0,0,1,.133-.055h9.1l5.8-3.461,0,0a1.345,1.345,0,0,0,.607-.808,1.322,1.322,0,0,0-.13-1Z" transform="translate(-17.787 -257.119)" fill="#aaa8bf"/>
    </g>
  </g>
</svg>
