<svg width="38" height="36" viewBox="0 0 38 36" fill="none" xmlns="http://www.w3.org/2000/svg">
<path d="M16.9268 6.06299H18.0968V12.683H16.9268V6.06299Z" fill="#222222" stroke="#222222" stroke-width="0.5" stroke-linecap="round" stroke-linejoin="round"/>
<path d="M16.9268 2.94678H18.0968V4.89378H16.9268V2.94678Z" fill="#222222" stroke="#222222" stroke-width="0.5" stroke-linecap="round" stroke-linejoin="round"/>
<path d="M13.4219 8.78809H14.5919V12.6821H13.4219V8.78809Z" fill="#222222" stroke="#222222" stroke-width="0.5" stroke-linecap="round" stroke-linejoin="round"/>
<path d="M25.105 1H26.275V4.879H25.105V1Z" fill="#222222" stroke="#222222" stroke-width="0.5" stroke-linecap="round" stroke-linejoin="round"/>
<path d="M28.6099 2.94678H29.7799V4.87878H28.6099V2.94678Z" fill="#222222" stroke="#222222" stroke-width="0.5" stroke-linecap="round" stroke-linejoin="round"/>
<path fill-rule="evenodd" clip-rule="evenodd" d="M12.254 18.5241H12.644V16.5771H13.812V18.5241H14.984V16.5771H16.152V18.5241H17.32V16.5771H18.484V18.5241H18.873C19.1839 18.5305 19.493 18.4748 19.7821 18.3603C20.0712 18.2458 20.3345 18.0747 20.5567 17.8571C20.7788 17.6395 20.9553 17.3797 21.0758 17.0931C21.1963 16.8064 21.2583 16.4985 21.2583 16.1876C21.2583 15.8766 21.1963 15.5688 21.0758 15.2821C20.9553 14.9954 20.7788 14.7357 20.5567 14.5181C20.3345 14.3005 20.0712 14.1294 19.7821 14.0149C19.493 13.9003 19.1839 13.8447 18.873 13.8511H12.254C11.6427 13.8637 11.0607 14.1155 10.6328 14.5523C10.205 14.9891 9.96533 15.5761 9.96533 16.1876C9.96533 16.799 10.205 17.3861 10.6328 17.8229C11.0607 18.2597 11.6427 18.5114 12.254 18.5241V18.5241Z" fill="#222222"/>
<path fill-rule="evenodd" clip-rule="evenodd" d="M23.9371 10.735H24.3271V8.78802H25.4951V10.735H26.6671V8.78802H27.8351V10.735H29.0031V8.78802H30.1671V10.735H30.5561C30.867 10.7415 31.1761 10.6858 31.4652 10.5712C31.7543 10.4567 32.0177 10.2856 32.2398 10.068C32.462 9.85043 32.6384 9.59069 32.7589 9.30401C32.8794 9.01734 32.9415 8.70949 32.9415 8.39853C32.9415 8.08756 32.8794 7.77972 32.7589 7.49304C32.6384 7.20636 32.462 6.94662 32.2398 6.72902C32.0177 6.51141 31.7543 6.34033 31.4652 6.2258C31.1761 6.11127 30.867 6.05559 30.5561 6.06202H23.9361C23.3248 6.07467 22.7428 6.32639 22.315 6.7632C21.8871 7.2 21.6475 7.78709 21.6475 8.39853C21.6475 9.00996 21.8871 9.59705 22.315 10.0339C22.7428 10.4707 23.3248 10.7224 23.9361 10.735H23.9371Z" fill="#222222"/>
<path fill-rule="evenodd" clip-rule="evenodd" d="M36.659 20.9C36.501 20.6256 36.2904 20.3853 36.0391 20.1927C35.7878 20.0002 35.501 19.8592 35.195 19.778C34.5744 19.613 33.914 19.6954 33.353 20.008L26.133 24.008H22.933C22.7066 24.5895 22.305 25.0863 21.7838 25.4295C21.2627 25.7728 20.6477 25.9456 20.024 25.924H13.478V24.756H20.024C20.4834 24.7701 20.9331 24.6215 21.2937 24.3365C21.6543 24.0514 21.9026 23.6482 21.995 23.198C22.0055 23.1597 22.0122 23.1205 22.015 23.081C22.0224 22.8464 21.9826 22.6127 21.8981 22.3937C21.8136 22.1747 21.686 21.9749 21.523 21.8061C21.3599 21.6373 21.1647 21.5028 20.9488 21.4107C20.7329 21.3187 20.5007 21.2708 20.266 21.27L8.443 21.25C7.88387 21.2434 7.32929 21.3512 6.81338 21.5669C6.29746 21.7825 5.83111 22.1014 5.443 22.504L1.027 26.94L1 26.96L1.062 27.022L5.42 34.522L5.49 34.639L6.047 35.589L6.218 35.379L11.806 29.779H26.437L35.783 24.202C36.332 23.8734 36.7316 23.3441 36.897 22.726C36.98 22.4203 37.0018 22.1013 36.9609 21.7872C36.9201 21.4731 36.8175 21.1702 36.659 20.896V20.9Z" fill="#222222" stroke="#222222" stroke-width="0.6" stroke-linecap="round" stroke-linejoin="round"/>
</svg>
