<?xml version="1.0" encoding="utf-8"?>
<!-- Generator: Adobe Illustrator 24.3.0, SVG Export Plug-In . SVG Version: 6.00 Build 0)  -->
<svg version="1.1" id="Layer_1" xmlns="http://www.w3.org/2000/svg" xmlns:xlink="http://www.w3.org/1999/xlink" x="0px" y="0px"
	 viewBox="0 0 72 72" style="enable-background:new 0 0 72 72;" xml:space="preserve">
<style type="text/css">
	.st0{fill:#222222;}
</style>
<g>
	<g>
		<g>
			<path class="st0" d="M0.6,59.5c0.5-4.5,0.8-8.9,1.3-13.2C2,44.3,2.3,42.2,2.5,40c0.5-5.2,4-8.9,8.7-9.2c4.8-0.2,8.7,3.2,9.7,8.3
				c0.2,1.3,0.3,2.5,0.8,3.6c1.9,5.7,6,8.7,11.9,9.4c2.4,0.3,3.8,1.9,3.6,4.1c-0.2,2.1-1.9,3.6-4,3.5c-7.9-0.8-14.1-4.3-17.9-11.4
				c-0.2-0.3-0.3-0.8-0.6-1.3c-0.5,0.2-0.9,0.3-1.3,0.5c-0.3,0.2-0.8,0.3-1.3,0.5c0.9,2.5,2.4,4.9,4.3,6.8c0.6,0.6,1.1,1.3,1.8,1.6
				c1.1,0.8,1.4,1.8,0.9,3C13.1,59.5,6.8,59.5,0.6,59.5z"/>
			<path class="st0" d="M71.4,59.5c-6.2,0-12.4,0-18.6,0c-0.2-1.8-0.3-3.5-0.5-5.4c-2.7,2.2-5.6,4-8.9,4.8c-1.4,0.3-2.9,0.6-4.5,0.9
				c1.4-2.7,1.6-5.1,0-7.6c0.6-0.2,1.1-0.2,1.6-0.3c5.7-1.3,9.7-5.6,10.6-11.4c0.2-1.3,0.5-2.5,0.9-3.6c1.4-4,5.2-6.3,9.4-5.9
				c4.3,0.5,7.8,3.5,8.3,7.6c0.6,4.3,0.8,8.6,1.3,13C70.9,54.2,71.2,56.8,71.4,59.5z"/>
		</g>
		<path class="st0" d="M56,29.2c-4.8,0-8.6-3.8-8.6-8.4c0-4.8,3.8-8.6,8.4-8.6c4.8,0,8.6,3.8,8.6,8.4C64.4,25.4,60.8,29.2,56,29.2z"
			/>
		<path class="st0" d="M16.1,29.2c-4.8,0-8.4-3.8-8.4-8.6s3.8-8.6,8.6-8.4c4.6,0,8.6,3.8,8.4,8.6C24.7,25.4,20.9,29.2,16.1,29.2z"/>
	</g>
	<g>
		<path class="st0" d="M29.8,33.5c-0.2-0.2-0.5-0.2-0.6-0.3c-1.6-0.9-1.8-1.8-1.4-3.5c0.2-0.8,0.9-1.3,1.6-1.8
			c0.2-0.2,0.5-0.3,0.5-0.6c0.3-0.6,0.9-1.1,1.6-1.4c1.4-0.8,2.9-0.9,4.5-0.9c1.4,0,3,0.2,4.3,0.8c1.8,0.8,2.2,1.8,1.9,3.6
			c0,0.2,0,0.2,0,0.3c0.3,0.2,0.8,0.5,1.1,0.6c1.4,0.9,1.4,3.6,0,4.5c-0.3,0.2-0.5,0.3-0.8,0.5c-0.3,0.2-0.6,0.8-0.5,1.3
			c0.5,1.8,0.2,2.9-1.3,3.8c-1.3,0.8-2.7,0.9-4.1,1.1c-1.8,0-3.5-0.2-5.1-0.9c-1.6-0.8-2.1-1.9-1.6-4c0-0.2,0.2-0.3,0-0.3
			C29.7,35.2,29.8,34.4,29.8,33.5z M36,25.4c-0.6,0-1.3,0-1.9,0.2c-1.3,0.2-2.4,0.5-3.3,1.4c-0.6,0.6-0.6,1.3,0,1.9
			c0.3,0.3,0.6,0.6,0.9,0.8c2.9,1.3,5.7,1.3,8.4,0c0.6-0.3,1.4-0.8,1.4-1.6c0-0.9-0.8-1.3-1.4-1.8C38.9,25.5,37.4,25.4,36,25.4z
			 M34.9,34.1C34.9,34.2,34.9,34.2,34.9,34.1c0.9,0.3,1.9,0.5,2.9,0.5c1.6,0,3.2-0.2,4.6-0.9c1.8-0.9,1.6-2.2,0-3.2
			c-0.5-0.3-0.8-0.3-1.3,0.2c-0.2,0.2-0.5,0.3-0.8,0.5c-0.2,0.2-0.3,0.2-0.3,0.3c-0.5,1.3-1.6,1.8-2.7,2.2
			C36.6,33.8,35.7,33.9,34.9,34.1z M30.4,36.6c-0.3,0.5-0.3,1.1,0.2,1.4c0.5,0.5,0.9,0.8,1.4,1.1c2.5,0.9,5.1,0.9,7.6,0
			c0.6-0.2,1.1-0.6,1.6-1.1c0.3-0.3,0.5-0.8,0.2-1.3C38.7,38.9,33.1,38.7,30.4,36.6z M37.1,32c-1.8,0-3.3,0-4.9-0.6
			c-1.3-0.5-2.5-1.3-2.4-3.2c-0.5,0.3-0.8,0.5-1.1,0.8c-0.6,0.6-0.6,1.4,0,1.9c0.5,0.3,0.9,0.8,1.4,0.9C32.5,32.8,34.7,32.8,37.1,32
			z M30.4,33.6c-0.3,0.5-0.2,0.9,0.2,1.3c0.5,0.3,0.9,0.8,1.4,0.9c1.8,0.8,3.6,0.9,5.6,0.6c0.6,0,1.1-0.2,1.6-0.3V36
			c-0.8,0-1.6,0-2.4,0c-1.8-0.2-3.3-0.6-4.6-1.9c0-0.2-0.2-0.2-0.3-0.2C31.4,33.8,30.9,33.8,30.4,33.6z"/>
		<path class="st0" d="M36.3,30.1c-0.3,0-0.5,0-0.8,0V30c-0.3-0.2-0.6-0.3-0.9-0.3c-0.6-0.2-1.3-0.2-1.8-0.8c0.6,0,1.3-0.3,1.9,0.2
			c0.5,0.5,1.8,0.2,2.2-0.3c-0.5-0.2-0.8-0.2-1.1-0.3c-0.6-0.2-1.3-0.2-1.9-0.5c-0.3-0.2-0.6-0.5-0.6-0.6c0-0.3,0.3-0.5,0.6-0.8
			c0.2-0.2,0.5-0.2,0.8-0.2s0.5,0,0.6-0.3c0-0.2,0.8-0.2,0.8,0c0.2,0.5,0.5,0.3,0.6,0.3c0.5,0.2,0.9,0.3,1.4,0.6
			c-0.6,0.2-1.1,0.5-1.8,0c-0.5-0.3-1.1-0.3-1.8,0.3c0.3,0.2,0.5,0.2,0.8,0.3c0.8,0.2,1.6,0.3,2.4,0.5c0.3,0.2,0.8,0.3,0.8,0.6
			c0,0.3-0.5,0.6-0.8,0.8c-0.3,0.2-0.6,0.2-1.1,0.3C36.8,29.7,36.5,29.8,36.3,30.1C36.3,30,36.3,30,36.3,30.1z"/>
	</g>
</g>
</svg>
