<svg id="Layer_1" data-name="Layer 1" xmlns="http://www.w3.org/2000/svg" viewBox="0 0 225 225"><defs><style>.cls-1{fill:#222;}</style></defs><path class="cls-1" d="M160.93,215.68c-2.28-.33-4.59-.56-6.85-1a51.58,51.58,0,1,1,59.22-66.08,47.94,47.94,0,0,1,2.2,11.33,8.92,8.92,0,0,0,.18,1v6.32c-.27,2-.49,3.95-.82,5.91a51.6,51.6,0,0,1-40.45,41.46c-2.36.47-4.77.71-7.16,1.06Zm3.17-90.31a38.72,38.72,0,1,0,38.7,38.73A38.8,38.8,0,0,0,164.1,125.37Z"/><path class="cls-1" d="M28.67,35.32c0,2,0,4.07,0,6.13a12.51,12.51,0,0,0,7.43,11.77A12.85,12.85,0,0,0,54.4,42.43c.11-2,0-4,.05-6,0-.38,0-.76,0-1.22h77.41v6.14a12.88,12.88,0,0,0,25.71,1.4c.15-2.06.07-4.14.1-6.21V35.17c4.31,0,8.57-.53,12.43,1.89A13.92,13.92,0,0,1,176.59,46a15.6,15.6,0,0,1,.37,3.54q0,24.48,0,49c0,.34,0,.68,0,1.07H164.14V73.88H22.21V162c0,1.87.25,2.11,2.13,2.11H99.56V177H23.75A14,14,0,0,1,9.33,162.53q0-56.53,0-113.07a13.85,13.85,0,0,1,11.6-14.07C23.4,35,26,35.32,28.67,35.32Z"/><path class="cls-1" d="M99.56,151.19H73.9V125.48H99.56Z"/><path class="cls-1" d="M35.18,125.45H60.86v25.69H35.18Z"/><path class="cls-1" d="M60.87,86.83v25.61H35.2V86.83Z"/><path class="cls-1" d="M73.86,112.44V86.79H99.54v25.65Z"/><path class="cls-1" d="M138.24,112.45H112.55V86.8h25.69Z"/><path class="cls-1" d="M138.3,28.69c0-4.21,0-8.42,0-12.63,0-3.82,2.68-6.64,6.23-6.73a6.46,6.46,0,0,1,6.66,6.74q0,11.2,0,22.42a31.1,31.1,0,0,1-.13,4.1A6.35,6.35,0,0,1,144.58,48a6.26,6.26,0,0,1-6.2-5.87c-.15-4.48,0-9,0-13.47Z"/><path class="cls-1" d="M35.12,28.7c0-4.25,0-8.49,0-12.74A6.44,6.44,0,1,1,48,16.05c0,6.7,0,13.4,0,20.1,0,1.83,0,3.65,0,5.47a6.43,6.43,0,0,1-12.65,1.57,9.67,9.67,0,0,1-.22-2.29C35.11,36.83,35.12,32.76,35.12,28.7Z"/><path class="cls-1" d="M164.09,164.09h1.25c6.07,0,12.14,0,18.21,0a6.42,6.42,0,0,1,2.07,12.46,7.35,7.35,0,0,1-2.37.38q-12.69,0-25.37,0a6.36,6.36,0,0,1-6.66-6.7q0-12.63,0-25.26a6.44,6.44,0,1,1,12.87,0c0,5.93,0,11.86,0,17.79Z"/></svg>