<svg width="33" height="34" viewBox="0 0 33 34" fill="none" xmlns="http://www.w3.org/2000/svg">
<path d="M16.4765 22.1355C19.4987 22.1355 21.9464 19.6877 21.9464 16.6655V9.14439C21.9464 6.12226 19.4987 3.67447 16.4765 3.67447C13.4544 3.67447 11.0066 6.12226 11.0066 9.14439V16.6655C11.0066 19.6877 13.4544 22.1355 16.4765 22.1355Z" stroke="white" stroke-width="2.05122" stroke-linecap="round" stroke-linejoin="round"/>
<path d="M6.01733 14.1361V16.4608C6.01733 22.2316 10.7078 26.9221 16.4786 26.9221C22.2493 26.9221 26.9398 22.2316 26.9398 16.4608V14.1361" stroke="white" stroke-width="2.05122" stroke-linecap="round" stroke-linejoin="round"/>
<path d="M14.5771 9.73292C15.8079 9.28165 17.148 9.28165 18.3787 9.73292" stroke="white" stroke-width="2.05122" stroke-linecap="round" stroke-linejoin="round"/>
<path d="M15.3833 12.6321C16.1081 12.4406 16.8602 12.4406 17.5849 12.6321" stroke="white" stroke-width="2.05122" stroke-linecap="round" stroke-linejoin="round"/>
<path d="M16.4783 26.922V31.0244" stroke="white" stroke-width="2.05122" stroke-linecap="round" stroke-linejoin="round"/>
</svg>
