<svg width="15" height="15" viewBox="0 0 15 15" fill="none" xmlns="http://www.w3.org/2000/svg">
<path d="M14.5 7.5C14.5 11.366 11.366 14.5 7.5 14.5C3.63401 14.5 0.5 11.366 0.5 7.5C0.5 3.63401 3.63401 0.5 7.5 0.5C11.366 0.5 14.5 3.63401 14.5 7.5Z" fill="#222222" stroke="white"/>
<path d="M7.87527 7.14627L7.52137 7.50017L7.87562 7.85372L9.92027 9.89438C9.9203 9.8944 9.92032 9.89443 9.92035 9.89445C9.92181 9.89594 9.92298 9.8977 9.92378 9.89963C9.92459 9.90159 9.92501 9.9037 9.92501 9.90582C9.92501 9.90795 9.92459 9.91006 9.92378 9.91202C9.92297 9.91398 9.92177 9.91577 9.92027 9.91727C9.91877 9.91878 9.91698 9.91997 9.91502 9.92078C9.91306 9.92159 9.91095 9.92201 9.90882 9.92201C9.9067 9.92201 9.90459 9.92159 9.90263 9.92078C9.90066 9.91997 9.89888 9.91877 9.89738 9.91727L9.89694 9.91684L7.85294 7.87784L7.49939 7.52515L7.14627 7.87827L5.10527 9.91927C5.10377 9.92078 5.10198 9.92197 5.10002 9.92278C5.09806 9.92359 5.09595 9.92401 5.09382 9.92401C5.0917 9.92401 5.08959 9.92359 5.08763 9.92278C5.08567 9.92197 5.08388 9.92078 5.08238 9.91927C5.08087 9.91777 5.07968 9.91598 5.07887 9.91402C5.07806 9.91206 5.07764 9.90995 5.07764 9.90783C5.07764 9.9057 5.07806 9.90359 5.07887 9.90163C5.07968 9.89966 5.08088 9.89788 5.08238 9.89638L5.08255 9.8962L7.12355 7.85321L7.47676 7.49965L7.12338 7.14627L5.08238 5.10527C5.07934 5.10224 5.07764 5.09812 5.07764 5.09383C5.07764 5.08953 5.07934 5.08541 5.08238 5.08238C5.08542 5.07934 5.08953 5.07764 5.09382 5.07764C5.09812 5.07764 5.10223 5.07934 5.10527 5.08238L7.14627 7.12338L7.49982 7.47693L7.85338 7.12338L9.88656 5.0902C9.88936 5.08813 9.89277 5.08701 9.89629 5.08706C9.90047 5.08712 9.90445 5.0888 9.9074 5.09175C9.91035 5.09471 9.91203 5.0987 9.91208 5.10287C9.91212 5.10642 9.91098 5.10987 9.90886 5.11268L7.87527 7.14627Z" fill="white" stroke="white"/>
</svg>
