<svg xmlns="http://www.w3.org/2000/svg" width="24.382" height="24.382" viewBox="43 456.309 24.382 24.382"><g data-name="Group 9220"><path d="M67.382 468.5c0 6.733-5.458 12.191-12.191 12.191-6.733 0-12.191-5.458-12.191-12.191 0-6.733 5.458-12.191 12.19-12.191 6.734 0 12.192 5.458 12.192 12.191" fill="#50b7ed" fill-rule="evenodd" data-name="Path 26049"/><g data-name="Group 9219"><g data-name="Group 9217" transform="translate(49.26 461.944)" clip-path="url(&quot;#a&quot;)"><path d="M10.21 12.376 5.516 9.763a.36.36 0 0 0-.387.024l-3.588 2.612a.404.404 0 0 0-.143.437c.045.16.189.272.355.275h8.28a.375.375 0 0 0 .362-.298.398.398 0 0 0-.187-.437" fill="#fff" fill-rule="evenodd" data-name="Path 26045"/><path d="M11.855 11.629 10.69 6.404a.393.393 0 0 0-.608-.237L6.3 8.78a.391.391 0 0 0 .04.668l4.947 2.612a.394.394 0 0 0 .569-.431Z" fill="#fff" fill-rule="evenodd" data-name="Path 26046"/><path d="M9.61 5.547a.394.394 0 0 0-.375-.275h-3.59A16.36 16.36 0 0 1 3.63 8.02a1.182 1.182 0 0 1-1.755 0c-.154-.17-.391-.443-.664-.78l-.95 4.269a.394.394 0 0 0 .608.407l8.588-5.932a.391.391 0 0 0 .152-.437" fill="#fff" fill-rule="evenodd" data-name="Path 26047"/><path d="M2.752 0A2.751 2.751 0 0 0 0 2.744c0 1.408 2.208 3.903 2.46 4.184a.394.394 0 0 0 .585 0c.25-.28 2.46-2.774 2.46-4.184A2.751 2.751 0 0 0 2.751 0m0 3.92a1.176 1.176 0 1 1 .006-2.352 1.176 1.176 0 0 1-.006 2.353" fill="#fff" fill-rule="evenodd" data-name="Path 26048"/></g></g></g><defs><clipPath id="a"><path d="M0 0h11.864v13.111H0V0z" data-name="Rectangle 1226"/></clipPath></defs></svg>