<svg xmlns="http://www.w3.org/2000/svg" width="24.382" height="24.382" viewBox="43 585.309 24.382 24.382"><g data-name="Group 9248"><path d="M67.382 597.5c0 6.733-5.458 12.191-12.191 12.191-6.733 0-12.191-5.458-12.191-12.191 0-6.733 5.458-12.191 12.191-12.191 6.733 0 12.191 5.458 12.191 12.191" fill="#50b7ed" fill-rule="evenodd" data-name="Path 26072"/><g data-name="Group 9247"><g data-name="Group 9245" transform="translate(49.012 592.993)" clip-path="url(&quot;#a&quot;)"><path d="M2.205 8.179H.565c-.373 0-.564-.19-.564-.567V.586C0 .189.188 0 .583 0H11.768c.404 0 .59.188.59.591v7.015c0 .383-.188.573-.57.573-2.177 0-4.355 0-6.533-.002a.298.298 0 0 0-.245.108c-.791.87-1.585 1.739-2.379 2.608-.115.126-.24.163-.328.07a.38.38 0 0 1-.094-.24c-.006-.795-.004-1.59-.004-2.385v-.16m4.212-5.485h3.932c.04 0 .08.002.12-.002a.223.223 0 0 0 .029-.44.573.573 0 0 0-.13-.01h-7.89c-.043 0-.088 0-.13.01a.221.221 0 0 0-.173.237c.01.106.093.19.202.203.04.004.08.002.119.002h3.92m-1.02 1.623h2.908c.04 0 .08.002.119-.002a.221.221 0 0 0 .202-.201.22.22 0 0 0-.172-.239.561.561 0 0 0-.13-.01H2.485a.503.503 0 0 0-.164.02.204.204 0 0 0-.145.221c.008.112.074.182.183.206.038.009.079.005.118.005h2.92M4.079 5.942h1.584c.043 0 .087.001.13-.004a.222.222 0 0 0 .205-.213.225.225 0 0 0-.195-.233c-.035-.006-.072-.005-.107-.005H2.48c-.04 0-.08 0-.119.007a.224.224 0 0 0 .014.443c.043.006.088.004.131.004H4.08" fill="#fff" fill-rule="evenodd" data-name="Path 26071"/></g></g></g><defs><clipPath id="a"><path d="M0 0h12.358v11.015H0V0z" data-name="Rectangle 1239"/></clipPath></defs></svg>