<svg width="30" height="30" viewBox="0 0 30 30" fill="none" xmlns="http://www.w3.org/2000/svg">
<circle cx="15" cy="14.9999" r="15" fill="#50b7ed"/>
<path d="M7 21.3599C7 21.7139 7.286 21.9999 7.64 21.9999H22.36C22.714 21.9999 23 21.7139 23 21.3599V14.9599H7V21.3599ZM22.36 9.43994H19V8.15994C19 8.07194 18.928 7.99994 18.84 7.99994H17.72C17.632 7.99994 17.56 8.07194 17.56 8.15994V9.43994H12.44V8.15994C12.44 8.07194 12.368 7.99994 12.28 7.99994H11.16C11.072 7.99994 11 8.07194 11 8.15994V9.43994H7.64C7.286 9.43994 7 9.72594 7 10.0799V13.5999H23V10.0799C23 9.72594 22.714 9.43994 22.36 9.43994Z" fill="white"/>
</svg>
