<svg xmlns="http://www.w3.org/2000/svg" width="24.382" height="24.382" viewBox="211 456.309 24.382 24.382"><g data-name="Group 9209"><path d="M235.382 468.5c0 6.733-5.458 12.191-12.191 12.191-6.733 0-12.191-5.458-12.191-12.191 0-6.733 5.458-12.191 12.191-12.191 6.733 0 12.191 5.458 12.191 12.191" fill="#50b7ed" fill-rule="evenodd" data-name="Path 26038"/><g data-name="Group 9208"><g data-name="Group 9207" transform="translate(216.484 463.71)" clip-path="url(&quot;#a&quot;)"><path d="M0 1.437C0 .643.643 0 1.437 0h10.54c.794 0 1.438.643 1.438 1.437v.479H0v-.479Zm0 1.437h13.415v5.27c0 .794-.644 1.438-1.437 1.438H1.438A1.437 1.437 0 0 1 0 8.144v-5.27Zm7.666 3.354a.48.48 0 1 0 0 .958h2.874a.479.479 0 1 0 0-.958H7.666Z" fill="#fff" fill-rule="evenodd" data-name="Path 26042"/></g></g></g><defs><clipPath id="a"><path d="M0 0h13.415v9.582H0V0z" data-name="Rectangle 1223"/></clipPath></defs></svg>