<svg width="30" height="30" viewBox="0 0 30 30" fill="none" xmlns="http://www.w3.org/2000/svg">
<circle cx="15" cy="15" r="15" fill="#50b7ed"/>
<path d="M7 10.3333C7 9.71446 7.21071 9.12097 7.58579 8.68339C7.96086 8.2458 8.46957 7.99997 9 7.99997H21C21.5304 7.99997 22.0391 8.2458 22.4142 8.68339C22.7893 9.12097 23 9.71446 23 10.3333V16.1666H7V10.3333ZM18.5 11.5C18.3674 11.5 18.2402 11.5614 18.1464 11.6708C18.0527 11.7802 18 11.9286 18 12.0833V13.25C18 13.4047 18.0527 13.5531 18.1464 13.6624C18.2402 13.7718 18.3674 13.8333 18.5 13.8333H20.5C20.6326 13.8333 20.7598 13.7718 20.8536 13.6624C20.9473 13.5531 21 13.4047 21 13.25V12.0833C21 11.9286 20.9473 11.7802 20.8536 11.6708C20.7598 11.5614 20.6326 11.5 20.5 11.5H18.5ZM7 18.5V19.6666C7 20.2855 7.21071 20.879 7.58579 21.3166C7.96086 21.7541 8.46957 22 9 22H21C21.5304 22 22.0391 21.7541 22.4142 21.3166C22.7893 20.879 23 20.2855 23 19.6666V18.5H7Z" fill="white"/>
</svg>
