<svg xmlns="http://www.w3.org/2000/svg" width="24.382" height="24.382" viewBox="211 522.309 24.382 24.382"><g data-name="Group 9224"><path d="M235.382 534.5c0 6.733-5.458 12.191-12.191 12.191-6.733 0-12.191-5.458-12.191-12.191 0-6.733 5.458-12.191 12.191-12.191 6.733 0 12.191 5.458 12.191 12.191" fill="#50b7ed" fill-rule="evenodd" data-name="Path 26051"/><g data-name="Group 9223"><g data-name="Group 9221" transform="translate(216.158 528.248)" clip-path="url(&quot;#a&quot;)"><path d="m7.035 12.503-.305-.195A20.83 20.83 0 0 1 2.098 8.78 7.475 7.475 0 0 1 0 3.67 3.744 3.744 0 0 1 3.755 0a4.313 4.313 0 0 1 3.28 1.57A4.314 4.314 0 0 1 10.307 0a3.744 3.744 0 0 1 3.758 3.669A7.464 7.464 0 0 1 11.97 8.78a20.807 20.807 0 0 1-4.632 3.527l-.302.195Z" fill="#fff" fill-rule="evenodd" data-name="Path 26050"/></g></g></g><defs><clipPath id="a"><path d="M0 0h14.065v12.503H0V0z" data-name="Rectangle 1228"/></clipPath></defs></svg>