<svg xmlns="http://www.w3.org/2000/svg" width="24.382" height="24.382" viewBox="211 711.809 24.382 24.382"><g data-name="Group 9256"><path d="M235.382 724c0 6.733-5.458 12.191-12.191 12.191-6.733 0-12.191-5.458-12.191-12.191 0-6.733 5.458-12.191 12.191-12.191 6.733 0 12.191 5.458 12.191 12.191" fill="#50b7ed" fill-rule="evenodd" data-name="Path 26038"/><g data-name="Group 9255"><g data-name="Group 9254" transform="translate(217 717.809)" clip-path="url(&quot;#a&quot;)"><path d="M.897 0h6.204c.031.009.063.02.095.025.691.122 1.27.737 1.296 1.42.022.592.012 1.187.006 1.78-.003.22-.13.374-.33.457a.523.523 0 0 1-.722-.481c-.008-.51-.002-1.021-.003-1.532 0-.392-.209-.603-.596-.604H4.629c-.035 0-.071.004-.111.005.009.013.011.022.017.025.58.244.778.543.778 1.177v7.824h.157c.428 0 .856-.017 1.283.005.524.026.707-.288.695-.69-.018-.634-.005-1.27-.004-1.905 0-.07.002-.143.02-.21a.527.527 0 0 1 .556-.384c.277.032.478.237.48.514.005.714.007 1.428 0 2.143-.008.904-.707 1.59-1.615 1.592-.478.002-.955 0-1.433 0h-.139c0 .169.003.317 0 .466-.003.091-.002.184-.02.273-.135.648-.77 1.004-1.415.79-1.023-.338-2.045-.68-3.068-1.022-.549-.183-.81-.547-.81-1.128V1.16l.001-.112C.023.595.244.274.653.084.731.048.816.027.897 0" fill="#fff" fill-rule="evenodd" data-name="Path 26075"/><path d="M12.756 5.431c-.096.132-.179.277-.292.393-.647.656-1.302 1.305-1.953 1.957-.14.141-.303.218-.504.182a.527.527 0 0 1-.439-.54c-.002-.474 0-.947 0-1.42v-.154h-.151l-1.93-.001c-.298 0-.512-.166-.564-.427-.068-.34.178-.635.536-.637.651-.002 1.303 0 1.955 0h.153v-.138c0-.47.002-.938 0-1.407-.002-.25.098-.435.327-.539.208-.094.427-.04.612.145.69.69 1.382 1.378 2.068 2.072.078.08.122.193.182.29v.224Z" fill="#fff" fill-rule="evenodd" data-name="Path 26076"/></g></g></g><defs><clipPath id="a"><path d="M0 0h12.756v12.752H0V0z" data-name="Rectangle 1241"/></clipPath></defs></svg>