<svg xmlns="http://www.w3.org/2000/svg" width="24.382" height="24.382" viewBox="43 522.309 24.382 24.382"><g data-name="Group 9244"><path d="M67.382 534.5c0 6.733-5.458 12.191-12.191 12.191-6.733 0-12.191-5.458-12.191-12.191 0-6.733 5.458-12.191 12.191-12.191 6.733 0 12.191 5.458 12.191 12.191" fill="#50b7ed" fill-rule="evenodd" data-name="Path 26070"/><g data-name="Group 9243"><g data-name="Group 9241" transform="translate(48.237 527.022)" clip-path="url(&quot;#a&quot;)"><path d="m5.242 11.533.414 1.076c.007.02.015.04.014.06-.02.304.147.498.368.678.23.187.442.398.658.603.114.108.11.17-.011.269-.28.226-.567.445-.846.674-.111.09-.19.081-.294-.018-.658-.628-1.323-1.248-1.982-1.874-.076-.073-.14-.094-.246-.063-.307.089-.59.015-.838-.18-.079-.061-.144-.072-.241-.048-.477.116-.903-.014-1.275-.314-.566-.455-.865-1.061-.956-1.774a.98.98 0 0 1 .19-.695c.055-.08.057-.141.014-.227-.163-.322-.182-.653-.01-.976a.863.863 0 0 1 .223-.277c.863-.66 1.727-1.319 2.599-1.966.48-.357.876-.765.978-1.38.044-.267.05-.54.08-.81.02-.191.03-.388.08-.572.224-.818.937-1.204 1.798-.984.435.111.835.307 1.194.571C8.762 4.49 9.87 6.032 10.42 7.958c.137.477.173.967.056 1.457-.196.827-.848 1.225-1.677 1.03-.304-.071-.606-.155-.913-.212a1.612 1.612 0 0 0-1.01.133c-.627.303-1.129.782-1.635 1.167m4.245-2.798c-.029-.168-.05-.382-.104-.588a6.045 6.045 0 0 0-.702-1.6c-.595-.975-1.326-1.827-2.306-2.435a2.954 2.954 0 0 0-.715-.307c-.259-.077-.43.037-.458.303-.025.23-.015.47.023.698.101.606.373 1.149.673 1.677.586 1.03 1.31 1.941 2.32 2.589.232.15.5.258.767.336.278.08.411-.032.46-.316.017-.103.025-.207.042-.357" fill="#fff" fill-rule="evenodd" data-name="Path 26065"/><path d="M7.915 1.886c.027-.089.04-.183.082-.265.218-.433.44-.864.667-1.292a.593.593 0 0 1 .701-.305.557.557 0 0 1 .356.796 71.92 71.92 0 0 1-.726 1.35.539.539 0 0 1-.627.265.603.603 0 0 1-.453-.549" fill="#fff" fill-rule="evenodd" data-name="Path 26066"/><path d="M13.307 6.583c.341.004.584.234.6.546a.577.577 0 0 1-.504.6c-.493.057-.986.108-1.48.154a.576.576 0 0 1-.61-.492c-.042-.294.15-.597.447-.639.522-.073 1.048-.116 1.547-.17" fill="#fff" fill-rule="evenodd" data-name="Path 26067"/><path d="M12.675 3.347a.514.514 0 0 1-.226.457c-.41.286-.82.573-1.238.849a.555.555 0 0 1-.785-.16.558.558 0 0 1 .148-.788c.392-.276.788-.546 1.185-.816a.569.569 0 0 1 .622-.04.533.533 0 0 1 .294.498" fill="#fff" fill-rule="evenodd" data-name="Path 26068"/><path d="M6.091 5.686c.552-.18 1.104.018 1.511.519.41.503.444 1.162.078 1.793-.652-.691-1.203-1.438-1.589-2.312" fill="#fff" fill-rule="evenodd" data-name="Path 26069"/></g></g></g><defs><clipPath id="a"><path d="M0 0h13.908v14.956H0V0z" data-name="Rectangle 1237"/></clipPath></defs></svg>