<svg id="Layer_1" width="24.382" height="24.382" data-name="Layer 1" xmlns="http://www.w3.org/2000/svg" viewBox="0 0 25.09 25.12"><defs><style>.cls-1{fill:#50b7ed;}.cls-2{fill:#fff;}</style></defs><path id="Path_26074" data-name="Path 26074" class="cls-1" d="M24.74,12.56A12.2,12.2,0,1,1,12.54.37h0a12.2,12.2,0,0,1,12.2,12.19"/><path class="cls-2" d="M12.63,18.3c-.65,0-1.25-.05-1.85-.12a6.67,6.67,0,0,1-5.61-5.69,6.56,6.56,0,0,1,5.38-7.33,9,9,0,0,1,5.76.56A6.33,6.33,0,0,1,20,11.48a6.44,6.44,0,0,1-3.6,6.07,2.39,2.39,0,0,0-.52.38c-.63.63-1.25,1.26-1.86,1.91a.79.79,0,0,1-.91.28c-.39-.16-.45-.48-.44-.85S12.63,18.62,12.63,18.3Zm1.21,0,.55-.59a9.09,9.09,0,0,1,1.77-1.43A5.14,5.14,0,0,0,18.73,11a5.15,5.15,0,0,0-3.37-4.38,8.47,8.47,0,0,0-4.49-.31,5.32,5.32,0,0,0-4.54,5.15,5.37,5.37,0,0,0,3.77,5.36,8.53,8.53,0,0,0,2.71.27.89.89,0,0,1,1,1A1.84,1.84,0,0,1,13.84,18.28Z"/><path class="cls-2" d="M11.55,9.32a3,3,0,0,1,0-.46A1,1,0,0,1,12.64,8,1,1,0,0,1,13.53,9c-.06.84-.21,1.69-.35,2.52a7,7,0,0,1-.33,1.19.5.5,0,0,1-.32.28c-.08,0-.24-.16-.28-.28A14.75,14.75,0,0,1,11.55,9.32Z"/><path class="cls-2" d="M13.35,14.47a.77.77,0,0,1-.82.84.78.78,0,0,1-.78-.85.81.81,0,0,1,.79-.85A.8.8,0,0,1,13.35,14.47Z"/></svg>