<svg xmlns="http://www.w3.org/2000/svg" width="24.382" height="24.382" viewBox="211 585.309 24.382 24.382"><g data-name="Group 9253"><path d="M235.382 597.5c0 6.733-5.458 12.191-12.191 12.191-6.733 0-12.191-5.458-12.191-12.191 0-6.733 5.458-12.191 12.191-12.191 6.733 0 12.191 5.458 12.191 12.191" fill="#50b7ed" fill-rule="evenodd" data-name="Path 26074"/><g data-name="Group 9252"><g data-name="Group 9249" transform="translate(216.948 591.255)" clip-path="url(&quot;#a&quot;)"><path d="M6.301 11.517c-.133-.007-.299-.02-.465-.02a.251.251 0 0 0-.157.056c-.227.207-.447.422-.671.633-.059.055-.12.109-.184.16-.17.137-.343.172-.556.072a13.643 13.643 0 0 0-1.015-.423c-.234-.088-.335-.252-.344-.485a40.091 40.091 0 0 1-.028-1.076.291.291 0 0 0-.108-.229c-.184-.171-.354-.358-.535-.532a.275.275 0 0 0-.162-.075 37.297 37.297 0 0 0-1.011-.029c-.297-.005-.508-.108-.612-.416C.338 8.815.19 8.487.045 8.16a.432.432 0 0 1 .053-.467c.067-.089.14-.173.216-.253.202-.215.41-.424.609-.641a.257.257 0 0 0 .062-.156c.006-.272.006-.546.001-.818 0-.05-.022-.11-.054-.146-.19-.208-.388-.41-.58-.616a3.763 3.763 0 0 1-.25-.29.429.429 0 0 1-.048-.469 17 17 0 0 0 .432-1.039c.088-.24.253-.345.491-.354.354-.014.708-.023 1.063-.027a.306.306 0 0 0 .242-.11c.163-.174.334-.342.509-.505a.267.267 0 0 0 .099-.206c.01-.38.024-.76.043-1.138.01-.217.122-.359.332-.439.362-.138.72-.288 1.076-.442.154-.067.296-.058.422.04.157.125.303.262.45.398.164.15.321.307.486.455.034.03.09.05.135.05.277.005.555.007.832.001A.257.257 0 0 0 6.82.923c.227-.208.447-.423.67-.634.063-.059.128-.113.196-.166a.459.459 0 0 1 .513-.061c.341.154.688.3 1.038.432a.475.475 0 0 1 .336.464c.015.353.026.708.031 1.062a.353.353 0 0 0 .131.285c.172.152.332.32.488.489.06.065.118.095.207.097.372.009.743.023 1.113.04.226.01.378.118.461.34.136.358.284.712.438 1.064a.409.409 0 0 1-.04.434 3.75 3.75 0 0 1-.282.33c-.186.201-.378.395-.562.597a.26.26 0 0 0-.06.157 17.01 17.01 0 0 0 0 .793.277.277 0 0 0 .061.167c.213.234.433.46.65.69.053.056.103.115.15.175.123.162.155.326.064.524-.159.344-.302.696-.439 1.05-.077.201-.217.306-.421.318-.35.019-.7.027-1.05.034-.141.002-.252.032-.352.153-.147.176-.327.324-.486.49a.276.276 0 0 0-.076.161c-.015.32-.019.64-.03.96-.003.09-.012.18-.027.267a.424.424 0 0 1-.272.344c-.388.156-.774.316-1.16.479-.146.062-.278.029-.397-.057a3.191 3.191 0 0 1-.302-.256 21.51 21.51 0 0 1-.574-.55c-.079-.08-.16-.117-.273-.096-.074.014-.152.01-.263.018M8.985 6.24A2.746 2.746 0 0 0 6.238 3.5a2.752 2.752 0 0 0-2.74 2.751 2.743 2.743 0 0 0 2.755 2.733 2.74 2.74 0 0 0 2.732-2.742" fill="#fff" fill-rule="evenodd" data-name="Path 26073"/></g></g></g><defs><clipPath id="a"><path d="M0 0h12.486v12.49H0V0z" data-name="Rectangle 1240"/></clipPath></defs></svg>