<svg xmlns="http://www.w3.org/2000/svg" width="24.382" height="24.382" viewBox="43 714.309 24.382 24.382"><g data-name="Group 9234"><path d="M67.382 726.5c0 6.733-5.458 12.191-12.191 12.191-6.733 0-12.191-5.458-12.191-12.191 0-6.733 5.458-12.191 12.191-12.191 6.733 0 12.191 5.458 12.191 12.191" fill="#50b7ed" fill-rule="evenodd" data-name="Path 26062"/><g data-name="Group 9233"><g data-name="Group 9231" transform="translate(46.643 720.705)" clip-path="url(&quot;#a&quot;)"><path d="M9.988 4.947a15.428 15.428 0 0 0-.135-.601 5.59 5.59 0 0 0-.383-1.044A6.709 6.709 0 0 0 8.74 2.11a4.352 4.352 0 0 0-1.185-1.062A5.093 5.093 0 0 0 5.802.396a6.72 6.72 0 0 0-2.429.055l-.395.072S1.918.599 1.932 0H1.8L.033 6.773c-.085.328-.003.677.22.932l3.925 4.51h.133c-.012-.593.777-.698.777-.698v-.002l.315-.057a6.624 6.624 0 0 0 1.807-.568c.464-.227.893-.52 1.273-.871.33-.307.609-.665.826-1.06.198-.36.359-.74.482-1.134.27-.934.336-1.916.193-2.878M7.06 7.402c-.073.244-.172.48-.296.703a2.582 2.582 0 0 1-.524.664c-.241.22-.513.401-.807.541a4.25 4.25 0 0 1-1.12.349l-.53.096L.497 7.368a.296.296 0 0 1-.091-.377l2.19-4.293.422-.076a4.061 4.061 0 0 1 1.521-.027c.389.072.76.216 1.095.426.287.183.537.418.738.693.178.244.331.505.457.78.104.222.187.453.248.69.05.205.081.344.094.415a4.39 4.39 0 0 1-.11 1.8" fill="#fff" fill-rule="evenodd" data-name="Path 26057"/><path d="M11.609 2.74c.03.084.121.129.206.1l4.55-1.53a.161.161 0 0 0 .102-.204.164.164 0 0 0-.207-.1l-4.55 1.53a.16.16 0 0 0-.102.204" fill="#fff" fill-rule="evenodd" data-name="Path 26058"/><path d="M11.889 3.553c.03.084.122.128.206.1l4.55-1.53a.16.16 0 0 0 .102-.202V1.92a.163.163 0 0 0-.207-.1l-4.55 1.53a.16.16 0 0 0-.102.203" fill="#fff" fill-rule="evenodd" data-name="Path 26059"/><path d="M17.085 2.688a.163.163 0 0 0-.208-.096l-4.325 1.544c-.452.215-.968.25-1.444.098a1.184 1.184 0 0 1-.566-1.538c.268-.42.689-.721 1.173-.84L16.042.312a.16.16 0 0 0 .097-.204V.107A.162.162 0 0 0 15.93.01l-4.326 1.544c-.756.27-1.39.693-1.483 1.433a.488.488 0 0 1-.331.398l-9.21 3.14-.033.007a.63.63 0 0 0-.377.807l.001.003a.64.64 0 0 0 .815.385c.01-.003.018-.01.028-.014l9.068-3.537a.498.498 0 0 1 .513.097c.55.51 1.31.435 2.067.165l4.327-1.544a.162.162 0 0 0 .097-.206" fill="#fff" fill-rule="evenodd" data-name="Path 26060"/><path d="M5.977 3.277c.15.13.283.277.4.437.177.245.33.506.457.78.103.223.186.453.248.69.05.206.08.344.094.415.02.15.031.299.037.444h2.842a7.85 7.85 0 0 0-.07-1.096 15.116 15.116 0 0 0-.135-.601A5.59 5.59 0 0 0 9.468 3.3a5.813 5.813 0 0 0-.271-.513h-3.22v.489Z" fill="#fff" fill-rule="evenodd" data-name="Path 26061"/></g></g></g><defs><clipPath id="a"><path d="M0 0h17.096v12.214H0V0z" data-name="Rectangle 1233"/></clipPath></defs></svg>