<svg xmlns="http://www.w3.org/2000/svg" width="24.382" height="24.382" viewBox="43 651.309 24.382 24.382"><g data-name="Group 9214"><path d="M67.382 663.5c0 6.733-5.458 12.191-12.19 12.191-6.734 0-12.192-5.458-12.192-12.191 0-6.733 5.458-12.191 12.191-12.191 6.733 0 12.191 5.458 12.191 12.191" fill="#50b7ed" fill-rule="evenodd" data-name="Path 26044"/><g data-name="Group 9213"><g data-name="Group 9211" transform="translate(49.19 657.505)" clip-path="url(&quot;#a&quot;)"><path d="m5.361.415-1.465 3.1-3.277.5a.76.76 0 0 0-.4 1.28L2.591 7.71l-.561 3.41a.724.724 0 0 0 1.041.79l2.931-1.612 2.932 1.61a.725.725 0 0 0 1.041-.79l-.561-3.41 2.371-2.41a.76.76 0 0 0-.4-1.28l-3.277-.5L6.646.415a.704.704 0 0 0-1.285 0" fill="#fff" fill-rule="evenodd" data-name="Path 26043"/></g></g></g><defs><clipPath id="a"><path d="M0 0h12.003v11.991H0V0z" data-name="Rectangle 1224"/></clipPath></defs></svg>