<svg width="30" height="30" viewBox="0 0 30 30" fill="none" xmlns="http://www.w3.org/2000/svg">
<circle cx="15" cy="15" r="15" fill="#50b7ed"/>
<path d="M21.3963 10.0714C21.3358 10.0023 21.2617 9.94645 21.1786 9.90732C21.0955 9.86819 21.0052 9.84662 20.9134 9.84397C19.4874 9.80669 17.6828 8.2818 16.4898 7.6834C15.7528 7.31492 15.2663 7.07196 14.9009 7.00795C14.8267 6.99714 14.7513 6.99735 14.6772 7.00858C14.3118 7.07258 13.8253 7.31554 13.0889 7.68403C11.8959 8.2818 10.0913 9.80669 8.66526 9.84397C8.5734 9.84676 8.48309 9.86838 8.39993 9.9075C8.31677 9.94662 8.24254 10.0024 8.18182 10.0714C8.05597 10.2138 7.99104 10.3999 8.001 10.5896C8.30734 16.8178 10.5412 20.6723 14.4609 22.9124C14.5629 22.9702 14.6759 23 14.7884 23C14.9009 23 15.014 22.9702 15.1165 22.9124C19.0362 20.6723 21.2695 16.8178 21.5765 10.5896C21.587 10.3999 21.5222 10.2137 21.3963 10.0714ZM18.2794 12.5209L14.9717 17.4019C14.853 17.5771 14.6666 17.6933 14.4821 17.6933C14.2969 17.6933 14.0912 17.5921 13.9614 17.4622L11.6299 15.1301C11.5538 15.0537 11.511 14.9503 11.511 14.8424C11.511 14.7346 11.5538 14.6311 11.6299 14.5547L12.2059 13.9774C12.2825 13.9016 12.3859 13.8591 12.4936 13.8591C12.6014 13.8591 12.7048 13.9016 12.7813 13.9774L14.2975 15.4936L16.9316 11.6056C16.9925 11.5166 17.0862 11.4554 17.1922 11.4352C17.2981 11.4151 17.4077 11.4377 17.4971 11.4981L18.1713 11.9554C18.2603 12.0163 18.3217 12.1099 18.342 12.2159C18.3622 12.3218 18.3397 12.4315 18.2794 12.5209Z" fill="white"/>
</svg>
