<svg width="30" height="30" viewBox="0 0 30 30" fill="none" xmlns="http://www.w3.org/2000/svg">
<g clip-path="url(#clip0_201_2)">
<path d="M15 30C23.2843 30 30 23.2843 30 15C30 6.71573 23.2843 0 15 0C6.71573 0 0 6.71573 0 15C0 23.2843 6.71573 30 15 30Z" fill="#50b7ed"/>
<g clip-path="url(#clip1_201_2)">
<path d="M8.667 23.143H20.333C20.775 23.143 21.199 22.963 21.512 22.641C21.8259 22.3157 22.001 21.881 22 21.429V11.999C22.0002 11.7733 21.9127 11.5563 21.756 11.394C21.6795 11.3147 21.5878 11.2517 21.4865 11.2086C21.3851 11.1654 21.2761 11.1431 21.166 11.143H18.666V10.477C18.666 8.23996 17.081 6.23696 14.916 6.02096C14.3367 5.96188 13.7515 6.02804 13.2 6.21496C12.6444 6.40356 12.1352 6.70794 11.706 7.10796C11.2724 7.51273 10.9274 8.00306 10.693 8.54796C10.4562 9.09647 10.3337 9.68751 10.333 10.285V11.143H7.833C7.7231 11.1431 7.61435 11.1654 7.51318 11.2083C7.41201 11.2512 7.32048 11.314 7.244 11.393C7.0868 11.5558 6.99927 11.7736 7 12V21.428C7 21.883 7.176 22.319 7.488 22.641C7.801 22.962 8.225 23.143 8.667 23.143ZM12 10.285C12 8.86796 13.122 7.71396 14.5 7.71396C15.878 7.71396 17 8.86796 17 10.285V11.143H12V10.285Z" fill="white"/>
<path d="M7 13H11C11.2652 13 11.5196 13.1054 11.7071 13.2929C11.8946 13.4804 12 13.7348 12 14C12 14.2652 11.8946 14.5196 11.7071 14.7071C11.5196 14.8946 11.2652 15 11 15H7V13ZM7 16H14C14.2652 16 14.5196 16.1054 14.7071 16.2929C14.8946 16.4804 15 16.7348 15 17C15 17.2652 14.8946 17.5196 14.7071 17.7071C14.5196 17.8946 14.2652 18 14 18H7V16ZM7 19H11C11.2652 19 11.5196 19.1054 11.7071 19.2929C11.8946 19.4804 12 19.7348 12 20C12 20.2652 11.8946 20.5196 11.7071 20.7071C11.5196 20.8946 11.2652 21 11 21H7V19Z" fill="#50b7ed"/>
</g>
</g>
<defs>
<clipPath id="clip0_201_2">
<rect width="30" height="30" fill="white"/>
</clipPath>
<clipPath id="clip1_201_2">
<rect width="15" height="18" fill="white" transform="translate(7 6)"/>
</clipPath>
</defs>
</svg>
