<svg width="30" height="30" viewBox="0 0 30 30" fill="none" xmlns="http://www.w3.org/2000/svg">
<circle cx="15" cy="15" r="15" fill="#50b7ed"/>
<path d="M22.9995 14.0009L22.4437 8.13052C22.4155 7.82629 22.1733 7.58592 21.8691 7.55587L15.999 7H15.9915C15.9314 7 15.8844 7.01878 15.8488 7.05446L7.05492 15.8488C7.03751 15.8662 7.0237 15.8868 7.01427 15.9096C7.00485 15.9323 7 15.9566 7 15.9812C7 16.0058 7.00485 16.0302 7.01427 16.0529C7.0237 16.0756 7.03751 16.0962 7.05492 16.1136L13.8864 22.9455C13.9221 22.9812 13.9691 23 14.0198 23C14.0705 23 14.1174 22.9812 14.1531 22.9455L22.9469 14.1512C22.9845 14.1117 23.0033 14.0573 22.9995 14.0009ZM18.5115 12.6526C17.8487 12.6526 17.3097 12.1136 17.3097 11.4507C17.3097 10.7878 17.8487 10.2488 18.5115 10.2488C19.1744 10.2488 19.7133 10.7878 19.7133 11.4507C19.7133 12.1136 19.1744 12.6526 18.5115 12.6526Z" fill="white"/>
</svg>
