<svg id="Layer_1" data-name="Layer 1" xmlns="http://www.w3.org/2000/svg" viewBox="0 0 225 225"><defs><style>.cls-1{fill:#50b7ed;}.cls-2{fill:#fff;}</style></defs><circle class="cls-1" cx="112.5" cy="112.5" r="102.09"/><path class="cls-2" d="M112.39,177A64.47,64.47,0,1,1,112.76,48c35.37,0,64.22,29,64.22,64.51A64.51,64.51,0,0,1,112.39,177Zm0-9.18A55.24,55.24,0,1,0,57.24,112,55.21,55.21,0,0,0,112.44,167.79Z"/><path class="cls-2" d="M99.14,83.94l-7.27,5.49h57.37v9.26H91.8l7.34,5.53-5.52,7.36L70.28,94.09l23.33-17.5Z"/><path class="cls-2" d="M132.84,126l-7-5.25,5.53-7.36,23.34,17.49-23.34,17.5c-1.86-2.48-3.64-4.85-5.53-7.35l7.27-5.48H80.37v-9.25h52.37Z"/></svg>