<svg xmlns="http://www.w3.org/2000/svg" width="24.382" height="24.382" viewBox="211 393.309 24.382 24.382"><g data-name="Group 9228"><path d="M235.382 405.5c0 6.733-5.458 12.191-12.191 12.191-6.733 0-12.191-5.458-12.191-12.191 0-6.733 5.458-12.191 12.191-12.191 6.733 0 12.191 5.458 12.191 12.191" fill="#50b7ed" fill-rule="evenodd" data-name="Path 26055"/><g data-name="Group 9227"><g data-name="Group 9225" transform="translate(217.183 398.516)" clip-path="url(&quot;#a&quot;)"><path d="M10.967 6.6a3.05 3.05 0 1 0-.001 6.098 3.05 3.05 0 0 0 0-6.098m.882 3.46h-.468v.469a.41.41 0 1 1-.822 0v-.469h-.468a.41.41 0 1 1-.003-.821H10.558V8.77a.41.41 0 1 1 .822 0v.469h.468a.411.411 0 0 1 0 .821" fill="#fff" fill-rule="evenodd" data-name="Path 26052"/><path d="M4.37 6.1a3.05 3.05 0 1 0-3.05-3.05v.002a3.054 3.054 0 0 0 3.05 3.047" fill="#fff" fill-rule="evenodd" data-name="Path 26053"/><path d="M7.979 7.189c-.31-.452-.7-.842-1.152-1.151a3.864 3.864 0 0 1-4.917 0A4.368 4.368 0 0 0 0 9.649v1.543A1.512 1.512 0 0 0 1.51 12.7h5.718c.353 0 .696-.124.967-.351a3.864 3.864 0 0 1-.216-5.157V7.19Z" fill="#fff" fill-rule="evenodd" data-name="Path 26054"/></g></g></g><defs><clipPath id="a"><path d="M0 0h14.016v12.7H0V0z" data-name="Rectangle 1230"/></clipPath></defs></svg>