<svg xmlns="http://www.w3.org/2000/svg" width="24.382" height="24.382" viewBox="211 650.809 24.382 24.382"><g data-name="Group 9260"><path d="M235.382 663c0 6.733-5.458 12.191-12.191 12.191-6.733 0-12.191-5.458-12.191-12.191 0-6.733 5.458-12.191 12.19-12.191 6.734 0 12.192 5.458 12.192 12.191" fill="#50b7ed" fill-rule="evenodd" data-name="Path 26038"/><g data-name="Group 9259"><g data-name="Group 9258" transform="translate(215.947 656.79)" clip-path="url(&quot;#a&quot;)"><path d="M14.479 3.617H.009c.03-.059.053-.106.079-.15C.72 2.356 1.356 1.247 1.986.135 2.045.032 2.109 0 2.226 0c3.34.003 6.68.004 10.02 0 .128 0 .2.036.265.15.623 1.103 1.254 2.202 1.882 3.302.028.05.053.102.086.165" fill="#fff" fill-rule="evenodd" data-name="Path 26077"/><path d="M14.487 4.16c.017.711-.453 1.397-1.142 1.664-.115.045-.15.099-.15.22.005 2.024.004 4.048.004 6.072v.304H1.29v-.676c0-1.9-.002-3.8.002-5.7 0-.12-.034-.175-.149-.22C.452 5.557-.018 4.87.001 4.16h14.486Zm-8.79 1.785v5.705h6.723V5.944c-.857-.181-1.365-.705-1.547-1.58-.315 1.022-.821 1.533-1.663 1.577-1.079.056-1.706-.529-1.973-1.574-.179.878-.692 1.393-1.54 1.578m-3.626-.002v5.708h3.095V5.944c-.856-.181-1.365-.705-1.551-1.556-.183.858-.695 1.373-1.544 1.555" fill="#fff" fill-rule="evenodd" data-name="Path 26078"/><path d="M10.62 8.255v1.45H7.487v-1.45c.189 0 .381.008.572-.004a.269.269 0 0 0 .176-.099c.099-.134.177-.283.27-.422.091-.14.168-.263.102-.453-.064-.18.046-.358.21-.447a.429.429 0 0 1 .484.045c.14.113.206.31.13.481-.045.103-.02.168.032.249.111.171.223.344.323.522.055.096.117.137.23.131.198-.01.397-.003.604-.003M9.458 8.25c-.126-.204-.23-.386-.351-.556-.021-.029-.15-.03-.17-.003-.122.173-.227.358-.351.559h.872Z" fill="#fff" fill-rule="evenodd" data-name="Path 26079"/><path d="M4.655 8.202a.345.345 0 1 1-.687-.018.347.347 0 0 1 .344-.337c.192 0 .345.159.343.355" fill="#fff" fill-rule="evenodd" data-name="Path 26080"/></g></g></g><defs><clipPath id="a"><path d="M0 0h14.487v12.42H0V0z" data-name="Rectangle 1242"/></clipPath></defs></svg>