<svg xmlns="http://www.w3.org/2000/svg" width="24.382" height="24.382" viewBox="43 393.809 24.382 24.382"><g data-name="Group 9240"><path d="M67.382 406c0 6.733-5.458 12.191-12.191 12.191C48.458 418.191 43 412.733 43 406c0-6.733 5.458-12.191 12.191-12.191 6.733 0 12.191 5.458 12.191 12.191" fill="#50b7ed" fill-rule="evenodd" data-name="Path 26064"/><g data-name="Group 9237"><g data-name="Group 9238"><path d="M49.95 402.51c-.014.151.057.29.204.344.124.047.26.066.392.088.069.011.141.004.213.004 2.925 0 5.85-.001 8.774.001.563 0 .97.265 1.22.767.089.181.119.377.119.579v2.704l-.001 3.357a1.303 1.303 0 0 1-1.018 1.286 1.36 1.36 0 0 1-.303.034c-2.906.002-5.811.002-8.717.001-.723 0-1.29-.549-1.321-1.27-.002-.037-.002-.075-.002-.113v-7.722c0-.078.002-.156.013-.233a.678.678 0 0 1 .353-.512c.206-.12.433-.175.665-.214.896-.148 1.792-.298 2.689-.448l2.597-.432c.78-.13 1.558-.267 2.339-.386.326-.05.653-.01.96.124.291.128.423.368.431.677.008.293.003.586.005.88 0 .05-.03.05-.064.052l-.66.03-2.455.11c-.776.036-1.552.07-2.328.104-.78.036-1.56.073-2.341.108l-1.69.076-.075.004m10.046 4.804a.869.869 0 0 0-.865-.876.875.875 0 0 0-.883.869.879.879 0 0 0 .875.877c.48 0 .871-.388.873-.87" fill="#fff" fill-rule="evenodd" data-name="Path 26063"/></g></g></g></svg>