<svg id="Layer_1" data-name="Layer 1" xmlns="http://www.w3.org/2000/svg" viewBox="0 0 20.24 12.88"><defs><style>.cls-1{fill:#f37575;}.cls-2{fill:#b3c8e8;}.cls-3{fill:#ffcb57;}.cls-4{fill:#ffe099;}.cls-5{fill:#ffe7b8;}.cls-6{fill:#222459;}.cls-7{fill:#2a417f;}.cls-8{fill:#951a33;}.cls-9{fill:#ea315a;}.cls-10{fill:#f15f5c;}.cls-11{fill:#510d3f;}.cls-12{fill:#56566e;}.cls-13{fill:#5587c6;}.cls-14{fill:#3868a9;opacity:0.36;}.cls-14,.cls-61,.cls-86,.cls-88{isolation:isolate;}.cls-15{fill:#a92340;}.cls-16{fill:#e02f56;}.cls-17{fill:#f27596;}.cls-18{fill:#3c1147;}.cls-19{fill:#501f5e;}.cls-20{fill:#fff;}.cls-21{fill:#41124a;}.cls-22{fill:#6d2a82;}.cls-23{fill:#6f1b57;}.cls-24{fill:#fbb03a;}.cls-25{fill:#f79420;}.cls-26{fill:#71c48e;}.cls-27{fill:#acdbca;}.cls-28{fill:#f07a22;}.cls-29{fill:#e65a78;}.cls-30{fill:#fff0cd;}.cls-31{fill:#da9fc7;}.cls-32{fill:#f2d6e7;}.cls-33{fill:#012b32;}.cls-34{fill:#ed0973;}.cls-35{fill:#ed2288;}.cls-36{fill:#e772ac;}.cls-37{fill:#b9d532;}.cls-38{fill:#753256;}.cls-39{fill:#9b91c6;}.cls-40{fill:#1c1b22;}.cls-41{fill:#393644;}.cls-42{fill:#c7c4e2;}.cls-43{fill:#2c1128;}.cls-44{fill:#252c64;}.cls-45{fill:#2b337c;}.cls-46{fill:#2f499f;}.cls-47{fill:#033135;}.cls-48{fill:#36365c;}.cls-49{fill:#47497b;}.cls-50{fill:#7c96cc;}.cls-51{fill:#007f77;}.cls-52{fill:#7d53a2;}.cls-53{fill:#673d98;}.cls-54{fill:#263773;}.cls-55{fill:#5a78bb;}.cls-56{fill:#9d77b5;}.cls-57{fill:#e1d1e6;}.cls-58{fill:#381a3f;}.cls-59{fill:#653870;}.cls-60{fill:#1d2356;}.cls-61{opacity:0.2;}.cls-62{fill:#19aaad;}.cls-63{fill:#231244;}.cls-64{fill:#3dc2d1;}.cls-65{fill:#5c2c55;}.cls-66{fill:#2b3278;}.cls-67{fill:#ab4b26;}.cls-68{fill:#fcc083;}.cls-69{fill:#fed09f;}.cls-70{fill:#f78d1e;}.cls-71{fill:#ed2024;}.cls-72{fill:#fdd9b4;}.cls-73{fill:#9d1f60;}.cls-74{fill:#fef29f;}.cls-75{fill:#d8334a;}.cls-76{fill:#ef4d8b;}.cls-77{fill:#6c3d27;}.cls-78{fill:#cd8a6f;}.cls-79{fill:#9dc8c8;}.cls-80{fill:#96d1ad;}.cls-81{fill:#649190;}.cls-82{fill:#006937;}.cls-83,.cls-88{fill:#d2edf0;}.cls-84{fill:#ee3a78;}.cls-85{fill:#fdb913;}.cls-86{fill:#fbd6e5;opacity:0.46;}.cls-87{fill:#f37264;}.cls-88{opacity:0.38;}.cls-89{fill:#131840;}.cls-90{fill:#34395c;}.cls-91{fill:#734f7b;}</style></defs><g id="Group_9284" data-name="Group 9284"><g id="Group_9281" data-name="Group 9281"><g id="Group_9280" data-name="Group 9280"><path id="Path_26288" data-name="Path 26288" class="cls-1" d="M3,4s-.23,1-.23,1l-.13.31S2.81,5.41,3,5a3.67,3.67,0,0,0,.17-1Z"/><g id="Group_9254" data-name="Group 9254"><g id="Group_9253" data-name="Group 9253"><path id="Path_26289" data-name="Path 26289" class="cls-2" d="M4.69,1,4.84.31H4.51c.06.22.11.46.15.69v.46h0Z"/><path id="Path_26290" data-name="Path 26290" class="cls-3" d="M4.67,1c0-.16-.06-.33-.1-.49h.21L4.68,1Z"/><path id="Path_26291" data-name="Path 26291" class="cls-4" d="M4.57.46h.11V1Z"/><path id="Path_26292" data-name="Path 26292" class="cls-2" d="M4.52,1.49h.32l-.15-.05h0Z"/></g><path id="Path_26293" data-name="Path 26293" class="cls-5" d="M4.62.49s0,0,0,0h0a0,0,0,0,1,0,0h0S4.62.48,4.62.49Z"/><path id="Path_26294" data-name="Path 26294" class="cls-5" d="M4.65.54h0Z"/><path id="Path_26295" data-name="Path 26295" class="cls-5" d="M4.67.62a0,0,0,0,1,0,0s0,0,0,0,0,0,0,0h0a0,0,0,0,1,0,0Z"/><path id="Path_26296" data-name="Path 26296" class="cls-5" d="M4.69.71a0,0,0,0,1,0,0h0s0,0,0,0h0Z"/><path id="Path_26297" data-name="Path 26297" class="cls-5" d="M4.72.61s0,0,0,0a0,0,0,0,1,0,0h0A0,0,0,0,1,4.72.61Z"/><path id="Path_26298" data-name="Path 26298" class="cls-5" d="M4.73.52s0,0,0,0h0s0,0,0,0h0A0,0,0,0,1,4.73.52Z"/></g><path id="Path_26299" data-name="Path 26299" class="cls-6" d="M3,11.66l0,.31-.74,0a2.29,2.29,0,0,1,.52-.21l0-.15Z"/><path id="Path_26300" data-name="Path 26300" class="cls-6" d="M3.88,11.66v.28h.63l-.42-.19,0-.09Z"/><path id="Path_26301" data-name="Path 26301" class="cls-6" d="M4.17,7V11.7l-.32,0-.31-4-.16-.35V6.69Z"/><path id="Path_26302" data-name="Path 26302" class="cls-7" d="M2.92,7l-.07.27L2.71,11.7h.35L3.72,7Z"/><path id="Path_26303" data-name="Path 26303" class="cls-1" d="M4.94,1.13s-.21-.22-.3-.2,0,.09,0,.11a.24.24,0,0,0,0,.14.11.11,0,0,1,0,.11s0,.08.06.11.22.06.22.14v.14L5,1.63C5,1.34,4.94,1.13,4.94,1.13Z"/><path id="Path_26304" data-name="Path 26304" class="cls-8" d="M5,1.63l-.22.05c0,.1,0,.24,0,.4h.29C5,1.92,5,1.76,5,1.63Z"/><path id="Path_26305" data-name="Path 26305" class="cls-8" d="M4.68,2.08A3.78,3.78,0,0,1,4.62,3,6.94,6.94,0,0,1,4,3.84l.3.72A7.51,7.51,0,0,0,5,3.15a10.17,10.17,0,0,0,.14-1.07A.51.51,0,0,0,4.68,2.08Z"/><path id="Path_26306" data-name="Path 26306" class="cls-8" d="M1.59,6.13l1.14-2L2.8,5.22,1.42,6.51Z"/><path id="Path_26307" data-name="Path 26307" class="cls-9" d="M3.34,4a1.88,1.88,0,0,0-.6.2,16.71,16.71,0,0,0,.09,2.49s-.17.54-.05.66a1.55,1.55,0,0,0,1.41,0,.21.21,0,0,0,.11-.18c0-.44,0-2.14,0-2.58A1.42,1.42,0,0,0,4,3.79,3.57,3.57,0,0,0,3.34,4Z"/><path id="Path_26308" data-name="Path 26308" class="cls-10" d="M2.93,4s-.05.24,0,.24S3,4.1,3,4.1s0,.22,0,.21,0-.21,0-.21,0,.18,0,.2,0-.21,0-.21,0,.14,0,.14.06-.14.07-.21S3.18,3.94,3.11,4H3C3,4,2.93,4,2.93,4Z"/><g id="Group_9262" data-name="Group 9262"><path id="Path_26309" data-name="Path 26309" class="cls-10" d="M2,11.81a.31.31,0,0,1-.23-.28v-.08c0-.12,0-.38,0-.69H1.37a4.91,4.91,0,0,1,.18.79.85.85,0,0,1,0,.17v.19c.08.05.25,0,.41.05a.89.89,0,0,0,.4-.06Z"/><path id="Path_26310" data-name="Path 26310" class="cls-11" d="M1.92,11.77s0,0,0,.05a1.55,1.55,0,0,1-.4-.09v.18c.08.05.25,0,.41.05a.89.89,0,0,0,.4-.06L2,11.81A.25.25,0,0,1,1.92,11.77Z"/><path id="Path_26311" data-name="Path 26311" class="cls-12" d="M2.4,6.82l-.7.23a5.43,5.43,0,0,1-.18,2,6.07,6.07,0,0,0-.42,1.85l.45.12.37-1.47c0-.09.06-.2.1-.34A9.19,9.19,0,0,0,2.4,6.82Z"/><path id="Path_26312" data-name="Path 26312" class="cls-1" d="M1.78,11.07l-.29,0c0,.53,0,.6-.05.67s-.16.19-.16.27.1.28.15.28.21-.31.25-.43S1.74,11.35,1.78,11.07Z"/><path id="Path_26313" data-name="Path 26313" class="cls-10" d="M1.49,11.22a1.24,1.24,0,0,0,.27,0l0-.12-.29,0Z"/><path id="Path_26314" data-name="Path 26314" class="cls-13" d="M1.3,9.9a1.61,1.61,0,0,0,.07-.51c0-.07-.15-2.26-.09-2.48a3.87,3.87,0,0,1,.35-.8h.7l.07.72L2,7.13c0,.16-.23,2.54-.28,2.69a11.46,11.46,0,0,0,.14,1.31l-.47.07A5.09,5.09,0,0,1,1.3,9.9Z"/><path id="Path_26315" data-name="Path 26315" class="cls-14" d="M2.33,6.1h-.7l-.07.13a.8.8,0,0,0,.78,0Z"/><path id="Path_26316" data-name="Path 26316" class="cls-15" d="M2.76,5.11C2.64,4.86,2.37,4,2.26,4A.23.23,0,0,0,2.1,4s-.07.62.1.68.25.4.39.64A.68.68,0,0,1,2.76,5.11Z"/><path id="Path_26317" data-name="Path 26317" class="cls-16" d="M2.1,4a1.46,1.46,0,0,0-.69,0s-.08.64-.08.64A7.31,7.31,0,0,1,1.55,6.1a.82.82,0,0,0,.81,0,7.05,7.05,0,0,1,0-1.1c0-.19.13-.36,0-.56A4,4,0,0,1,2.1,4Z"/><path id="Path_26318" data-name="Path 26318" class="cls-17" d="M2.36,6.12a7.13,7.13,0,0,1-.07-1,2,2,0,0,0,.09-.47c0-.15-.1-.18-.28-.62.16.33.24.44.24.45a.42.42,0,0,1,.06.31c0,.33-.11,0-.06,1.09A2.45,2.45,0,0,0,2.36,6.12Z"/><g id="Group_9256" data-name="Group 9256"><path id="Path_26319" data-name="Path 26319" class="cls-18" d="M1.55,3.2s-.22,0-.22.19,0,.09.07.2,0,.21.15.21.12,0,.2.06.22,0,.23-.2-.25-.15-.25-.27S1.55,3.2,1.55,3.2Z"/><path id="Path_26320" data-name="Path 26320" class="cls-1" d="M2,3.57a.48.48,0,0,0-.06.24A.45.45,0,0,0,2,4a.08.08,0,0,1,0,.11h0a.11.11,0,0,1-.11,0A.3.3,0,0,1,1.61,4a3.84,3.84,0,0,1,.16-.59Z"/><path id="Path_26321" data-name="Path 26321" class="cls-10" d="M2,3.57,1.77,3.4s0,.07-.05.15a.49.49,0,0,0,.2.18A.44.44,0,0,1,2,3.57Z"/><path id="Path_26322" data-name="Path 26322" class="cls-1" d="M2.14,2.84A.34.34,0,0,1,2.23,3c0,.09,0,.2,0,.28s-.11.47-.3.4-.23-.37-.24-.44a.64.64,0,0,1,.21-.35A.49.49,0,0,1,2.14,2.84Z"/><g id="Group_9255" data-name="Group 9255"><path id="Path_26323" data-name="Path 26323" class="cls-19" d="M2.07,3.24a.92.92,0,0,0,0,.16s0,0-.05,0a.06.06,0,0,0,.06,0A.78.78,0,0,0,2.07,3.24Z"/><path id="Path_26324" data-name="Path 26324" class="cls-19" d="M2,3.15l-.08,0a.28.28,0,0,0-.11,0l.1,0,.06,0Z"/><path id="Path_26325" data-name="Path 26325" class="cls-19" d="M2.08,3.16l.07,0s.09,0,.09,0l-.08,0-.05,0Z"/><path id="Path_26326" data-name="Path 26326" class="cls-20" d="M1.94,3.48a.29.29,0,0,0,.16,0A.11.11,0,0,1,1.94,3.48Z"/><path id="Path_26327" data-name="Path 26327" class="cls-19" d="M2,3.22a0,0,0,0,1,0,0s0,0,0,0,0,0,0,0S2,3.21,2,3.22Z"/><path id="Path_26328" data-name="Path 26328" class="cls-21" d="M1.84,3.22c.1-.08.13,0,.16,0s-.05,0-.08,0Z"/><path id="Path_26329" data-name="Path 26329" class="cls-19" d="M2.16,3.23s0,0,0,0,0,0,0,0,0,0,0,0S2.16,3.21,2.16,3.23Z"/><path id="Path_26330" data-name="Path 26330" class="cls-21" d="M2.08,3.23c.08-.08.11,0,.13,0s0,0-.06,0Z"/><path id="Path_26331" data-name="Path 26331" class="cls-10" d="M1.94,3.37a.06.06,0,0,1-.06.07.07.07,0,0,1,0-.14,0,0,0,0,1,0,0A0,0,0,0,1,1.94,3.37Z"/></g><path id="Path_26332" data-name="Path 26332" class="cls-19" d="M2,2.71H1.7a.29.29,0,0,0-.23.21c0,.11,0,.22,0,.33a.23.23,0,0,0,.12.28c.07,0,.12,0,.15,0s-.14-.25,0-.38,0,.05,0,.05.09-.11.09-.16a.29.29,0,0,1,.29-.18h0A.2.2,0,0,0,2,2.71Z"/><path id="Path_26333" data-name="Path 26333" class="cls-19" d="M2.09,2.77a.24.24,0,0,1,.18.07.36.36,0,0,1,0,.37s.16.13,0,.13S2,2.79,2.09,2.77Z"/><path id="Path_26334" data-name="Path 26334" class="cls-22" d="M2.12,2.81a.2.2,0,0,1,.2.18.19.19,0,0,1,0,.08.07.07,0,0,1,0,.05v0l0,0a.17.17,0,0,0-.09-.23Z"/><path id="Path_26335" data-name="Path 26335" class="cls-1" d="M1.75,3.16s0-.08-.07-.06,0,.22,0,.2S1.75,3.16,1.75,3.16Z"/><path id="Path_26336" data-name="Path 26336" class="cls-10" d="M1.74,3.2s0-.09,0-.07,0,.11,0,.12S1.74,3.2,1.74,3.2Z"/></g><g id="Group_9260" data-name="Group 9260"><g id="Group_9257" data-name="Group 9257"><path id="Path_26337" data-name="Path 26337" class="cls-12" d="M1.6,6.51h0v0l0-.06h0s0,0,0,0l0,0Z"/></g><g id="Group_9258" data-name="Group 9258"><path id="Path_26338" data-name="Path 26338" class="cls-12" d="M1.44,10.92h0v-.12s0,0,0,0h0v.13Zm0-.24s0,0,0,0v-.12s0,0,0,0l0,0v.12l0,0Zm0-.25s0,0,0,0v-.12s0,0,0,0l0,0a.49.49,0,0,0,0,.12l0,0Zm0-.25h0a.72.72,0,0,1,0-.13h0s0,.07,0,.12l0,0Zm0-.25h0s0-.08,0-.12h0a0,0,0,0,1,0,0l0,.12Zm.05-.24h0s0,0,0,0h0l0-.12s0,0,0,0v0a.4.4,0,0,0,0,.12Zm0-.24,0,0V9.31s0,0,0,0h0v.12s0,0,0,0Zm0-.25,0,0V9.06s0,0,0,0a0,0,0,0,1,0,0h0v.12s0,0,0,0Zm0-.25,0,0V8.81s0,0,0,0a0,0,0,0,1,0,0h0v.12s0,0,0,0Zm0-.25h0V8.56h0v.12s0,0,0,0Zm0-.25h0V8.31s0,0,0,0a0,0,0,0,1,0,0h0v.13Zm0-.25h0V8.06h0v.13Zm0-.25h0V7.81h0v.13Zm0-.24,0,0V7.57s0,0,0,0h0v.15Zm0-.25,0,0V7.32s0,0,0,0a0,0,0,0,1,0,0v.12s0,0,0,0Zm0-.25,0,0V7.07s0,0,0,0h0a0,0,0,0,1,0,0v.12s0,0,0,0Zm0-.25h0s0,0,0,0h0s0-.07,0-.12h0s0,0,0,0h0s0,.09,0,.12Zm.1-.23h0a0,0,0,0,1,0,0,.54.54,0,0,1,.05-.11h0s0,0,0,0l-.06.11s0,0,0,0Z"/></g><g id="Group_9259" data-name="Group 9259"><path id="Path_26339" data-name="Path 26339" class="cls-12" d="M1.45,11.1V11h0v.06l0,0Z"/></g></g><path id="Path_26340" data-name="Path 26340" class="cls-23" d="M1.38,11.79a.57.57,0,0,0-.1.19c0,.08.1.28.15.28s.12-.13.18-.26C1.47,12,1.41,11.86,1.38,11.79Z"/><path id="Path_26341" data-name="Path 26341" class="cls-24" d="M1.17,5.06l0,1h.65l0-1Z"/><path id="Path_26342" data-name="Path 26342" class="cls-25" d="M2.81,5.06l-.07,1-.88,0,0-1Z"/><g id="Group_9261" data-name="Group 9261"><path id="Path_26343" data-name="Path 26343" class="cls-26" d="M1.21,5.06l.05,1h0l-.05-1Z"/><path id="Path_26344" data-name="Path 26344" class="cls-26" d="M1.28,5.06l.05,1h0l-.05-1Z"/><path id="Path_26345" data-name="Path 26345" class="cls-26" d="M1.36,5.06l0,1h0l-.06-1Z"/><path id="Path_26346" data-name="Path 26346" class="cls-26" d="M1.5,5.06l0,1h0l0-1Z"/><path id="Path_26347" data-name="Path 26347" class="cls-26" d="M1.59,5.06l0,1h0l0-1Z"/><path id="Path_26348" data-name="Path 26348" class="cls-26" d="M1.7,5.06l-.06,1h0l.06-1Z"/><path id="Path_26349" data-name="Path 26349" class="cls-26" d="M1.81,5.06l-.05,1h0l.05-1Z"/><path id="Path_26350" data-name="Path 26350" class="cls-27" d="M2,5.06l0,1H2l0-1Z"/><path id="Path_26351" data-name="Path 26351" class="cls-27" d="M2,5.06v1h0v-1Z"/><path id="Path_26352" data-name="Path 26352" class="cls-27" d="M2.16,5.06v1h0v-1Z"/><path id="Path_26353" data-name="Path 26353" class="cls-27" d="M2.27,5.06l0,1h0l0-1Z"/><path id="Path_26354" data-name="Path 26354" class="cls-27" d="M2.4,5.06l0,1h0l0-1Z"/><path id="Path_26355" data-name="Path 26355" class="cls-27" d="M2.48,5.06l0,1h0l0-1Z"/><path id="Path_26356" data-name="Path 26356" class="cls-27" d="M2.63,5.06l-.06,1h0l.06-1Z"/><path id="Path_26357" data-name="Path 26357" class="cls-27" d="M2.74,5.06l-.09,1h0l.08-1Z"/></g><path id="Path_26358" data-name="Path 26358" class="cls-28" d="M1.17,5.06H2.81v0H1.17Z"/><path id="Path_26359" data-name="Path 26359" class="cls-1" d="M2,5.73a.74.74,0,0,0-.21,0A4.2,4.2,0,0,1,1,5.27s0,0,0-.07a.79.79,0,0,0-.26-.08.5.5,0,0,0-.11.35c.09.16.83.31,1,.36a.18.18,0,0,1,.09,0S2,6,2,6s0,0,0-.07l0-.09S2.08,5.75,2,5.73Z"/><path id="Path_26360" data-name="Path 26360" class="cls-29" d="M1.41,4a.21.21,0,0,0-.19,0A7.11,7.11,0,0,0,.7,5.12.92.92,0,0,0,1,5.23a1.48,1.48,0,0,0,.12-.29c.1-.27.14-.27.21-.32S1.41,4,1.41,4Z"/><path id="Path_26361" data-name="Path 26361" class="cls-30" d="M1.07,4.73l0,.33H3V4.73Z"/><path id="Path_26362" data-name="Path 26362" class="cls-31" d="M2.2,4.06C2,4,1.81,4,1.81,4.25a2.63,2.63,0,0,0,.07.49S2.45,4.16,2.2,4.06Zm-.3.61s-.1-.43,0-.5.14,0,.21,0S1.9,4.67,1.9,4.67Z"/><path id="Path_26363" data-name="Path 26363" class="cls-32" d="M2,4.2a1.56,1.56,0,0,0-.18.51s.77-.13.82-.3S2.13,4.09,2,4.2Zm.42.21c0,.12-.54.23-.54.23s0-.38.18-.4.38,0,.36.17Z"/><path id="Path_26364" data-name="Path 26364" class="cls-31" d="M1.87,4.7h0a.84.84,0,0,1,.52.18c.24.2.26.27.26.27s.2-.25.34-.27S2.23,4.51,1.87,4.7Z"/><path id="Path_26365" data-name="Path 26365" class="cls-32" d="M1.94,4.7a.08.08,0,0,1-.06.09.08.08,0,1,1,0-.15h0A.06.06,0,0,1,1.94,4.7Z"/></g><g id="Group_9269" data-name="Group 9269"><path id="Path_26366" data-name="Path 26366" class="cls-33" d="M7.91,4,8,3.92a1.62,1.62,0,0,1-.23-.8c0-.19-.3-.48-.38-.44s-.28,0-.3.65L7,4.07l.3.26s.18-.32.41-.18.31.14.31.14A1.48,1.48,0,0,1,7.91,4Z"/><path id="Path_26367" data-name="Path 26367" class="cls-10" d="M9,6s.12.09.14.08S9,5.85,9,5.85s.07,0,.09,0,0-.07,0,0-.09,0-.12,0-.68-.33-.77-.57-.09-.76-.15-1C8,4.2,7.91,4,7.83,4s-.08,0-.11.15,0,.2,0,.3a3.4,3.4,0,0,0,.3,1,4.06,4.06,0,0,0,.8.41c.05,0,.22.33.26.34S9,6.05,9,6.05s.11.15.15.15,0-.09-.08-.13l0,0,0,0s.1.1.11.07S9,6,9,6Z"/><g id="Group_9266" data-name="Group 9266"><g id="Group_9264" data-name="Group 9264"><path id="Path_26368" data-name="Path 26368" class="cls-34" d="M8.24,6.23l-.09-.64h.5l0,.64Z"/><path id="Path_26369" data-name="Path 26369" class="cls-35" d="M9.22,5.59l-.07.64h-.6l0-.64Z"/><path id="Path_26370" data-name="Path 26370" class="cls-36" d="M8.09,5.34V5.6H9.28V5.36Z"/><g id="Group_9263" data-name="Group 9263"><path id="Path_26371" data-name="Path 26371" class="cls-37" d="M8.11,5.34V5.6h0V5.34Z"/><path id="Path_26372" data-name="Path 26372" class="cls-37" d="M8.21,5.34V5.6h0V5.34Z"/><path id="Path_26373" data-name="Path 26373" class="cls-37" d="M8.32,5.34V5.6h0V5.34Z"/><path id="Path_26374" data-name="Path 26374" class="cls-37" d="M8.42,5.34V5.6h0V5.34Z"/><path id="Path_26375" data-name="Path 26375" class="cls-37" d="M8.52,5.34V5.6h0V5.34Z"/><path id="Path_26376" data-name="Path 26376" class="cls-37" d="M8.62,5.35V5.6h0V5.35Z"/><path id="Path_26377" data-name="Path 26377" class="cls-37" d="M8.73,5.35V5.6h0V5.35Z"/><path id="Path_26378" data-name="Path 26378" class="cls-37" d="M8.83,5.35V5.6h0V5.35Z"/><path id="Path_26379" data-name="Path 26379" class="cls-37" d="M8.93,5.35V5.6H9V5.35Z"/><path id="Path_26380" data-name="Path 26380" class="cls-37" d="M9,5.35V5.6h0V5.35Z"/><path id="Path_26381" data-name="Path 26381" class="cls-37" d="M9.14,5.36V5.6h0V5.36Z"/><path id="Path_26382" data-name="Path 26382" class="cls-37" d="M9.24,5.36V5.6h0V5.36Z"/></g><path id="Path_26383" data-name="Path 26383" class="cls-38" d="M8.15,5.6H9.22v0l-1.05,0Z"/></g><g id="Group_9265" data-name="Group 9265"><path id="Path_26384" data-name="Path 26384" class="cls-39" d="M8.46,5.19c-.17,0-.14.17-.05.21s.37,0,.37,0A.47.47,0,0,0,8.46,5.19Zm0,.17s0-.07.05-.1.22.08.22.08A.82.82,0,0,1,8.45,5.36Z"/><path id="Path_26385" data-name="Path 26385" class="cls-39" d="M8.77,5.73c.09.15.2,0,.21,0s-.2-.33-.2-.33A.51.51,0,0,0,8.77,5.73Zm.16-.06s0,.07-.11,0,0-.25,0-.25A1.23,1.23,0,0,1,8.93,5.67Z"/><path id="Path_26386" data-name="Path 26386" class="cls-39" d="M9,5.62c.17,0,.18-.11.12-.18s-.37-.08-.37-.08S8.87,5.58,9,5.62Zm.07-.15s0,.08-.08.07-.19-.14-.19-.14a.9.9,0,0,1,.27.07Z"/><path id="Path_26387" data-name="Path 26387" class="cls-39" d="M8.68,5c-.12-.12-.21,0-.18.1s.28.25.28.25A.45.45,0,0,0,8.68,5Zm-.13.1c0-.05,0-.08.11,0s.09.22.09.22a1.11,1.11,0,0,1-.2-.19Z"/><path id="Path_26388" data-name="Path 26388" class="cls-39" d="M8.45,5.5c-.1.14,0,.21.12.18s.21-.32.21-.32A.45.45,0,0,0,8.45,5.5Zm.12.12c-.05,0-.09,0-.05-.1s.21-.12.21-.12a.89.89,0,0,1-.16.22Z"/><path id="Path_26389" data-name="Path 26389" class="cls-39" d="M9.13,5.31c.13-.11,0-.21-.07-.2s-.28.26-.28.26A.46.46,0,0,0,9.13,5.31Zm-.08-.15s.07,0,0,.11-.22.07-.22.07a.91.91,0,0,1,.21-.18Z"/><path id="Path_26390" data-name="Path 26390" class="cls-39" d="M8.94,5.17c0-.12-.11-.11-.15-.06s0,.26,0,.26S8.93,5.28,8.94,5.17Zm-.13,0s.06,0,.07,0-.08.15-.08.15a.59.59,0,0,1,0-.19Z"/></g></g><path id="Path_26391" data-name="Path 26391" class="cls-10" d="M8.74,11.62c-.25-.69-.7-4.85-.82-5.87h-.5L7.14,6.92l.72,2.14a7.13,7.13,0,0,0,.55,2.08c0,.08,0,.08,0,.08a.6.6,0,0,0,.07.3s.07.21.1.21l.31,0C8.88,11.7,8.79,11.75,8.74,11.62Z"/><path id="Path_26392" data-name="Path 26392" class="cls-1" d="M7.35,11.54a16.31,16.31,0,0,1,0-2.21c0-.07.49-2.77.49-2.78l0-.83H7.34a2.31,2.31,0,0,0-.51,1A14.74,14.74,0,0,0,6.91,9a2.32,2.32,0,0,1-.06.38,15,15,0,0,0,.24,1.68h0c0,.17,0,.11,0,.19a.28.28,0,0,0,0,.13c.07,0,.09.23.12.3s.1.05.19.05S7.39,11.68,7.35,11.54Z"/><path id="Path_26393" data-name="Path 26393" class="cls-40" d="M7.12,11.42v.31h0l0-.35Z"/><path id="Path_26394" data-name="Path 26394" class="cls-41" d="M7.1,11.18c0,.17.11.44.2.48s.09,0,.09,0c.05.1.11.14,0,.14s-.23,0-.25,0,0-.32-.11-.32l0,.31h0s0-.43,0-.47A.11.11,0,0,1,7.1,11.18Z"/><path id="Path_26395" data-name="Path 26395" class="cls-41" d="M8.78,11.68c.06.06.17.05.16.1l-.39,0s-.06-.2-.09-.24,0,.24,0,.24h0c0-.13,0-.26-.05-.39a.12.12,0,0,1,0-.15C8.5,11.43,8.51,11.73,8.78,11.68Z"/><path id="Path_26396" data-name="Path 26396" class="cls-42" d="M8,5.87a7.23,7.23,0,0,1,0-1c0-.18.11-.34,0-.52A1.86,1.86,0,0,1,7.83,4s-.15-.12-.67,0c0,0-.06.61-.06.61a6.36,6.36,0,0,1,.12,1.2,8.22,8.22,0,0,0-.45,1.06c-.08.32-.15,1.76-.15,1.76l1.84,0Z"/><path id="Path_26397" data-name="Path 26397" class="cls-1" d="M7.63,3.5a1.74,1.74,0,0,0,0,.45s.12.5,0,.51-.34-.4-.35-.47a5,5,0,0,1,0-.55Z"/><path id="Path_26398" data-name="Path 26398" class="cls-10" d="M7.62,3.64c-.11.1-.21.06-.3-.07a.89.89,0,0,1,0-.13l.3.06A.71.71,0,0,1,7.62,3.64Z"/><path id="Path_26399" data-name="Path 26399" class="cls-1" d="M7.59,2.71s.15,0,.16.15a1.22,1.22,0,0,1,0,.38c0,.14-.11.34-.25.37s-.28-.21-.28-.33,0-.35,0-.48A.35.35,0,0,1,7.59,2.71Z"/><g id="Group_9267" data-name="Group 9267"><path id="Path_26400" data-name="Path 26400" class="cls-20" d="M7.43,3.38a.65.65,0,0,0,.19,0l0,0a.4.4,0,0,1-.15,0Z"/><path id="Path_26401" data-name="Path 26401" class="cls-43" d="M7.45,3.42a.4.4,0,0,0,.15,0Q7.51,3.54,7.45,3.42Z"/></g><path id="Path_26402" data-name="Path 26402" class="cls-10" d="M7.75,2.86a1.3,1.3,0,0,1,0,.34l-.1-.05a.49.49,0,0,1-.27-.39.25.25,0,0,1,0-.11.24.24,0,0,1,.3.16A.07.07,0,0,1,7.75,2.86Z"/><g id="Group_9268" data-name="Group 9268"><path id="Path_26403" data-name="Path 26403" class="cls-44" d="M7.59,3.3V3.18a.49.49,0,0,1,0,.12.09.09,0,0,1-.07,0Z"/></g><path id="Path_26404" data-name="Path 26404" class="cls-44" d="M7.52,3.17a.12.12,0,0,0,0,0s-.08.06-.11.06.06,0,.08,0,0,0,0,0Z"/><path id="Path_26405" data-name="Path 26405" class="cls-44" d="M7.43,3.15s0,0,0,0a0,0,0,0,0,0,0l0,0S7.43,3.14,7.43,3.15Z"/><path id="Path_26406" data-name="Path 26406" class="cls-44" d="M7.62,3.19s0,0,.06,0,.07.06.1.06-.06,0-.08,0,0,0,0,0Z"/><path id="Path_26407" data-name="Path 26407" class="cls-44" d="M7.71,3.17l0,0s0,0,0,0,0,0,0,0S7.71,3.16,7.71,3.17Z"/><path id="Path_26408" data-name="Path 26408" class="cls-44" d="M7.53,3.06s0,0-.08-.05a.17.17,0,0,0-.1.05s.07,0,.1,0S7.51,3.08,7.53,3.06Z"/><path id="Path_26409" data-name="Path 26409" class="cls-10" d="M7.47,3.27s0,0-.08,0-.06,0,0-.06,0,0,.08,0S7.48,3.25,7.47,3.27Z"/><path id="Path_26410" data-name="Path 26410" class="cls-10" d="M7.76,3.26a0,0,0,0,1,0,0,.07.07,0,0,1-.07,0s0,0,.06,0A.06.06,0,0,1,7.76,3.26Z"/><path id="Path_26411" data-name="Path 26411" class="cls-1" d="M8.42,6s.14.1.17.08-.24-.22-.24-.22.07,0,.11,0,0-.07,0,0-.11,0-.15,0-.82-.33-.93-.58-.11-.77-.18-1c0,0-.22-.49-.32-.08a1.81,1.81,0,0,0,0,.31,3.19,3.19,0,0,0,.37,1,4.23,4.23,0,0,0,1,.41c.07,0,.26.34.31.36s-.1-.18-.1-.18.17.17.22.17-.08-.1-.13-.15l0,0,0,0s.14.11.15.08S8.42,6,8.42,6Z"/><path id="Path_26412" data-name="Path 26412" class="cls-45" d="M7.47,2.6c-.1,0-.27,0-.35.16A1.37,1.37,0,0,0,7,3.39a.85.85,0,0,1-.47.72l.2.11.13-.11-.09.19.34,0,0-.24.07.28.15,0s-.06-.82-.07-1.13h0c0-.25,0-.37.12-.44s.34.07.34.07A.25.25,0,0,0,7.47,2.6Z"/><path id="Path_26413" data-name="Path 26413" class="cls-46" d="M7.61,2.63c.13,0,.17.24.27.35a.32.32,0,0,1,0,.37.07.07,0,0,1-.1,0l0,0s0,0,.07-.06,0-.15-.17-.2-.28-.36-.28-.36a.16.16,0,0,1,.18-.13Z"/><path id="Path_26414" data-name="Path 26414" class="cls-47" d="M7.78,3.38s.12-.09.07-.17a.36.36,0,0,0-.18-.12.93.93,0,0,1-.26-.33.74.74,0,0,0,.24.36h0a.38.38,0,0,1,.15.09.16.16,0,0,1,0,.15S7.8,3.39,7.78,3.38Z"/><path id="Path_26415" data-name="Path 26415" class="cls-1" d="M7.3,3.22s0-.16-.09-.12,0,.21.06.21S7.3,3.22,7.3,3.22Z"/><path id="Path_26416" data-name="Path 26416" class="cls-10" d="M7.24,3.13s.09.15,0,.13S7.19,3.1,7.24,3.13Z"/></g><g id="Group_9275" data-name="Group 9275"><g id="Group_9274" data-name="Group 9274"><path id="Path_26417" data-name="Path 26417" class="cls-48" d="M5.84,6.79l.07,2.9L5.84,10,6,12l0,.31.74.05s-.54-.1-.54-.39.3-2.34.3-2.4.13-2.74.13-2.74Z"/><path id="Path_26418" data-name="Path 26418" class="cls-48" d="M5.54,11.89H5.36s-.23.41-.05.39a2.08,2.08,0,0,1,.48.05H6.1C6,12.25,5.61,12.17,5.54,11.89Z"/><path id="Path_26419" data-name="Path 26419" class="cls-49" d="M5.25,6.92V9.74l-.09.43c0,.07.14,1.74.14,1.74l.24,0A13.4,13.4,0,0,1,5.67,10L6,8.2l.27-1.54Z"/><path id="Path_26420" data-name="Path 26420" class="cls-50" d="M6.31,6.66c0,.28-.09.56-.13.83l-.07.42A3.1,3.1,0,0,1,6,8.33l-.17.83L5.69,10h0l-.06.48c0,.16,0,.32,0,.47s0,.32,0,.48,0,.16,0,.24v.12a.49.49,0,0,1,0-.12,1.93,1.93,0,0,1,0-.24,3.87,3.87,0,0,1,0-.48c0-.32.06-.64.1-.95h0l.17-.83L6,8.32a3.28,3.28,0,0,0,.08-.41l.08-.42C6.2,7.21,6.26,6.94,6.31,6.66Z"/><path id="Path_26421" data-name="Path 26421" class="cls-51" d="M5.15,7.05l.07.23a3.15,3.15,0,0,0,1.32.06l0-.25Z"/><path id="Path_26422" data-name="Path 26422" class="cls-52" d="M4.94,4h0a7.38,7.38,0,0,1,.12,1.22,14.59,14.59,0,0,0,.09,1.88,3,3,0,0,0,1.5,0c0-.13,0-3,0-3L6.51,4A1.57,1.57,0,0,0,4.94,4Z"/><path id="Path_26423" data-name="Path 26423" class="cls-53" d="M6.66,6.17V5.66l-1,.26-.57-.3c0,.17,0,.36,0,.55h0a2.93,2.93,0,0,0,.8,0A3.48,3.48,0,0,1,6.66,6.17Z"/><path id="Path_26424" data-name="Path 26424" class="cls-53" d="M7.14,5.15a1.65,1.65,0,0,0-.5-1.09,11.49,11.49,0,0,1,0,1.45V6A1.09,1.09,0,0,0,6.9,6C7,6,7.2,5.82,7.14,5.15Z"/><g id="Group_9271" data-name="Group 9271"><path id="Path_26425" data-name="Path 26425" class="cls-26" d="M7.18,4.63,7,5.86l-1.44,0L5.39,4.59Z"/><g id="Group_9270" data-name="Group 9270"><circle id="Ellipse_1961" data-name="Ellipse 1961" class="cls-30" cx="5.57" cy="4.73" r="0.08"/><path id="Path_26426" data-name="Path 26426" class="cls-30" d="M5.87,4.82A.09.09,0,0,0,6,4.73a.09.09,0,0,0-.09-.08.08.08,0,0,0-.08.08A.08.08,0,0,0,5.87,4.82Z"/><path id="Path_26427" data-name="Path 26427" class="cls-30" d="M6.18,4.82a.09.09,0,0,0,.08-.09.09.09,0,0,0-.08-.08.09.09,0,0,0-.09.08.09.09,0,0,0,.09.09Z"/><path id="Path_26428" data-name="Path 26428" class="cls-30" d="M6.48,4.82a.08.08,0,0,0,.08-.09.08.08,0,0,0-.08-.08.09.09,0,0,0-.09.08.09.09,0,0,0,.09.09Z"/><path id="Path_26429" data-name="Path 26429" class="cls-30" d="M6.78,4.82a.09.09,0,0,0,.09-.09.09.09,0,0,0-.09-.08.09.09,0,0,0-.08.08.09.09,0,0,0,.08.09Z"/><path id="Path_26430" data-name="Path 26430" class="cls-30" d="M7.09,4.65A.09.09,0,0,0,7,4.73a.09.09,0,0,0,.09.09.08.08,0,0,0,.07,0V4.71A.09.09,0,0,0,7.09,4.65Z"/><path id="Path_26431" data-name="Path 26431" class="cls-30" d="M5.44,4.9V5A.07.07,0,0,0,5.44,4.9Z"/><path id="Path_26432" data-name="Path 26432" class="cls-30" d="M5.59,5A.09.09,0,0,0,5.68,5,.08.08,0,0,0,5.76,5a.08.08,0,0,0-.08-.09h0A.09.09,0,0,0,5.59,5Z"/><path id="Path_26433" data-name="Path 26433" class="cls-30" d="M5.9,5A.09.09,0,0,0,6,5,.09.09,0,0,0,6.07,5,.09.09,0,0,0,6,4.87.09.09,0,0,0,5.9,5Z"/><path id="Path_26434" data-name="Path 26434" class="cls-30" d="M6.2,5A.09.09,0,0,0,6.29,5,.09.09,0,0,0,6.37,5a.09.09,0,0,0-.08-.08A.09.09,0,0,0,6.2,5Z"/><path id="Path_26435" data-name="Path 26435" class="cls-30" d="M6.51,5A.08.08,0,0,0,6.59,5,.09.09,0,0,0,6.68,5a.09.09,0,0,0-.09-.08A.08.08,0,0,0,6.51,5Z"/><path id="Path_26436" data-name="Path 26436" class="cls-30" d="M6.81,5A.09.09,0,0,0,6.89,5,.09.09,0,0,0,7,5a.09.09,0,0,0-.09-.08A.09.09,0,0,0,6.81,5Z"/><path id="Path_26437" data-name="Path 26437" class="cls-30" d="M5.66,5.2a.09.09,0,0,0-.08-.08.09.09,0,0,0-.09.08.09.09,0,0,0,.09.09.09.09,0,0,0,.08-.09Z"/><path id="Path_26438" data-name="Path 26438" class="cls-30" d="M5.8,5.2a.08.08,0,0,0,.08.09A.09.09,0,0,0,6,5.2a.09.09,0,0,0-.09-.08.08.08,0,0,0-.08.08Z"/><path id="Path_26439" data-name="Path 26439" class="cls-30" d="M6.1,5.2a.09.09,0,0,0,.08.09.09.09,0,0,0,.09-.09.09.09,0,0,0-.09-.08A.09.09,0,0,0,6.1,5.2Z"/><path id="Path_26440" data-name="Path 26440" class="cls-30" d="M6.4,5.2a.09.09,0,0,0,.09.09.08.08,0,0,0,.08-.09.08.08,0,0,0-.08-.08A.09.09,0,0,0,6.4,5.2Z"/><path id="Path_26441" data-name="Path 26441" class="cls-30" d="M6.71,5.2a.09.09,0,0,0,.08.09.09.09,0,0,0,.09-.09.09.09,0,0,0-.09-.08A.09.09,0,0,0,6.71,5.2Z"/><path id="Path_26442" data-name="Path 26442" class="cls-30" d="M7,5.2a.1.1,0,0,0,.08.09l0-.17a.09.09,0,0,0-.1.07Z"/><path id="Path_26443" data-name="Path 26443" class="cls-30" d="M5.71,5.37a.08.08,0,0,0-.09.08.09.09,0,0,0,.09.09.08.08,0,0,0,.08-.09.07.07,0,0,0-.08-.08Z"/><path id="Path_26444" data-name="Path 26444" class="cls-30" d="M6,5.37a.08.08,0,0,0-.08.08A.09.09,0,0,0,6,5.54a.09.09,0,0,0,.09-.09A.08.08,0,0,0,6,5.37Z"/><path id="Path_26445" data-name="Path 26445" class="cls-30" d="M6.32,5.37a.08.08,0,0,0-.09.08.09.09,0,0,0,.09.09.09.09,0,0,0,.08-.09.08.08,0,0,0-.08-.08Z"/><path id="Path_26446" data-name="Path 26446" class="cls-30" d="M6.62,5.37a.07.07,0,0,0-.08.08.08.08,0,0,0,.08.09.09.09,0,0,0,.09-.09.08.08,0,0,0-.09-.08Z"/><path id="Path_26447" data-name="Path 26447" class="cls-30" d="M6.92,5.37a.08.08,0,0,0-.08.08.09.09,0,0,0,.08.09A.09.09,0,0,0,7,5.45a.08.08,0,0,0-.09-.08Z"/><path id="Path_26448" data-name="Path 26448" class="cls-30" d="M5.64,5.71a.09.09,0,0,0-.08-.09h0l0,.17A.08.08,0,0,0,5.64,5.71Z"/><path id="Path_26449" data-name="Path 26449" class="cls-30" d="M5.86,5.62a.08.08,0,0,0-.08.09.08.08,0,0,0,.08.08A.09.09,0,0,0,6,5.71a.09.09,0,0,0-.09-.09Z"/><path id="Path_26450" data-name="Path 26450" class="cls-30" d="M6.16,5.62a.09.09,0,0,0-.08.09.09.09,0,0,0,.08.08.09.09,0,0,0,.09-.08A.09.09,0,0,0,6.16,5.62Z"/><path id="Path_26451" data-name="Path 26451" class="cls-30" d="M6.47,5.62a.09.09,0,0,0-.09.09.09.09,0,0,0,.09.08.08.08,0,0,0,.08-.08.08.08,0,0,0-.08-.09Z"/><path id="Path_26452" data-name="Path 26452" class="cls-30" d="M6.77,5.62a.09.09,0,0,0-.08.09.09.09,0,0,0,.08.08.09.09,0,0,0,.09-.08.09.09,0,0,0-.09-.09Z"/><path id="Path_26453" data-name="Path 26453" class="cls-30" d="M7,5.71a.09.09,0,0,0,0,.06l0-.14A.08.08,0,0,0,7,5.71Z"/></g><path id="Path_26454" data-name="Path 26454" class="cls-54" d="M7.18,4.63,7,5.86l-1.44,0H7Z"/><path id="Path_26455" data-name="Path 26455" class="cls-55" d="M7.23,4.63l-1.9,0V4.34l2,0Z"/><path id="Path_26456" data-name="Path 26456" class="cls-37" d="M6.8,5.86H6.56l0-1.51h.06Z"/><path id="Path_26457" data-name="Path 26457" class="cls-37" d="M6.58,4.37a.49.49,0,0,0,.27,0c.17,0,.29-.18.28-.27s0-.05,0-.1a.12.12,0,0,0-.14-.11C6.84,3.92,6.58,4.37,6.58,4.37Zm0,0S6.8,4,6.9,4,7,4,7,4.07,6.93,4.34,6.62,4.33Z"/><path id="Path_26458" data-name="Path 26458" class="cls-37" d="M6.26,4.22a1.59,1.59,0,0,0,.29.15,2,2,0,0,0-.13-.49c0-.06-.06.06-.15.11a.14.14,0,0,0-.07.17A.17.17,0,0,0,6.26,4.22ZM6.41,4c.09,0,.11.33.11.33L6.3,4.09C6.24,4,6.33,4,6.41,4Z"/><path id="Path_26459" data-name="Path 26459" class="cls-37" d="M6.49,4.37s0,.06,0,.07a.06.06,0,0,0,.06-.05.06.06,0,0,0,0-.07h0A.06.06,0,0,0,6.49,4.37Z"/><path id="Path_26460" data-name="Path 26460" class="cls-37" d="M6.53,4.34l-1,1.25,0,.24H5.7l.85-1.46Z"/></g><path id="Path_26461" data-name="Path 26461" class="cls-1" d="M5.07,6a.69.69,0,0,0,.36.11,1.57,1.57,0,0,0,.4-.1,1.13,1.13,0,0,1,.32,0c.09,0,.37-.19.37-.19s.12-.19.08-.2-.19.24-.24.24.15-.21.1-.23-.13.22-.24.24-.16,0-.12,0,.15-.11.11-.12A8.71,8.71,0,0,0,5.07,6Z"/><path id="Path_26462" data-name="Path 26462" class="cls-51" d="M5.47,5.83l.26-.06L5.79,6l-.25.12Z"/><path id="Path_26463" data-name="Path 26463" class="cls-56" d="M5,5.59c-.21-.13,0-.57,0-.57S5.1,4,4.94,4a1.53,1.53,0,0,0-.5.89c-.11.55.06,1.17.5,1.24a2.39,2.39,0,0,0,.65,0c.06-.08,0-.26-.07-.4a.1.1,0,0,0-.11-.1A1,1,0,0,1,5,5.59Z"/><path id="Path_26464" data-name="Path 26464" class="cls-57" d="M5.06,5.58c-.16-.09,0-.38,0-.54h0a2.9,2.9,0,0,0-.1-1s0,0-.06,0c.14,0,.11.8.1,1s-.19.5,0,.59a.87.87,0,0,0,.36,0A1.37,1.37,0,0,1,5.06,5.58Z"/><g id="Group_9272" data-name="Group 9272"><path id="Path_26465" data-name="Path 26465" class="cls-58" d="M5.8,3.47s-.15-.42-.15-.42-.1-.3,0-.35.24-.22.38-.22a.54.54,0,0,1,.25.06l.1.17s0,0-.07.14S5.8,3.47,5.8,3.47Z"/><path id="Path_26466" data-name="Path 26466" class="cls-1" d="M6.16,3.46s0,.42,0,.51-.43.21-.42-.12a6.41,6.41,0,0,1,0-.71Z"/><path id="Path_26467" data-name="Path 26467" class="cls-10" d="M6.16,3.46h0L6,3.35l-.27-.21h0v.06h0v0h0v.08h0v0h0a.62.62,0,0,0,.41.41v0A2.64,2.64,0,0,1,6.16,3.46Z"/><path id="Path_26468" data-name="Path 26468" class="cls-1" d="M5.74,2.83a.65.65,0,0,0,0,.56c.12.19.28.29.41.2a1.07,1.07,0,0,0,.1-.81A.37.37,0,0,0,5.74,2.83Z"/><path id="Path_26469" data-name="Path 26469" class="cls-59" d="M5.72,3.39s0-.19-.09-.24-.1-.08-.11-.14-.14-.13-.09-.24.12-.15.22-.33.2-.29.42-.21.24.21.24.21a.17.17,0,0,1,.16.11.21.21,0,0,1,0,.24s0-.16,0-.15,0,.18,0,.18a1.29,1.29,0,0,1-.16-.17c-.08-.1-.06,0,0,.15S6,2.8,6,2.7s-.2,0-.25.12S5.83,3.16,5.72,3.39Z"/><path id="Path_26470" data-name="Path 26470" class="cls-1" d="M5.77,3S5.7,2.91,5.66,3s0,.24.07.24S5.77,3,5.77,3Z"/><path id="Path_26471" data-name="Path 26471" class="cls-10" d="M5.73,3.05s0-.08,0,0,0,.15,0,.15S5.73,3.05,5.73,3.05Z"/><path id="Path_26472" data-name="Path 26472" class="cls-44" d="M6.17,3l0,.11a.57.57,0,0,1,0,.13l-.07,0h.06A1.77,1.77,0,0,0,6.17,3Z"/><path id="Path_26473" data-name="Path 26473" class="cls-46" d="M6.06,3.05A0,0,0,0,1,6,3.1s0,0,0,0A.05.05,0,0,1,6,3S6.06,3,6.06,3.05Z"/><path id="Path_26474" data-name="Path 26474" class="cls-46" d="M6.3,3s0,0,0,0,0,0,0,0a0,0,0,0,1,0,0S6.29,3,6.3,3Z"/><path id="Path_26475" data-name="Path 26475" class="cls-44" d="M5.94,3A.16.16,0,0,1,6,2.91c.06,0,0,0,0,0S5.93,3,5.94,3Z"/><path id="Path_26476" data-name="Path 26476" class="cls-44" d="M6.22,2.89s.07,0,.08.06-.07,0-.08,0a0,0,0,0,1,0,0Z"/></g><g id="Group_9273" data-name="Group 9273"><path id="Path_26477" data-name="Path 26477" class="cls-20" d="M6,3.35a.58.58,0,0,0,.19,0s0,0,0,0a.4.4,0,0,1-.15,0Z"/><path id="Path_26478" data-name="Path 26478" class="cls-43" d="M6.05,3.38a.4.4,0,0,0,.15,0Q6.11,3.5,6.05,3.38Z"/></g></g><path id="Path_26479" data-name="Path 26479" class="cls-10" d="M7.11,5.83S7,5.54,7,5.57s0,.22,0,.22-.1-.25-.14-.23.06.27.06.27-.11-.19-.16-.2.07.26.07.26-.09-.16-.11-.15a.64.64,0,0,0,0,.27c0,.07.11,0,.18,0s0,0,.11,0A.15.15,0,0,0,7.11,5.83Z"/></g><g id="Group_9279" data-name="Group 9279"><path id="Path_26480" data-name="Path 26480" class="cls-1" d="M3.78,3.17l0,.7a.54.54,0,0,1-.1.2.26.26,0,0,1-.31,0c-.08-.08.12-.91.12-.91A1.06,1.06,0,0,1,3.78,3.17Z"/><path id="Path_26481" data-name="Path 26481" class="cls-10" d="M3.47,3.15l0,.07,0,.24c0,.1.16.28.28.29l0-.58A1.08,1.08,0,0,0,3.47,3.15Z"/><g id="Group_9278" data-name="Group 9278"><path id="Path_26482" data-name="Path 26482" class="cls-60" d="M3.52,2.31c-.07.08-.12.2,0,.27-.1-.06,0-.2,0-.3Z"/><path id="Path_26483" data-name="Path 26483" class="cls-1" d="M3.91,2.68a.2.2,0,0,1,.15.21c0,.18-.11.69-.25.73s-.31-.15-.34-.25a.82.82,0,0,1,0-.27S3.47,2.43,3.91,2.68Z"/><path id="Path_26484" data-name="Path 26484" class="cls-60" d="M3.29,3.34s0,0,.07,0,.1-.11,0-.21a.54.54,0,0,1-.15-.4c0-.17.23-.15.23-.15a.22.22,0,0,1,.32-.16s0-.05.21,0,.12.11.22.1.11-.09.07-.12.16.09.17.22-.23.12-.23.12.2,0,0,.12S4,2.88,4,2.79s-.14-.13-.19-.11,0,.13-.11.14S3.51,3,3.51,3s0,0-.06.12,0,.22-.07.23S3.29,3.34,3.29,3.34Z"/><path id="Path_26485" data-name="Path 26485" class="cls-1" d="M3.48,2.86s-.15,0-.07.17S3.58,3,3.57,3A.13.13,0,0,0,3.48,2.86Z"/><path id="Path_26486" data-name="Path 26486" class="cls-60" d="M3.89,3.09a2,2,0,0,1,0,.24H3.79l.07,0A.63.63,0,0,0,3.89,3.09Z"/><g id="Group_9276" data-name="Group 9276"><path id="Path_26487" data-name="Path 26487" class="cls-60" d="M3.86,3.06s0,0,0,0A.12.12,0,0,0,3.8,3a.29.29,0,0,0-.16,0h0s0,0,0,0h0a.37.37,0,0,1,.18,0,.11.11,0,0,1,.06.07,0,0,0,0,1,0,0Z"/></g><path id="Path_26488" data-name="Path 26488" class="cls-20" d="M3.69,3.37a.57.57,0,0,0,.22,0,.14.14,0,0,1-.07.08.13.13,0,0,1-.15-.11Z"/><path id="Path_26489" data-name="Path 26489" class="cls-10" d="M3.42,3s0,.1.05.1.07-.07,0-.11S3.42,2.92,3.42,3Z"/><path id="Path_26490" data-name="Path 26490" class="cls-60" d="M3.82,3.1a0,0,0,0,1,0,0s0,0,0,0a0,0,0,0,1,0,0S3.83,3.08,3.82,3.1Z"/><path id="Path_26491" data-name="Path 26491" class="cls-60" d="M4,3.12s0,0,0,0,0,0,0,0,0,0,0,0A.08.08,0,0,1,4,3.12Z"/><g id="Group_9277" data-name="Group 9277"><path id="Path_26492" data-name="Path 26492" class="cls-60" d="M4,3.06v0H4L4,3h0V3H4Z"/></g></g></g><path id="Path_26493" data-name="Path 26493" class="cls-1" d="M1.52,6.43s.25.1.25.05-.16-.11-.16-.11.23.06.23,0-.21-.1-.21-.1.19,0,.22,0-.22-.09-.22-.09.16,0,.16,0-.14-.09-.21-.11-.09,0-.1.12,0,0,0,.11A.11.11,0,0,0,1.52,6.43Z"/></g><ellipse id="Ellipse_1960" data-name="Ellipse 1960" class="cls-61" cx="9.69" cy="12.17" rx="9.22" ry="0.4"/><path id="Path_26063" data-name="Path 26063" class="cls-10" d="M15.3,4.76a.71.71,0,0,1-1-.45,1.14,1.14,0,0,1-.11-.4,2.93,2.93,0,0,0-.05-.29c0-.1,0-.17,0-.2s-.06,0,0,.09,0,.16,0,.15S14,3.29,14,3.28s0-.09,0-.07a1.27,1.27,0,0,0,0,.2c0,.12,0,.16,0,.17s0-.07-.07-.24-.15-.3,0,.08a.37.37,0,0,1,0,.18s-.05-.07-.08-.13-.07-.19-.09-.13.14.3.11.34-.1-.15-.13-.22h0s0,0,0,0a.59.59,0,0,0,.09.24,2,2,0,0,0,.26.34c.07.26.31,1,.55,1.18a1.16,1.16,0,0,0,.69,0A2.57,2.57,0,0,0,15.3,4.76Z"/><path id="Path_26064" data-name="Path 26064" class="cls-62" d="M15.78,4.22l0,.82a3.89,3.89,0,0,1-.66.29A4.36,4.36,0,0,1,15,4.71,9.06,9.06,0,0,1,15.78,4.22Z"/><path id="Path_26065" data-name="Path 26065" class="cls-1" d="M17.62,5.66a1.89,1.89,0,0,0,1.28-.29c.12-.13.25-.16.34-.25s.06,0,.07,0a.06.06,0,0,1,0,0c0,.06-.16.12-.16.17l0,0h0c.06,0,.47-.21.49-.17s-.07,0-.07,0c-.26.1-.34.14-.31.18h0c.05,0,.4-.15.45-.12s-.08.06-.08.06-.34.08-.35.13.38-.08.38,0-.13,0-.2,0-.16,0-.16.06.07.05.13.06a.33.33,0,0,1,.15,0s-.2,0-.25,0-.08,0-.37,0c-.11,0-.08,0-.14,0a2.74,2.74,0,0,1-1.18.41,1.27,1.27,0,0,1-.79-.3c.08-.14.18-.29.26-.44A.75.75,0,0,0,17.62,5.66Z"/><path id="Path_26066" data-name="Path 26066" class="cls-62" d="M16.55,5.35l.26-.91a7.58,7.58,0,0,0,.73,1.07,1.73,1.73,0,0,1-.35.54A1.16,1.16,0,0,1,16.55,5.35Z"/><path id="Path_26067" data-name="Path 26067" class="cls-6" d="M17.47,8.6l-1.06.82L16.32,7S15,6.71,15,6.75s-.26,2.49-.23,2.58,1,2.32,1.11,2.57l.18-.13-.69-2.48c0-.15.16-1.63.16-1.63s.42,2.55.77,2.55c.05,0,1-1.08,1.21-1.32Z"/><path id="Path_26068" data-name="Path 26068" class="cls-63" d="M17.64,8.47c.07,0,.1.06.1.12s0,.12,0,.24a.56.56,0,0,1-.05.42c0,.07-.13,0-.13-.15,0,0,0-.15,0-.2s0,0,0,0V8.6S17.57,8.47,17.64,8.47Z"/><path id="Path_26069" data-name="Path 26069" class="cls-63" d="M15.78,12.14a.23.23,0,0,0,.08-.22v0l.18-.13.11.13s0,.08-.07.23-.11.18-.11.18a1.15,1.15,0,0,1-.31,0S15.73,12.2,15.78,12.14Z"/><path id="Path_26070" data-name="Path 26070" class="cls-64" d="M14.91,7c.08-.37.3-1.72.37-2,0,0,.21-.73.66-.79a1.83,1.83,0,0,1,.4,0s.2-.06.47.22l0,.94-.29,2.13C15.26,7.84,14.91,7,14.91,7Z"/><path id="Path_26071" data-name="Path 26071" class="cls-1" d="M16.83,3.66a3.89,3.89,0,0,1-.38.7A.36.36,0,0,1,16,4.3l.21-.53Z"/><path id="Path_26072" data-name="Path 26072" class="cls-10" d="M16.17,3.93l.06-.16.6-.11-.12.27a1.17,1.17,0,0,1-.26.1A.25.25,0,0,1,16.17,3.93Z"/><path id="Path_26073" data-name="Path 26073" class="cls-65" d="M16.7,2.88a.15.15,0,0,0-.08-.21.14.14,0,0,0-.15,0v0a.15.15,0,0,1,.2,0A.14.14,0,0,1,16.7,2.88Z"/><path id="Path_26074" data-name="Path 26074" class="cls-1" d="M16.84,2.9s-.26,0-.37.13-.34.39-.35.65.24.28.5.15a1.37,1.37,0,0,0,.51-.64C17.11,3.13,17,2.87,16.84,2.9Z"/><path id="Path_26075" data-name="Path 26075" class="cls-65" d="M17,3.05v0a.4.4,0,0,1-.4.09c-.21-.08-.17-.2-.17-.2s-.25,0-.14-.25a.27.27,0,0,1,.31-.14s-.14.1-.06.13.09-.13.19-.11a.26.26,0,0,1,.14.11.61.61,0,0,0,.24.07c.12,0,.26.16.23.24a.58.58,0,0,1-.05.14s.05,0,.05,0c.1.2-.19.38-.39.51l-.18.1-.08,0s.24-.18.26-.28-.07,0,0-.13.11-.06.16-.13S17,3.05,17,3.05Z"/><path id="Path_26076" data-name="Path 26076" class="cls-1" d="M16.55,3.32s0-.17-.06-.15-.16.32-.1.32S16.55,3.32,16.55,3.32Z"/><path id="Path_26077" data-name="Path 26077" class="cls-66" d="M16.36,3.33a.39.39,0,0,0-.1.08l.06,0,0,0a.76.76,0,0,1,.19-.12A.21.21,0,0,0,16.36,3.33Z"/><path id="Path_26078" data-name="Path 26078" class="cls-66" d="M16.61,3.39s0,0-.06,0a.06.06,0,0,1,0-.06s0,0,.06,0A0,0,0,0,1,16.61,3.39Z"/><path id="Path_26079" data-name="Path 26079" class="cls-66" d="M16.4,3.25a0,0,0,0,1-.06,0,.06.06,0,0,1,0-.06s0,0,.06,0A0,0,0,0,1,16.4,3.25Z"/><path id="Path_26080" data-name="Path 26080" class="cls-66" d="M16.65,3.23a.22.22,0,0,1,.1.1c0,.06,0,.08,0,.07s0-.07,0-.09S16.61,3.22,16.65,3.23Z"/><path id="Path_26081" data-name="Path 26081" class="cls-1" d="M16.83,3.47s.13-.05.13,0-.15.23-.19.19S16.83,3.47,16.83,3.47Z"/><path id="Path_26082" data-name="Path 26082" class="cls-10" d="M16.83,3.52s0,0,.07,0-.06.17-.08.15S16.83,3.52,16.83,3.52Z"/><path id="Path_26083" data-name="Path 26083" class="cls-20" d="M16.43,3.6l-.19-.08,0,.06A.42.42,0,0,0,16.43,3.6Z"/><g id="Group_9235" data-name="Group 9235"><g id="Group_9209" data-name="Group 9209"><g id="Group_9207" data-name="Group 9207"><path id="Path_26084" data-name="Path 26084" class="cls-67" d="M11.71,4.56s0,0,0-.06h0s0,0,0,.07S11.71,4.57,11.71,4.56Z"/></g><path id="Path_26085" data-name="Path 26085" class="cls-34" d="M11.73,5.15s-.05,0-.08,0Z"/><path id="Path_26086" data-name="Path 26086" class="cls-68" d="M11.75,4.62h-.1C11.68,4.54,11.72,4.54,11.75,4.62Z"/><path id="Path_26087" data-name="Path 26087" class="cls-69" d="M11.75,4.62a4.13,4.13,0,0,1,0,.5v0h-.08v0a2.09,2.09,0,0,1,0-.5Z"/><path id="Path_26088" data-name="Path 26088" class="cls-34" d="M11.69,5.27v-.1h0v.1Z"/><path id="Path_26089" data-name="Path 26089" class="cls-34" d="M11.65,4.62l.1.12v.08l-.11-.12A.25.25,0,0,1,11.65,4.62Z"/><path id="Path_26090" data-name="Path 26090" class="cls-34" d="M11.75,4.62v.06l-.06-.06Z"/><path id="Path_26091" data-name="Path 26091" class="cls-34" d="M11.64,4.77l.11.12V5l-.11-.11Z"/><path id="Path_26092" data-name="Path 26092" class="cls-34" d="M11.64,4.9l.1.12V5.1L11.64,5Z"/><path id="Path_26093" data-name="Path 26093" class="cls-34" d="M11.65,5.14v0s0,0,0-.07l.09.09h-.08Z"/><path id="Path_26094" data-name="Path 26094" class="cls-70" d="M11.69,4.34a.09.09,0,0,0,0,.07s0,0,0,.06,0,0,0,0h0a.08.08,0,0,0,0-.08A.19.19,0,0,1,11.69,4.34Z"/><path id="Path_26095" data-name="Path 26095" class="cls-71" d="M11.71,4.41a.08.08,0,0,1,0,.08h0a.05.05,0,0,0,0,0s0,0,0,0,0,0,0,0S11.71,4.39,11.71,4.41Z"/><path id="Path_26096" data-name="Path 26096" class="cls-69" d="M11.65,5.14v0a2.09,2.09,0,0,1,0-.5h.06a.41.41,0,0,0,0,.16,1.45,1.45,0,0,0,0,.36Z"/><path id="Path_26097" data-name="Path 26097" class="cls-72" d="M11.71,4.57s0,0,0,0h0S11.69,4.57,11.71,4.57Z"/><g id="Group_9208" data-name="Group 9208"><path id="Path_26098" data-name="Path 26098" class="cls-72" d="M11.73,4.64c0,.44,0,.45,0,.45h0C11.74,5,11.73,4.71,11.73,4.64Z"/></g></g><g id="Group_9212" data-name="Group 9212"><g id="Group_9210" data-name="Group 9210"><path id="Path_26099" data-name="Path 26099" class="cls-67" d="M12,4.69s0-.05,0-.06h0s0,.06,0,.07Z"/></g><path id="Path_26100" data-name="Path 26100" class="cls-34" d="M12,5.27c0,.05-.05.05-.07,0Z"/><path id="Path_26101" data-name="Path 26101" class="cls-68" d="M12,4.74h-.1C12,4.66,12,4.66,12,4.74Z"/><path id="Path_26102" data-name="Path 26102" class="cls-69" d="M12,4.74a2.9,2.9,0,0,1,0,.51v0h-.08a4.34,4.34,0,0,1,0-.51Z"/><path id="Path_26103" data-name="Path 26103" class="cls-34" d="M12,5.4V5.29h0V5.4Z"/><path id="Path_26104" data-name="Path 26104" class="cls-34" d="M11.92,4.75l.11.11V5l-.11-.12Z"/><path id="Path_26105" data-name="Path 26105" class="cls-34" d="M12,4.74V4.8l0-.06Z"/><path id="Path_26106" data-name="Path 26106" class="cls-34" d="M11.91,4.89,12,5a.19.19,0,0,0,0,.08L11.91,5Z"/><path id="Path_26107" data-name="Path 26107" class="cls-34" d="M11.91,5l.11.11v.08l-.1-.1Z"/><path id="Path_26108" data-name="Path 26108" class="cls-34" d="M11.93,5.26h0V5.17l.08.1h-.07Z"/><path id="Path_26109" data-name="Path 26109" class="cls-70" d="M12,4.46l0,.08s0,0,0,0,0,0,0,0,0,0,0,0h0a.11.11,0,0,0,0-.08Z"/><path id="Path_26110" data-name="Path 26110" class="cls-71" d="M12,4.53a.11.11,0,0,1,0,.08h0a0,0,0,0,0,0,0s0,0,0,0l0,0Z"/><path id="Path_26111" data-name="Path 26111" class="cls-69" d="M11.93,5.26h0a4.34,4.34,0,0,1,0-.51H12a.45.45,0,0,0,0,.16,2.3,2.3,0,0,0,0,.37Z"/><path id="Path_26112" data-name="Path 26112" class="cls-72" d="M12,4.7s0,0,0,0h0S12,4.69,12,4.7Z"/><g id="Group_9211" data-name="Group 9211"><path id="Path_26113" data-name="Path 26113" class="cls-72" d="M12,4.76c0,.44,0,.46,0,.45h0A2.16,2.16,0,0,0,12,4.76Z"/></g></g><g id="Group_9215" data-name="Group 9215"><g id="Group_9213" data-name="Group 9213"><path id="Path_26114" data-name="Path 26114" class="cls-67" d="M12.27,4.61s0-.05,0-.06,0,0,0,0,0,.06,0,.07Z"/></g><path id="Path_26115" data-name="Path 26115" class="cls-34" d="M12.3,5.19s-.05,0-.08,0Z"/><path id="Path_26116" data-name="Path 26116" class="cls-68" d="M12.32,4.66h-.1C12.25,4.58,12.29,4.58,12.32,4.66Z"/><path id="Path_26117" data-name="Path 26117" class="cls-69" d="M12.32,4.66a2.9,2.9,0,0,1,0,.51v0h-.08a2.17,2.17,0,0,1,0-.51Z"/><path id="Path_26118" data-name="Path 26118" class="cls-34" d="M12.26,5.32V5.21h0v.11Z"/><path id="Path_26119" data-name="Path 26119" class="cls-34" d="M12.22,4.67l.1.11v.09l-.11-.12A.19.19,0,0,1,12.22,4.67Z"/><path id="Path_26120" data-name="Path 26120" class="cls-34" d="M12.32,4.66v.06l-.06-.06Z"/><path id="Path_26121" data-name="Path 26121" class="cls-34" d="M12.21,4.81l.11.12V5l-.11-.12Z"/><path id="Path_26122" data-name="Path 26122" class="cls-34" d="M12.21,5l.1.11v.08l-.1-.1Z"/><path id="Path_26123" data-name="Path 26123" class="cls-34" d="M12.22,5.18h0V5.09l.09.09h-.08Z"/><path id="Path_26124" data-name="Path 26124" class="cls-70" d="M12.26,4.38a.11.11,0,0,0,0,.08s0,0,0,0,0,0,0,0,0,0,0,0h0a.08.08,0,0,0,0-.08A.19.19,0,0,1,12.26,4.38Z"/><path id="Path_26125" data-name="Path 26125" class="cls-71" d="M12.28,4.45a.08.08,0,0,1,0,.08h0l0,0s0,0,0,0a.05.05,0,0,1,0,0Z"/><path id="Path_26126" data-name="Path 26126" class="cls-69" d="M12.22,5.18h0a2.17,2.17,0,0,1,0-.51h.06a.45.45,0,0,0,0,.16,2.29,2.29,0,0,0,0,.37Z"/><path id="Path_26127" data-name="Path 26127" class="cls-72" d="M12.28,4.62s0,0,0,0h0S12.26,4.61,12.28,4.62Z"/><g id="Group_9214" data-name="Group 9214"><path id="Path_26128" data-name="Path 26128" class="cls-72" d="M12.3,4.68c0,.44,0,.46,0,.45h0C12.31,5.05,12.3,4.75,12.3,4.68Z"/></g></g><g id="Group_9218" data-name="Group 9218"><g id="Group_9216" data-name="Group 9216"><path id="Path_26129" data-name="Path 26129" class="cls-67" d="M10.79,5.49s0,0,0-.06h0s0,.06,0,.07Z"/></g><path id="Path_26130" data-name="Path 26130" class="cls-34" d="M10.81,6.07s-.05,0-.07,0Z"/><path id="Path_26131" data-name="Path 26131" class="cls-68" d="M10.83,5.54h-.1C10.76,5.46,10.8,5.46,10.83,5.54Z"/><path id="Path_26132" data-name="Path 26132" class="cls-69" d="M10.83,5.54a2.9,2.9,0,0,1,0,.51v0h-.08a4.34,4.34,0,0,1,0-.51Z"/><path id="Path_26133" data-name="Path 26133" class="cls-34" d="M10.77,6.2V6.1h0v.1Z"/><path id="Path_26134" data-name="Path 26134" class="cls-34" d="M10.73,5.55l.11.11v.09l-.12-.12Z"/><path id="Path_26135" data-name="Path 26135" class="cls-34" d="M10.83,5.54v.07l-.05-.07Z"/><path id="Path_26136" data-name="Path 26136" class="cls-34" d="M10.72,5.69l.11.13V5.9l-.11-.12Z"/><path id="Path_26137" data-name="Path 26137" class="cls-34" d="M10.72,5.83l.11.11V6l-.1-.1Z"/><path id="Path_26138" data-name="Path 26138" class="cls-34" d="M10.74,6.06h0V6l.08.1h-.07Z"/><path id="Path_26139" data-name="Path 26139" class="cls-70" d="M10.77,5.26a.19.19,0,0,0,0,.08s0,0,0,0,0,0,0,0,0,0,0,0h0a.11.11,0,0,0,0-.08Z"/><path id="Path_26140" data-name="Path 26140" class="cls-71" d="M10.8,5.33a.11.11,0,0,1,0,.08h0a.08.08,0,0,0,0,0s0,0,0,0a.05.05,0,0,1,0,0S10.79,5.32,10.8,5.33Z"/><path id="Path_26141" data-name="Path 26141" class="cls-69" d="M10.74,6.06h0a4.34,4.34,0,0,1,0-.51h.06a.45.45,0,0,0,0,.16,2.3,2.3,0,0,0,0,.37Z"/><path id="Path_26142" data-name="Path 26142" class="cls-72" d="M10.79,5.5s0,0,0,0h0S10.78,5.49,10.79,5.5Z"/><g id="Group_9217" data-name="Group 9217"><path id="Path_26143" data-name="Path 26143" class="cls-72" d="M10.81,5.56c0,.44,0,.46,0,.45h0A3.23,3.23,0,0,0,10.81,5.56Z"/></g></g><g id="Group_9221" data-name="Group 9221"><g id="Group_9219" data-name="Group 9219"><path id="Path_26144" data-name="Path 26144" class="cls-67" d="M12.61,5.49s0,0,0-.06h0s0,.06,0,.07Z"/></g><path id="Path_26145" data-name="Path 26145" class="cls-34" d="M12.63,6.07s-.05,0-.07,0Z"/><path id="Path_26146" data-name="Path 26146" class="cls-68" d="M12.65,5.54h-.1C12.58,5.46,12.62,5.46,12.65,5.54Z"/><path id="Path_26147" data-name="Path 26147" class="cls-69" d="M12.65,5.54a2.9,2.9,0,0,1,0,.51v0h-.08a4.34,4.34,0,0,1,0-.51Z"/><path id="Path_26148" data-name="Path 26148" class="cls-34" d="M12.6,6.2V6.1h0v.1Z"/><path id="Path_26149" data-name="Path 26149" class="cls-34" d="M12.55,5.55l.11.11v.09l-.11-.12Z"/><path id="Path_26150" data-name="Path 26150" class="cls-34" d="M12.65,5.54s0,0,0,.07l-.06-.07Z"/><path id="Path_26151" data-name="Path 26151" class="cls-34" d="M12.54,5.69l.12.13s0,0,0,.08l-.11-.12Z"/><path id="Path_26152" data-name="Path 26152" class="cls-34" d="M12.54,5.83l.11.11V6l-.09-.1A.28.28,0,0,1,12.54,5.83Z"/><path id="Path_26153" data-name="Path 26153" class="cls-34" d="M12.56,6.06h0V6l.08.1h-.07Z"/><path id="Path_26154" data-name="Path 26154" class="cls-70" d="M12.6,5.26a.2.2,0,0,0,0,.08s0,0,0,0,0,0,0,0,0,0,0,0h0a.08.08,0,0,0,0-.08A.14.14,0,0,1,12.6,5.26Z"/><path id="Path_26155" data-name="Path 26155" class="cls-71" d="M12.62,5.33a.08.08,0,0,1,0,.08h0a.08.08,0,0,0,0,0s0,0,0,0,0,0,0,0S12.61,5.32,12.62,5.33Z"/><path id="Path_26156" data-name="Path 26156" class="cls-69" d="M12.56,6.06h0a4.34,4.34,0,0,1,0-.51h.07a.32.32,0,0,0,0,.16,2.3,2.3,0,0,0,0,.37Z"/><path id="Path_26157" data-name="Path 26157" class="cls-72" d="M12.62,5.5l0,0h0S12.6,5.49,12.62,5.5Z"/><g id="Group_9220" data-name="Group 9220"><path id="Path_26158" data-name="Path 26158" class="cls-72" d="M12.64,5.56c0,.44,0,.46,0,.45h0C12.65,5.93,12.64,5.64,12.64,5.56Z"/></g></g><path id="Path_26159" data-name="Path 26159" class="cls-73" d="M10.63,6A2.64,2.64,0,0,1,12,5.94c1.16.19.93,0,.87,1a.63.63,0,0,0-.19,0A4.2,4.2,0,0,1,10.85,7c-.22,0-.19-.06-.22-.09S10.61,6.24,10.63,6Z"/><path id="Path_26160" data-name="Path 26160" class="cls-74" d="M10.64,6A3.06,3.06,0,0,1,12,5.89c.62,0,.88.14.94.27a.23.23,0,0,1,0,.21c0,.12,0,.26-.06.31a.08.08,0,0,1-.12-.06c0-.06,0-.11,0-.13s-.06.06-.07.1-.06.06-.09,0,0-.16,0-.16,0,.06,0,.1-.11,0-.12,0,0,0,0,0-.06,0-.06,0h0s0,.2,0,.22-.07-.18-.07-.18,0,0,0,0,0,.11,0,.13-.06,0-.07,0,0-.12,0-.12-.06,0-.06.05,0,.2,0,.22-.09,0-.09-.07,0-.15,0-.17,0,0,0,.07,0,.12,0,.14-.08,0-.06-.15a0,0,0,0,1-.06,0c0-.06,0-.09,0-.09s0,.19,0,.22,0-.19-.06-.2,0,0-.05,0,0,.17,0,.2,0-.24-.06-.24,0,.11,0,.14-.08,0-.08-.06a.19.19,0,0,1-.1,0,.2.2,0,0,1,0-.08.18.18,0,0,1-.16,0C11,6.4,11,6.37,11,6.37s0,0,0,0h0s0,.21,0,.24a.09.09,0,0,1-.11,0s.05-.22,0-.25-.05,0-.05.07-.06.09-.09.06a.17.17,0,0,1,0-.1h-.06S10.56,6.06,10.64,6Z"/><path id="Path_26161" data-name="Path 26161" class="cls-75" d="M13.16,7.16,13,8.23l-2.55,0L10.28,7l2.63-.15a.24.24,0,0,1,.25.23S13.16,7.15,13.16,7.16Z"/><path id="Path_26162" data-name="Path 26162" class="cls-76" d="M11,5.33s-.07.64.11.75a1.4,1.4,0,0,0,1.14,0c.21-.08.17-.79.13-.87s-.21-.1-.45-.08-.55,0-.73,0A.22.22,0,0,0,11,5.33Z"/><path id="Path_26163" data-name="Path 26163" class="cls-75" d="M11.22,5.17c.18,0,.5,0,.73,0s.39,0,.44.05c-.11,0-.77.15-.88.4s.05.45.14.6a1.2,1.2,0,0,1-.52-.15C11,6,11,5.33,11,5.33A.22.22,0,0,1,11.22,5.17Z"/><path id="Path_26164" data-name="Path 26164" class="cls-68" d="M10.94,5.35s0,.49.09.5.05-.19.08-.22.07,0,.11,0,0-.23,0-.23,0,.32.07.39.12-.08.12-.19,0-.2,0-.2,0,.33.07.33.08.06.08-.16,0-.12.07-.16a.11.11,0,0,0,0-.06s.06,0,.06.05-.05.49.06.49.05-.46.08-.49.06-.05.08,0,0,.26,0,.3.1,0,.1-.1,0-.23,0-.23.05.1.05.16.06,0,.06,0v.2c0,.08.11.07.15,0a.8.8,0,0,0,.06-.52c0-.08-.08-.17-.35-.18a1.8,1.8,0,0,1-.49,0C11.2,5.08,11,5.15,10.94,5.35Z"/><path id="Path_26165" data-name="Path 26165" class="cls-77" d="M12.83,6.8a.64.64,0,0,1,.45.19c.14.14,0,.56-.12.56S13,7.36,13,7.39s0,.19-.1.19-.07-.42-.15-.4,0,.25,0,.4-.16,0-.16,0a.45.45,0,0,1,0,.23.11.11,0,0,1-.2,0,.66.66,0,0,1,0-.28s0,.24-.11.24-.14-.14-.14-.2,0-.27,0-.27,0,.25-.07.32-.25,0-.25-.19,0-.28,0-.26,0,.57-.13.6-.25-.29-.25-.46-.06-.12-.06-.06,0,.46-.11.46-.08-.34-.14-.4,0,.16,0,.22-.12.14-.16,0,0-.26,0-.28a1.2,1.2,0,0,0-.05.38c0,.1,0,.27-.05.27s-.13,0-.13-.19a.07.07,0,0,1-.1,0c-.05,0,0-.19,0-.27s0,0-.1,0-.1-.3-.08-.4.17-.23.43-.17S12.29,6.79,12.83,6.8Z"/><path id="Path_26166" data-name="Path 26166" class="cls-78" d="M11.77,7.07,12.11,7A2.54,2.54,0,0,1,13,7a.25.25,0,0,1,.11,0h0s0,0,0,0,.09,0,0-.09A.25.25,0,0,0,13,6.9a2.39,2.39,0,0,0-.87.09Z"/><path id="Path_26167" data-name="Path 26167" class="cls-77" d="M10.89,7.16H10.3a.19.19,0,0,1,0-.15c.05-.06.22,0,.32,0S10.94,7.11,10.89,7.16Z"/><path id="Path_26168" data-name="Path 26168" class="cls-68" d="M12.35,5.25H12s.2-.11.29-.09S12.35,5.25,12.35,5.25Z"/><path id="Path_26169" data-name="Path 26169" class="cls-68" d="M11.69,5.26h-.5a0,0,0,0,1,0,0h0a.34.34,0,0,1,.22,0c.06,0,.19,0,.24,0S11.69,5.26,11.69,5.26Z"/><g id="Group_9224" data-name="Group 9224"><g id="Group_9222" data-name="Group 9222"><path id="Path_26170" data-name="Path 26170" class="cls-67" d="M11.09,5.59s0,0,0-.06a0,0,0,0,0,0,0s0,.06,0,.07Z"/></g><path id="Path_26171" data-name="Path 26171" class="cls-34" d="M11.11,6.17s0,0-.07,0Z"/><path id="Path_26172" data-name="Path 26172" class="cls-68" d="M11.13,5.64H11C11.06,5.56,11.1,5.56,11.13,5.64Z"/><path id="Path_26173" data-name="Path 26173" class="cls-69" d="M11.13,5.64a2.9,2.9,0,0,1,0,.51v0H11a4.34,4.34,0,0,1,0-.51Z"/><path id="Path_26174" data-name="Path 26174" class="cls-34" d="M11.08,6.3V6.19h0V6.3Z"/><path id="Path_26175" data-name="Path 26175" class="cls-34" d="M11,5.65l.11.11v.09L11,5.73Z"/><path id="Path_26176" data-name="Path 26176" class="cls-34" d="M11.13,5.64a.13.13,0,0,0,0,.06l-.06-.06Z"/><path id="Path_26177" data-name="Path 26177" class="cls-34" d="M11,5.79l.12.12a.28.28,0,0,0,0,.09L11,5.88Z"/><path id="Path_26178" data-name="Path 26178" class="cls-34" d="M11,5.93l.11.11v.08L11,6Z"/><path id="Path_26179" data-name="Path 26179" class="cls-34" d="M11,6.16h0V6.07l.08.1H11Z"/><path id="Path_26180" data-name="Path 26180" class="cls-70" d="M11.08,5.36a.2.2,0,0,0,0,.08s0,0,0,0,0,0,0,0,0,0,0,0h0a.11.11,0,0,0,0-.08A.14.14,0,0,1,11.08,5.36Z"/><path id="Path_26181" data-name="Path 26181" class="cls-71" d="M11.1,5.43a.11.11,0,0,1,0,.08h0a0,0,0,0,0,0,0s0,0,0-.05l0,0Z"/><path id="Path_26182" data-name="Path 26182" class="cls-69" d="M11,6.16h0a4.34,4.34,0,0,1,0-.51h.06a.45.45,0,0,0,0,.16,2.3,2.3,0,0,0,0,.37Z"/><path id="Path_26183" data-name="Path 26183" class="cls-72" d="M11.09,5.6s0,0,0,0h0S11.08,5.59,11.09,5.6Z"/><g id="Group_9223" data-name="Group 9223"><path id="Path_26184" data-name="Path 26184" class="cls-72" d="M11.11,5.66c0,.44,0,.46,0,.45h0A2.16,2.16,0,0,0,11.11,5.66Z"/></g></g><g id="Group_9227" data-name="Group 9227"><g id="Group_9225" data-name="Group 9225"><path id="Path_26185" data-name="Path 26185" class="cls-67" d="M12.28,5.68s0,0,0-.06h0s0,.06,0,.07S12.28,5.68,12.28,5.68Z"/></g><path id="Path_26186" data-name="Path 26186" class="cls-37" d="M12.3,6.26s-.05,0-.07,0Z"/><path id="Path_26187" data-name="Path 26187" class="cls-68" d="M12.32,5.73h-.1C12.25,5.65,12.29,5.65,12.32,5.73Z"/><path id="Path_26188" data-name="Path 26188" class="cls-69" d="M12.32,5.73a2.9,2.9,0,0,1,0,.51v0h-.08a4.34,4.34,0,0,1,0-.51Z"/><path id="Path_26189" data-name="Path 26189" class="cls-37" d="M12.26,6.39V6.28h0v.11Z"/><path id="Path_26190" data-name="Path 26190" class="cls-37" d="M12.22,5.74l.11.11v.09l-.12-.12Z"/><path id="Path_26191" data-name="Path 26191" class="cls-37" d="M12.32,5.73v.06l-.05-.06Z"/><path id="Path_26192" data-name="Path 26192" class="cls-37" d="M12.21,5.88l.11.13v.08L12.21,6Z"/><path id="Path_26193" data-name="Path 26193" class="cls-37" d="M12.21,6l.11.11v.08l-.1-.1Z"/><path id="Path_26194" data-name="Path 26194" class="cls-37" d="M12.23,6.25h0V6.16l.08.1h-.07Z"/><path id="Path_26195" data-name="Path 26195" class="cls-70" d="M12.26,5.45a.11.11,0,0,0,0,.08s0,0,0,0,0,0,0,0,0,0,0,0h0a.11.11,0,0,0,0-.08Z"/><path id="Path_26196" data-name="Path 26196" class="cls-71" d="M12.29,5.52a.11.11,0,0,1,0,.08h0a0,0,0,0,0,0,0s0,0,0-.05a.05.05,0,0,1,0,0Z"/><path id="Path_26197" data-name="Path 26197" class="cls-69" d="M12.23,6.25h0a4.34,4.34,0,0,1,0-.51h.06a.45.45,0,0,0,0,.16,2.3,2.3,0,0,0,0,.37Z"/><path id="Path_26198" data-name="Path 26198" class="cls-72" d="M12.28,5.69s0,0,0,0,0,0,0,0S12.27,5.68,12.28,5.69Z"/><g id="Group_9226" data-name="Group 9226"><path id="Path_26199" data-name="Path 26199" class="cls-72" d="M12.3,5.75c0,.44,0,.46,0,.45h0A3.23,3.23,0,0,0,12.3,5.75Z"/></g></g><g id="Group_9230" data-name="Group 9230"><g id="Group_9228" data-name="Group 9228"><path id="Path_26200" data-name="Path 26200" class="cls-67" d="M11.76,5.73s0-.05,0-.06h0s0,.06,0,.07Z"/></g><path id="Path_26201" data-name="Path 26201" class="cls-26" d="M11.78,6.31c0,.06,0,.06-.07,0Z"/><path id="Path_26202" data-name="Path 26202" class="cls-68" d="M11.8,5.79h-.1C11.73,5.7,11.77,5.7,11.8,5.79Z"/><path id="Path_26203" data-name="Path 26203" class="cls-69" d="M11.8,5.79a2.8,2.8,0,0,1,0,.5v0h-.07v0a4.17,4.17,0,0,1,0-.5Z"/><path id="Path_26204" data-name="Path 26204" class="cls-26" d="M11.74,6.44v-.1h0v.1Z"/><path id="Path_26205" data-name="Path 26205" class="cls-26" d="M11.7,5.79l.11.11V6l-.12-.12A.22.22,0,0,0,11.7,5.79Z"/><path id="Path_26206" data-name="Path 26206" class="cls-26" d="M11.8,5.79v.06l-.05-.06Z"/><path id="Path_26207" data-name="Path 26207" class="cls-26" d="M11.69,5.94l.11.12v.08L11.69,6Z"/><path id="Path_26208" data-name="Path 26208" class="cls-26" d="M11.69,6.07l.11.12v.08l-.1-.11Z"/><path id="Path_26209" data-name="Path 26209" class="cls-26" d="M11.71,6.31V6.22l.08.09h-.07Z"/><path id="Path_26210" data-name="Path 26210" class="cls-70" d="M11.74,5.51a.15.15,0,0,0,0,.07s0,0,0,0,0,0,0,0h0a.11.11,0,0,0,0-.08Z"/><path id="Path_26211" data-name="Path 26211" class="cls-71" d="M11.77,5.57a.11.11,0,0,1,0,.08h0s0,0,0,0,0,0,0,0a.08.08,0,0,1,0,0Z"/><path id="Path_26212" data-name="Path 26212" class="cls-69" d="M11.71,6.31v0a4.17,4.17,0,0,1,0-.5h.06a.41.41,0,0,0,0,.16,2.17,2.17,0,0,0,0,.36Z"/><path id="Path_26213" data-name="Path 26213" class="cls-72" d="M11.76,5.74s0,0,0,0h0S11.75,5.73,11.76,5.74Z"/><g id="Group_9229" data-name="Group 9229"><path id="Path_26214" data-name="Path 26214" class="cls-72" d="M11.78,5.81a1.59,1.59,0,0,1,0,.45h0v0A3.09,3.09,0,0,0,11.78,5.81Z"/></g></g><path id="Path_26215" data-name="Path 26215" class="cls-74" d="M12.46,6.42l-.47,0-.1,0s.28-.22.43-.2A.17.17,0,0,1,12.46,6.42Z"/><path id="Path_26216" data-name="Path 26216" class="cls-74" d="M11.9,6.42l-.47,0-.1,0s.28-.22.43-.2A.17.17,0,0,1,11.9,6.42Z"/><path id="Path_26217" data-name="Path 26217" class="cls-74" d="M11.26,6.28l-.47,0-.1,0s.28-.22.43-.19A.16.16,0,0,1,11.26,6.28Z"/><path id="Path_26218" data-name="Path 26218" class="cls-74" d="M12.86,6.05l-.21.13a.77.77,0,0,1-.54.17l-.08,0h0a.08.08,0,0,0,0,0s0,.06,0,.13a.16.16,0,0,0,.12.06.82.82,0,0,0,.53-.24Z"/><g id="Group_9233" data-name="Group 9233"><g id="Group_9231" data-name="Group 9231"><path id="Path_26219" data-name="Path 26219" class="cls-67" d="M11.36,4.66s0,0,0-.06h0s0,.05,0,.07Z"/></g><path id="Path_26220" data-name="Path 26220" class="cls-34" d="M11.38,5.25s-.05,0-.07,0Z"/><path id="Path_26221" data-name="Path 26221" class="cls-68" d="M11.4,4.72h-.1C11.33,4.64,11.37,4.64,11.4,4.72Z"/><path id="Path_26222" data-name="Path 26222" class="cls-69" d="M11.4,4.72a2.77,2.77,0,0,1,0,.5v0h-.07v0a4.17,4.17,0,0,1,0-.5Z"/><path id="Path_26223" data-name="Path 26223" class="cls-34" d="M11.35,5.37v-.1h0v.1Z"/><path id="Path_26224" data-name="Path 26224" class="cls-34" d="M11.3,4.72l.11.12v.08L11.3,4.8Z"/><path id="Path_26225" data-name="Path 26225" class="cls-34" d="M11.4,4.72a.13.13,0,0,0,0,.06l-.06-.06Z"/><path id="Path_26226" data-name="Path 26226" class="cls-34" d="M11.29,4.87l.12.12a.25.25,0,0,0,0,.08L11.29,5Z"/><path id="Path_26227" data-name="Path 26227" class="cls-34" d="M11.29,5l.11.12V5.2l-.1-.11Z"/><path id="Path_26228" data-name="Path 26228" class="cls-34" d="M11.31,5.24V5.15l.08.09h-.07Z"/><path id="Path_26229" data-name="Path 26229" class="cls-70" d="M11.35,4.44a.16.16,0,0,0,0,.07s0,0,0,.06,0,0,0,0h0a.12.12,0,0,0,0-.08A.25.25,0,0,1,11.35,4.44Z"/><path id="Path_26230" data-name="Path 26230" class="cls-71" d="M11.37,4.51a.12.12,0,0,1,0,.08h0s0,0,0,0,0,0,0,0l0,0Z"/><path id="Path_26231" data-name="Path 26231" class="cls-69" d="M11.31,5.24v0a4.17,4.17,0,0,1,0-.5h.06a.41.41,0,0,0,0,.16,2.17,2.17,0,0,0,0,.36Z"/><path id="Path_26232" data-name="Path 26232" class="cls-72" d="M11.36,4.67s0,0,0,0h0S11.35,4.67,11.36,4.67Z"/><g id="Group_9232" data-name="Group 9232"><path id="Path_26233" data-name="Path 26233" class="cls-72" d="M11.39,4.74a1.62,1.62,0,0,1,0,.45h0A3.27,3.27,0,0,0,11.39,4.74Z"/></g></g><path id="Path_26234" data-name="Path 26234" class="cls-68" d="M11.48,5.32s-.09.14-.15.12-.1-.14-.1-.17S11.36,5.12,11.48,5.32Z"/><g id="Group_9234" data-name="Group 9234"><path id="Path_26235" data-name="Path 26235" class="cls-68" d="M12.28,5.24a.52.52,0,0,0-.25,0c-.12,0-.25-.12-.43-.07l-.17.08a.92.92,0,0,1,.33,0l.21,0c.12,0,.17-.06.3,0l.11,0s0,0,0,0h0a0,0,0,0,0,0-.05h0Z"/></g></g><g id="Group_9241" data-name="Group 9241"><path id="Path_26236" data-name="Path 26236" class="cls-79" d="M9.17,6.84s.18.06.41.06.4,0,.4-.06-.18,0-.4,0S9.17,6.81,9.17,6.84Z"/><path id="Path_26237" data-name="Path 26237" class="cls-80" d="M9.58,6.9a1.29,1.29,0,0,0,.39,0h0l-.39.59H9.53l-.36-.59h0A1.33,1.33,0,0,0,9.58,6.9Z"/><path id="Path_26238" data-name="Path 26238" class="cls-79" d="M9.53,8V7.44h.06V8l.24.17s-.12.06-.27.06-.28,0-.28-.06Z"/><g id="Group_9236" data-name="Group 9236"><path id="Path_26240" data-name="Path 26240" class="cls-81" d="M9.28,8.17h0l0,0a.2.2,0,0,0,.11,0,1.15,1.15,0,0,0,.32,0,.12.12,0,0,0,.09,0h0a1,1,0,0,1-.38,0l-.11,0v0L9.53,8V7.44h0l-.18-.3-.18-.29.18.3.18.29V8Zm0,0Zm0,0Z"/></g><path id="Path_26242" data-name="Path 26242" class="cls-82" d="M9.36,7.1s0,.05.11.05.11,0,.11-.05-.05,0-.11,0S9.36,7.07,9.36,7.1Z"/><path id="Path_26243" data-name="Path 26243" class="cls-83" d="M9.17,6.84s.18.06.41.06.4,0,.4-.06-.18,0-.4,0S9.17,6.81,9.17,6.84Zm0,0a1.64,1.64,0,0,1,.38,0,1.55,1.55,0,0,1,.37,0h0a1.16,1.16,0,0,1-.37,0,1.22,1.22,0,0,1-.38,0Z"/><g id="Group_9238" data-name="Group 9238"><rect id="Rectangle_1222" data-name="Rectangle 1222" class="cls-84" x="9.24" y="6.74" width="1.11" height="0.05" transform="translate(-0.1 13.38) rotate(-68.37)"/><g id="Group_9237" data-name="Group 9237"><path id="Path_26244" data-name="Path 26244" class="cls-85" d="M10,6.32l0,0,0,0,0,0Z"/><path id="Path_26245" data-name="Path 26245" class="cls-85" d="M10,6.24l0,0,0,0,0,0Z"/><path id="Path_26246" data-name="Path 26246" class="cls-85" d="M9.9,6.43l0,.05,0,0,0,0Z"/><path id="Path_26247" data-name="Path 26247" class="cls-85" d="M9.86,6.55l0,0,0,.05,0,0Z"/><path id="Path_26248" data-name="Path 26248" class="cls-85" d="M9.81,6.67l0,0,0,0,0,0Z"/><path id="Path_26249" data-name="Path 26249" class="cls-85" d="M9.76,6.79l0,0,0,.06,0,0Z"/><path id="Path_26250" data-name="Path 26250" class="cls-85" d="M9.72,6.9l0,0,0,0,0,0Z"/><path id="Path_26251" data-name="Path 26251" class="cls-85" d="M9.67,7l0,0,0,.06,0,0Z"/><path id="Path_26252" data-name="Path 26252" class="cls-85" d="M9.63,7.12l0,0,0,.06,0-.05Z"/><path id="Path_26253" data-name="Path 26253" class="cls-85" d="M9.58,7.24l0,0,0,0Z"/></g></g><path id="Path_26254" data-name="Path 26254" class="cls-86" d="M10,6.28,9.74,7,10,6.29s0,0,0,0h0s0,0,0,0Z"/><g id="Group_9240" data-name="Group 9240"><g id="Group_9239" data-name="Group 9239"><path id="Path_26255" data-name="Path 26255" class="cls-87" d="M9.48,7.23l0,0-.3-.72-.41-.1v.05l.38.09Z"/></g><path id="Path_26256" data-name="Path 26256" class="cls-87" d="M8.81,6.44l.38.09.29.7,0,0h0l-.28-.7Z"/></g><path id="Path_26257" data-name="Path 26257" class="cls-26" d="M9.78,7.05H9.37l.2.37Z"/><path id="Path_26258" data-name="Path 26258" class="cls-83" d="M9.2,6.85h0a1.22,1.22,0,0,0,.38,0,1.16,1.16,0,0,0,.37,0h0a.88.88,0,0,1-.4.05.93.93,0,0,1-.41-.05Z"/><path id="Path_26259" data-name="Path 26259" class="cls-88" d="M9.79,7H9.53L9.7,7l.18,0s0,0,0,0h0Z"/></g><g id="Group_9247" data-name="Group 9247"><path id="Path_26260" data-name="Path 26260" class="cls-79" d="M13.53,6.84s.18.06.4.06.4,0,.4-.06-.18-.06-.4-.06S13.53,6.81,13.53,6.84Z"/><path id="Path_26261" data-name="Path 26261" class="cls-80" d="M13.93,6.9a1.31,1.31,0,0,0,.39-.05h0l-.39.59h-.06l-.35-.6h0A1.27,1.27,0,0,0,13.93,6.9Z"/><path id="Path_26262" data-name="Path 26262" class="cls-79" d="M13.88,8V7.44h.06V8l.23.18s-.12.05-.27.05-.27,0-.27-.05Z"/><g id="Group_9242" data-name="Group 9242"><path id="Path_26264" data-name="Path 26264" class="cls-81" d="M13.63,8.16h0l0,0,.11,0a1.22,1.22,0,0,0,.33,0l.09,0h0a1.21,1.21,0,0,1-.38,0,.17.17,0,0,1-.1,0h0A1.38,1.38,0,0,1,13.89,8V7.44h0l-.18-.3-.18-.3c.05.1.11.2.17.3l.18.3V8Zm0,0Zm0,0Z"/></g><path id="Path_26266" data-name="Path 26266" class="cls-82" d="M13.71,7.1s0,.05.11.05.11,0,.11-.05,0,0-.11,0S13.71,7.07,13.71,7.1Z"/><path id="Path_26267" data-name="Path 26267" class="cls-83" d="M13.53,6.84s.18.06.4.06.4,0,.4-.06-.18-.06-.4-.06S13.53,6.81,13.53,6.84Zm0,0a1.14,1.14,0,0,1,.37,0,1.17,1.17,0,0,1,.37,0h0a1.17,1.17,0,0,1-.37,0,1.14,1.14,0,0,1-.37,0h0Z"/><g id="Group_9244" data-name="Group 9244"><rect id="Rectangle_1223" data-name="Rectangle 1223" class="cls-84" x="13.6" y="6.74" width="1.11" height="0.05" transform="translate(2.65 17.42) rotate(-68.37)"/><g id="Group_9243" data-name="Group 9243"><path id="Path_26268" data-name="Path 26268" class="cls-85" d="M14.3,6.32l0,0,0,.06,0,0Z"/><path id="Path_26269" data-name="Path 26269" class="cls-85" d="M14.33,6.24l.05,0,0,0,0,0Z"/><path id="Path_26270" data-name="Path 26270" class="cls-85" d="M14.26,6.43l0,0,0,.06,0,0Z"/><path id="Path_26271" data-name="Path 26271" class="cls-85" d="M14.21,6.55l0,0,0,.06,0-.05Z"/><path id="Path_26272" data-name="Path 26272" class="cls-85" d="M14.16,6.67l0,0,0,0,0,0Z"/><path id="Path_26273" data-name="Path 26273" class="cls-85" d="M14.11,6.78l0,0,0,.06,0,0Z"/><path id="Path_26274" data-name="Path 26274" class="cls-85" d="M14.07,6.9l0,0,0,.06,0,0Z"/><path id="Path_26275" data-name="Path 26275" class="cls-85" d="M14,7l0,0,0,.06,0,0Z"/><path id="Path_26276" data-name="Path 26276" class="cls-85" d="M14,7.12l0,0,0,0,0,0Z"/><path id="Path_26277" data-name="Path 26277" class="cls-85" d="M13.93,7.24l0,0-.05,0Z"/></g></g><path id="Path_26278" data-name="Path 26278" class="cls-86" d="M14.34,6.28,14.09,7l.27-.66v0h0s0,0,0,0Z"/><g id="Group_9246" data-name="Group 9246"><g id="Group_9245" data-name="Group 9245"><path id="Path_26279" data-name="Path 26279" class="cls-87" d="M13.83,7.23l.05,0-.29-.73-.42-.09v.05l.39.09Z"/></g><path id="Path_26280" data-name="Path 26280" class="cls-87" d="M13.16,6.44l.39.09.28.7.05,0h0l-.28-.7Z"/></g><path id="Path_26281" data-name="Path 26281" class="cls-26" d="M14.13,7.05h-.41l.2.37Z"/><path id="Path_26282" data-name="Path 26282" class="cls-83" d="M13.55,6.84h0a1.14,1.14,0,0,0,.37,0,1.17,1.17,0,0,0,.37,0h0a.82.82,0,0,1-.4.06.78.78,0,0,1-.4-.06Z"/><path id="Path_26283" data-name="Path 26283" class="cls-88" d="M14.14,7h-.26l.17,0,.18,0s0,0,0,0h0Z"/></g><g id="Group_9248" data-name="Group 9248"><path id="Path_26284" data-name="Path 26284" class="cls-89" d="M13.65,12.12h-.16a8,8,0,0,1,0-1,24.36,24.36,0,0,1,.41-2.82c0-.13.09,0,.06.15a19.26,19.26,0,0,0-.34,2.72A7.23,7.23,0,0,0,13.65,12.12Z"/><path id="Path_26285" data-name="Path 26285" class="cls-90" d="M10.93,12.12h.16a8,8,0,0,0,0-1,24.36,24.36,0,0,0-.41-2.82c0-.13-.09,0-.06.15A19.26,19.26,0,0,1,11,11.19,7.23,7.23,0,0,1,10.93,12.12Z"/><path id="Path_26286" data-name="Path 26286" class="cls-89" d="M11,12.12h.15c0-.33,0-.65,0-1a24.36,24.36,0,0,0-.41-2.82c0-.13-.09,0-.06.15A17.88,17.88,0,0,1,11,11.19,5.78,5.78,0,0,1,11,12.12Z"/><path id="Path_26287" data-name="Path 26287" class="cls-90" d="M9.05,12.12h.16a8,8,0,0,0,0-1A22.32,22.32,0,0,0,8.8,8.32c0-.13-.09,0-.06.15a19.26,19.26,0,0,1,.34,2.72A7.23,7.23,0,0,1,9.05,12.12Z"/><rect id="Rectangle_1224" data-name="Rectangle 1224" class="cls-89" x="8.55" y="8.19" width="5.85" height="0.43"/><rect id="Rectangle_1225" data-name="Rectangle 1225" class="cls-91" x="8.55" y="8.19" width="2.42" height="0.43"/><rect id="Rectangle_1226" data-name="Rectangle 1226" class="cls-31" x="8.55" y="8.14" width="5.85" height="0.06"/></g></g></g></svg>