<svg width="45" height="45" viewBox="0 0 45 45" fill="none" xmlns="http://www.w3.org/2000/svg">
<circle cx="22.544" cy="22.4318" r="22.0581" fill="#E8F4FA"/>
<path fill-rule="evenodd" clip-rule="evenodd" d="M22.5427 31.255C27.4157 31.255 31.366 27.3047 31.366 22.4318C31.366 17.5588 27.4157 13.6085 22.5427 13.6085C17.6698 13.6085 13.7195 17.5588 13.7195 22.4318C13.7195 27.3047 17.6698 31.255 22.5427 31.255ZM26.6313 21.0058C27.062 20.5751 27.062 19.8768 26.6313 19.4461C26.2006 19.0154 25.5023 19.0154 25.0716 19.4461L21.4398 23.0778L20.0139 21.6519C19.5832 21.2212 18.8849 21.2212 18.4541 21.6519C18.0234 22.0826 18.0234 22.7809 18.4541 23.2116L20.66 25.4175C21.0907 25.8482 21.789 25.8482 22.2197 25.4175L26.6313 21.0058Z" fill="#50B7ED"/>
</svg>
