<svg xmlns="http://www.w3.org/2000/svg" width="21.378" height="21.423" viewBox="0 0 21.378 21.423">
  <g id="Group_9289" data-name="Group 9289" transform="translate(669.64 -15.267)">
    <path id="Path_26497" data-name="Path 26497" d="M-658.952,15.267a10.71,10.71,0,0,1,10.689,10.695A10.713,10.713,0,0,1-658.946,36.69,10.724,10.724,0,0,1-669.64,26,10.723,10.723,0,0,1-658.952,15.267Zm-.01,19.266a8.554,8.554,0,0,0,8.545-8.521,8.553,8.553,0,0,0-8.533-8.588,8.568,8.568,0,0,0-8.538,8.508A8.564,8.564,0,0,0-658.961,34.533Z" transform="translate(0 0)" fill="#040404"/>
    <path id="Path_26498" data-name="Path 26498" d="M-505.776,180.414c-.2,0-.37,0-.538,0a.428.428,0,0,1-.482-.456c-.011-.3-.011-.593,0-.889a.424.424,0,0,1,.478-.459q1.344-.008,2.688,0a.427.427,0,0,1,.477.486q0,3.03,0,6.059a.84.84,0,0,1-.867.867c-.278.007-.556.006-.833,0a.864.864,0,0,1-.922-.956c0-1.338,0-2.675,0-4.013C-505.776,180.85-505.776,180.647-505.776,180.414Z" transform="translate(-154.057 -154.532)" fill="#040404"/>
    <path id="Path_26499" data-name="Path 26499" d="M-490.032,109.427a1.453,1.453,0,0,1-1.462,1.444,1.458,1.458,0,0,1-1.442-1.466,1.455,1.455,0,0,1,1.464-1.444A1.455,1.455,0,0,1-490.032,109.427Z" transform="translate(-167.177 -87.696)" fill="#040404"/>
  </g>
</svg>
