<svg xmlns="http://www.w3.org/2000/svg" width="36.827" height="42.559" viewBox="0 0 36.827 42.559"><defs><style>.a{fill:#f6f6f9;}.b{fill:#bf9837;}.c{fill:#fff;}.d{fill:#cd8b6d;}.e{fill:#b66c50;}.f{fill:#e8b299;}.g{fill:#141e62;}.h{fill:#95bcd1;}.i{fill:#343a80;}.j{fill:#4b55aa;}.k,.l{stroke:none;}.l{fill:#f55a00;}</style></defs><g transform="translate(0 -0.001)"><g class="a" transform="translate(0 0)"><path class="k" d="M 19.04805183410645 42.05965423583984 C 18.51621055603027 42.05965423583984 18.03538131713867 41.78752517700195 17.76182174682617 41.33171463012695 L 14.61250114440918 36.08260345458984 L 14.50382137298584 35.90145492553711 L 14.29816150665283 35.85311508178711 C 10.43496131896973 34.94500350952148 6.931431293487549 32.72968673706055 4.432941436767578 29.61523628234863 C 3.184951305389404 28.0595760345459 2.212831258773804 26.32307624816895 1.543591380119324 24.4539852142334 C 0.8511213064193726 22.51999473571777 0.5000013113021851 20.48784446716309 0.5000013113021851 18.41399574279785 C 0.5000013113021851 13.6293249130249 2.363311290740967 9.130975723266602 5.746691226959229 5.747595310211182 C 9.130071640014648 2.36421537399292 13.62842178344727 0.5009053349494934 18.41310119628906 0.5009053349494934 C 23.19817161560059 0.5009053349494934 27.69680213928223 2.36421537399292 31.08030128479004 5.747605323791504 C 34.46375274658203 9.130935668945312 36.32710266113281 13.62927532196045 36.32710266113281 18.41399574279785 C 36.32710266113281 22.26218605041504 35.12553024291992 25.92938613891602 32.85230255126953 29.01913452148438 C 31.75794219970703 30.5065860748291 30.44645118713379 31.81229591369629 28.95425224304199 32.90000534057617 C 27.444091796875 34.00081634521484 25.78195190429688 34.85375595092773 24.01400184631348 35.43511581420898 L 23.83719062805176 35.49325561523438 L 23.74144172668457 35.65285491943359 L 20.33425140380859 41.33176422119141 C 20.06072044372559 41.78752517700195 19.57989120483398 42.05965423583984 19.04805183410645 42.05965423583984 Z"/><path class="l" d="M 19.04805183410645 41.55965423583984 C 19.21832084655762 41.55965423583984 19.64272117614746 41.51237487792969 19.9055004119873 41.07452392578125 L 23.50420188903809 35.076416015625 L 23.85781097412109 34.96013641357422 C 25.5761604309082 34.39508438110352 27.1917610168457 33.56601715087891 28.65973091125488 32.49596405029297 C 30.1104907989502 31.43844604492188 31.38558197021484 30.16897583007812 32.44956207275391 28.72282600402832 C 34.65917205810547 25.71955490112305 35.82710266113281 22.15482521057129 35.82710266113281 18.41399574279785 C 35.82710266113281 13.76283550262451 34.01576232910156 9.390055656433105 30.72676086425781 6.101165294647217 C 27.43769073486328 2.812215328216553 23.06462097167969 1.000905394554138 18.41310119628906 1.000905394554138 C 13.76198101043701 1.000905394554138 9.389191627502441 2.81220531463623 6.100241184234619 6.101145267486572 C 2.811301231384277 9.390085220336914 1.000001311302185 13.7628755569458 1.000001311302185 18.41399574279785 C 1.000001311302185 20.43024444580078 1.341271281242371 22.40567588806152 2.014331340789795 24.28543472290039 C 2.66482138633728 26.1021556854248 3.609781265258789 27.79009628295898 4.822961330413818 29.30236625671387 C 7.251901149749756 32.33012390136719 10.65756130218506 34.48369598388672 14.41258144378662 35.36637496948242 L 14.82388114929199 35.46306610107422 L 18.19054222106934 41.07441711425781 C 18.4533805847168 41.51237487792969 18.87778091430664 41.55965423583984 19.04805183410645 41.55965423583984 M 19.04805183410645 42.55965423583984 C 18.38475227355957 42.55965423583984 17.72145080566406 42.2360954284668 17.33310127258301 41.58900451660156 L 14.18375110626221 36.33984375 C 6.05324125289917 34.42863464355469 1.330566419710522e-06 27.12839508056641 1.330566419710522e-06 18.41399574279785 C 1.330566419710522e-06 8.244905471801758 8.244001388549805 0.0009053448447957635 18.41310119628906 0.0009053448447957635 C 28.58310127258301 0.0009053448447957635 36.82710266113281 8.244905471801758 36.82710266113281 18.41399574279785 C 36.82710266113281 26.57346534729004 31.52058219909668 33.49303436279297 24.17019081115723 35.91009521484375 L 20.76300048828125 41.58900451660156 C 20.3746509552002 42.2360954284668 19.71135139465332 42.55965423583984 19.04805183410645 42.55965423583984 Z"/></g><g transform="translate(8.281 4.759)"><g transform="translate(0 20.892)"><path class="b" d="M359.623,161.707c-.078,1.665-7.206,1.478-10.122,1.332-2.915.146-10.045.333-10.123-1.332-.1-2.093.585-3.6,1.315-3.938a21.853,21.853,0,0,1,3.18-.612c.427-.062.855-.124,1.252-.179,1.114-.156,1.994-.267,1.994-.267l2.382.261,2.38-.261s.859.109,1.953.261c.411.059.855.121,1.3.187a21.578,21.578,0,0,1,3.174.609C359.039,158.11,359.72,159.614,359.623,161.707Z" transform="translate(-339.369 -156.712)"/><path class="c" d="M371.914,157.16l-4.655,5.272c-2.053-.615-5.556-4.172-6.606-5.274.427-.062.855-.124,1.252-.179,1.114-.156,1.994-.267,1.994-.267l2.382.261,2.38-.261s.859.109,1.953.261C371.026,157.031,371.47,157.094,371.914,157.16Z" transform="translate(-356.149 -156.712)"/><path class="d" d="M375.279,156.973a36.187,36.187,0,0,1-3.55,5.021c-2.333-.91-4.409-3.84-5.159-5.015,1.114-.156,1.994-.267,1.994-.267l2.382.261,2.38-.261S374.185,156.821,375.279,156.973Z" transform="translate(-360.813 -156.712)"/></g><path class="d" d="M370.7,145s.341,2.76.39,3.588c0,0,3.213,2.052,5.891-.09,0,0,.049-2.228.049-3.5Z" transform="translate(-364.071 -126.587)"/><g transform="translate(15.762 8.692)"><path class="d" d="M414.395,99.862s2.65-2.076,3.028.476-3.067,3.2-3.067,3.2Z" transform="translate(-414.248 -99.066)"/><path class="e" d="M414.145,104.412s1.446-1.642,1.746-.847a3.133,3.133,0,0,1,.042,1.715s-.08-1.061-.93-.59c0,0,.486,1.752-.939,1.058A.992.992,0,0,1,414.145,104.412Z" transform="translate(-413.846 -102.442)"/></g><g transform="translate(0.181 8.692)"><path class="d" d="M343.283,99.862s-2.65-2.076-3.028.476,3.066,3.2,3.066,3.2Z" transform="translate(-340.226 -99.066)"/><path class="e" d="M346.9,104.412s-1.446-1.642-1.746-.847a3.131,3.131,0,0,0-.042,1.715s.08-1.061.931-.59c0,0-.486,1.752.938,1.058A.991.991,0,0,0,346.9,104.412Z" transform="translate(-344 -102.442)"/></g><path class="f" d="M356.758,69.736s-2.942-.644-3.677,2.115-.46,5.884-.736,7.079-.459,5.424,5.792,7.263a4.945,4.945,0,0,0,3.034-.368c1.655-.735,4.187-2.377,4.321-4.6.151-2.49.552-5.332-.184-7.539S361.171,66.886,356.758,69.736Z" transform="translate(-349.517 -66.538)"/><path class="d" d="M380.239,96.347s-.46-.459-.552,1.2,0,3.4,0,3.4-1.1-.644-.736.276a1.6,1.6,0,0,0,1.159.882,1,1,0,0,0,1.028-.306c.131-.127.813-.819.6-1.035-.1-.1-.7.144-.855.182C380.882,100.943,381.066,95.979,380.239,96.347Z" transform="translate(-370.515 -88.184)"/><path class="g" d="M393.424,91.548s3.055-.761,3.583,2.066c0,0-3.111-1.3-3.827-.661Z" transform="translate(-381.792 -84.373)"/><path class="g" d="M363.519,91.256s-2.919-1.178-3.835,1.547c0,0,3.262-.856,3.882-.123Z" transform="translate(-355.385 -84.017)"/><path class="d" d="M376.812,76.7c-.682-1.023-3.6-2.24-3.6-2.24l-7.108.049s-.1,1.46,3.554,2,6.759-.355,6.763,3.645C376.417,80.149,377.493,77.721,376.812,76.7Z" transform="translate(-360.443 -70.974)"/><g transform="translate(11.437 8.691)"><g transform="translate(0 0.089)"><path class="c" d="M393.413,101.117a1.663,1.663,0,1,0,1.663-1.637A1.65,1.65,0,0,0,393.413,101.117Z" transform="translate(-393.413 -99.48)"/><g transform="translate(0.6 0.365)"><path class="h" d="M398.325,102.539a1.071,1.071,0,1,1-1.039-1.333A1.214,1.214,0,0,1,398.325,102.539Z" transform="translate(-396.247 -101.206)"/><ellipse class="g" cx="0.738" cy="0.947" rx="0.738" ry="0.947" transform="translate(0.301 0.385)"/><path class="c" d="M402.028,102.307c0,.142-.171.258-.381.258s-.381-.115-.381-.258.17-.258.381-.258S402.028,102.165,402.028,102.307Z" transform="translate(-400.204 -101.871)"/></g></g><path class="g" d="M395.757,99.523a.106.106,0,0,0,.091.158,4.69,4.69,0,0,1,1.378-.057c.473.1,1.149.374,1.284.9.02.078.124.054.132-.018C398.766,99.271,396.393,98.53,395.757,99.523Z" transform="translate(-395.25 -99.061)"/></g><g transform="translate(4.725 8.497)"><g transform="translate(0.091 0.283)"><path class="c" d="M362.125,101.117a1.663,1.663,0,1,0,1.662-1.637A1.65,1.65,0,0,0,362.125,101.117Z" transform="translate(-362.125 -99.48)"/><g transform="translate(0.6 0.365)"><path class="h" d="M367.036,102.539A1.071,1.071,0,1,1,366,101.206,1.214,1.214,0,0,1,367.036,102.539Z" transform="translate(-364.958 -101.206)"/><path class="g" d="M367.854,103.974a.761.761,0,1,1-.738-.947A.863.863,0,0,1,367.854,103.974Z" transform="translate(-366.077 -102.642)"/><path class="c" d="M370.739,102.307c0,.142-.171.258-.381.258s-.381-.115-.381-.258.17-.258.381-.258S370.739,102.165,370.739,102.307Z" transform="translate(-368.915 -101.871)"/></g></g><path class="g" d="M364.582,98.6a.106.106,0,0,1-.091.158,4.689,4.689,0,0,0-1.378-.057c-.473.1-1.149.374-1.284.895-.02.078-.124.054-.131-.018C361.573,98.35,363.946,97.61,364.582,98.6Z" transform="translate(-361.694 -98.141)"/></g><g transform="translate(1.34 2.264)"><path class="g" d="M350.865,70.085c-2.2.277-3.309,6.528-3.4,6.528q-.21-.435-.409-.826c-.086-.168-.169-.331-.25-.491a15.274,15.274,0,0,1-.781-1.708,5.634,5.634,0,0,1-.247-.884,4.941,4.941,0,0,1,.123-2.251c.645-2.392,4.23-1.656,4.23-1.656l.076.134.113.2Z" transform="translate(-345.7 -68.691)"/><path class="i" d="M350.608,69.656a.1.1,0,0,1-.107.014,2.97,2.97,0,0,0-2.28.479,3.4,3.4,0,0,0-1.687,1.885,5.663,5.663,0,0,0-.22,2.08,5.643,5.643,0,0,1-.247-.884,4.045,4.045,0,0,1,.847-2.275c.713-.832,2.425-1.938,3.582-1.5a1.01,1.01,0,0,1,.1.043A.089.089,0,0,1,350.608,69.656Z" transform="translate(-345.989 -69.217)"/><path class="i" d="M354.507,73.031c-3.144-.142-3.406,3.622-3.375,6.1-.086-.168-.169-.331-.25-.491-.124-2.53.748-5.9,3.625-5.7C354.567,72.94,354.57,73.033,354.507,73.031Z" transform="translate(-349.777 -72.03)"/></g><g transform="translate(5.019 0)"><path class="i" d="M374.041,67.166l-.185-2.021c-.551-2.575-2.941-1.287-6.986-2.115s-3.808-2.47-3.771-2.758a3.014,3.014,0,0,1,.251-.982.916.916,0,0,1,.109-.165c.3-.356.756-.232,1.4-.117.012,0,.026.116.037.118.134.024.276.138.425.138h.088a4.092,4.092,0,0,0,1.375-.247c.011,0,.025-.063.037-.067s.029-.036.045-.04l.043-.026.008-.009a.478.478,0,0,0,.1-.031l.018-.008a4.129,4.129,0,0,0,.487-.23c2.039-1.155,3.979-.6,5.6.962l0,0c.081.076.163.163.243.247l0,0a10.215,10.215,0,0,1,.933,1.143s0,0,0,0q.1.149.2.3c.064.094.127.191.187.288a4.512,4.512,0,0,1,.534,1.2c.02.07.037.14.05.208A5.128,5.128,0,0,1,374.041,67.166Z" transform="translate(-363.084 -57.993)"/><path class="j" d="M376.26,67.189a13.782,13.782,0,0,0-2.13-.23,28.112,28.112,0,0,1-4.766-.366,9.122,9.122,0,0,1-3.671-1.5,5.652,5.652,0,0,1-1.35-1.582.918.918,0,0,1,.109-.165,6.886,6.886,0,0,0,.7.972A5.733,5.733,0,0,0,367.06,65.7a14.049,14.049,0,0,0,5.25,1.036,22.8,22.8,0,0,1,3.9.247C376.229,67.051,376.246,67.121,376.26,67.189Z" transform="translate(-364.077 -62.211)"/><path class="j" d="M381.1,65.054a8.939,8.939,0,0,0-1.924-.023,18.883,18.883,0,0,1-3.585.082,5.926,5.926,0,0,1-4.131-2.322.353.353,0,0,0,.037.008,2.484,2.484,0,0,0,.425.027,6.083,6.083,0,0,0,2.358,1.618,10.308,10.308,0,0,0,3.772.374,17.536,17.536,0,0,1,2.844-.068Q380.994,64.9,381.1,65.054Z" transform="translate(-369.684 -61.776)"/><path class="j" d="M387.127,62.988c-1.8,1.289-4.729.58-6.577-.915l.124-.035.008,0,.1-.028a6.736,6.736,0,0,0,2.532,1.217,5.073,5.073,0,0,0,3.572-.487c.082.076.163.163.243.247Z" transform="translate(-376.854 -61.158)"/></g><g transform="translate(4.697 13.669)"><g transform="translate(0.522 0.379)"><path class="c" d="M372.578,124.374a11.966,11.966,0,0,1-.588,1.205c-.045.08-.092.16-.141.244a6.022,6.022,0,0,1-2.12,2.319c-1.375.688-3.2.012-4.777-2.193-.019-.029-.041-.058-.06-.088a12.244,12.244,0,0,1-.861-1.437s1.011.224,3.217.5A17.408,17.408,0,0,0,372.578,124.374Z" transform="translate(-364.03 -124.374)"/><path class="d" d="M375.2,130.07c-.045.08-.092.16-.141.244a17.943,17.943,0,0,1-3.092.4,13.5,13.5,0,0,1-3.805-.269c-.02-.029-.041-.058-.06-.088a12.621,12.621,0,0,0,4.228.212A20.685,20.685,0,0,0,375.2,130.07Z" transform="translate(-367.238 -128.865)"/></g><path class="d" d="M362.949,123.351a1.711,1.711,0,0,0-1.36.43c-.064.048-.006.156.065.11a2.835,2.835,0,0,1,.613-.286c.223-.079.459-.087.682-.16A.049.049,0,0,0,362.949,123.351Z" transform="translate(-361.562 -123.163)"/><path class="d" d="M403.258,123.075a.828.828,0,0,0-.442-.282c-.178-.076-.362-.138-.543-.205-.093-.035-.152.112-.067.159.161.088.323.174.49.252a1.086,1.086,0,0,0,.5.18A.069.069,0,0,0,403.258,123.075Z" transform="translate(-393.572 -122.582)"/></g></g></g></svg>