<svg xmlns="http://www.w3.org/2000/svg" xmlns:xlink="http://www.w3.org/1999/xlink" width="38" height="38" viewBox="0 0 38 38">
  <defs>
    <filter id="Ellipse_195" x="-22.5" y="-17.5" width="83" height="83" filterUnits="userSpaceOnUse">
      <feOffset dy="5" input="SourceAlpha"/>
      <feGaussianBlur stdDeviation="7.5" result="blur"/>
      <feFlood flood-color="#aaa8bf" flood-opacity="0.361"/>
      <feComposite operator="in" in2="blur"/>
      <feComposite in="SourceGraphic"/>
    </filter>
    <clipPath id="clip-path">
      <g transform="matrix(1, 0, 0, 1, 0, 0)" filter="url(#Ellipse_195)">
        <circle id="Ellipse_195-2" data-name="Ellipse 195" cx="19" cy="19" r="19" transform="translate(0.21 0.21)" fill="#fff"/>
      </g>
    </clipPath>
  </defs>
  <g id="delivery_icon" transform="translate(-0.208 -0.208)">
    <circle id="Ellipse_194" data-name="Ellipse 194" cx="19" cy="19" r="19" transform="translate(0.208 0.208)" fill="none"/>
    <g id="Mask_Group_8" data-name="Mask Group 8" clip-path="url(#clip-path)">
      <g id="Group_6335" data-name="Group 6335" transform="translate(13.88 10.313)">
        <path id="Path_10911" data-name="Path 10911" d="M17.426,18.552H8.458V16.283A5.945,5.945,0,0,1,10.6,11.716l.332-.277a1.189,1.189,0,0,0,0-1.827L10.6,9.336A5.945,5.945,0,0,1,8.458,4.769V2.5h8.967V4.769a5.945,5.945,0,0,1-2.139,4.567l-.332.277a1.189,1.189,0,0,0,0,1.827l.332.277a5.945,5.945,0,0,1,2.139,4.567Z" transform="translate(-7.294 -1.311)" fill="#e9e9f7"/>
        <path id="Path_10912" data-name="Path 10912" d="M11.192,11.716l.332-.277a1.189,1.189,0,0,0,0-1.827l-.332-.277A5.945,5.945,0,0,1,9.053,4.769V2.5H8.458V4.769A5.945,5.945,0,0,0,10.6,9.336l.332.277a1.189,1.189,0,0,1,0,1.827l-.332.277a5.945,5.945,0,0,0-2.139,4.567v2.269h.595V16.283a5.945,5.945,0,0,1,2.139-4.567Z" transform="translate(-7.294 -1.311)" fill="#d5d4e0"/>
        <path id="Path_10920" data-name="Path 10920" d="M.595,0H10.7a.595.595,0,0,1,0,1.189H.595A.595.595,0,0,1,.595,0Z" fill="#343030"/>
        <path id="Path_10913" data-name="Path 10913" d="M7.689,1.095A.6.6,0,0,1,8.284.5H7.095a.595.595,0,1,0,0,1.189H8.284A.6.6,0,0,1,7.689,1.095Z" transform="translate(-6.5 -0.5)"/>
        <path id="Path_10921" data-name="Path 10921" d="M.595,0H10.7a.595.595,0,0,1,0,1.189H.595A.595.595,0,0,1,.595,0Z" transform="translate(0 17.241)" fill="#343030"/>
        <path id="Path_10914" data-name="Path 10914" d="M9.222,27.794l3.155-2.224a1.519,1.519,0,0,1,1.75,0l3.155,2.224Z" transform="translate(-7.604 -10.553)" fill="#50b7ed"/>
        <path id="Path_10915" data-name="Path 10915" d="M13.549,25.328a1.515,1.515,0,0,0-1.172.244L9.222,27.8h.595l3.155-2.224a1.51,1.51,0,0,1,.578-.244Z" transform="translate(-7.604 -10.555)" fill="#1ca8b2"/>
        <circle id="Ellipse_5699" data-name="Ellipse 5699" cx="0.297" cy="0.297" r="0.297" transform="translate(5.648 12.188)" fill="#50b7ed"/>
        <circle id="Ellipse_5700" data-name="Ellipse 5700" cx="0.297" cy="0.297" r="0.297" transform="translate(5.053 13.377)" fill="#50b7ed"/>
        <path id="Path_10916" data-name="Path 10916" d="M8.46,6.5h8.965a5.93,5.93,0,0,1-1.819,4.168l-2.663,1.778-2.663-1.778A5.93,5.93,0,0,1,8.46,6.5Z" transform="translate(-7.295 -2.933)" fill="#50b7ed"/>
        <path id="Path_10917" data-name="Path 10917" d="M10.874,10.668A5.93,5.93,0,0,1,9.055,6.5H8.46a5.93,5.93,0,0,0,1.819,4.168l2.663,1.778.3-.2Z" transform="translate(-7.295 -2.933)" fill="#1ca8b2"/>
        <path id="Path_10918" data-name="Path 10918" d="M15.8,17.378a.3.3,0,0,1-.3-.3V15.3a.3.3,0,1,1,.595,0v1.784a.3.3,0,0,1-.3.3Z" transform="translate(-10.149 -6.379)" fill="#50b7ed"/>
        <path id="Path_10919" data-name="Path 10919" d="M7.689,30.095a.6.6,0,0,1,.595-.595H7.095a.595.595,0,0,0,0,1.189H8.284A.6.6,0,0,1,7.689,30.095Z" transform="translate(-6.5 -12.259)"/>
      </g>
    </g>
  </g>
</svg>
