<svg width="33" height="38" viewBox="0 0 33 38" fill="none" xmlns="http://www.w3.org/2000/svg">
<path d="M16.0769 32.1538C24.9559 32.1538 32.1538 24.9559 32.1538 16.0769C32.1538 7.19787 24.9559 0 16.0769 0C7.19787 0 0 7.19787 0 16.0769C0 24.9559 7.19787 32.1538 16.0769 32.1538Z" fill="#50b7ed"/>
<path d="M9.96875 28.9385L16.0779 37.2985V28.9385H9.96875Z" fill="#50b7ed"/>
<path d="M22.1873 28.9385L16.0781 37.2985V28.9385H22.1873Z" fill="#50b7ed"/>
<path d="M16.0776 29.6151C23.5547 29.6151 29.6161 23.5537 29.6161 16.0766C29.6161 8.59948 23.5547 2.53809 16.0776 2.53809C8.60046 2.53809 2.53906 8.59948 2.53906 16.0766C2.53906 23.5537 8.60046 29.6151 16.0776 29.6151Z" fill="#ECECEC"/>
<path d="M12.8989 20.4C12.1841 20.4 11.6058 20.985 11.6058 21.7C11.6058 22.415 12.1841 23 12.8989 23C13.6137 23 14.1986 22.415 14.1986 21.7C14.1986 20.985 13.6137 20.4 12.8989 20.4ZM19.3971 20.4C18.6823 20.4 18.104 20.985 18.104 21.7C18.104 22.415 18.6823 23 19.3971 23C20.1119 23 20.6968 22.415 20.6968 21.7C20.6968 20.985 20.1119 20.4 19.3971 20.4ZM18.4549 17.1499C18.9422 17.1499 19.3711 16.8835 19.5921 16.4805L21.9184 12.262C21.9732 12.1635 22.0013 12.0524 22 11.9396C21.9985 11.8269 21.9679 11.7165 21.9107 11.6193C21.8536 11.5221 21.7721 11.4415 21.6743 11.3855C21.5765 11.3295 21.4658 11.3 21.3531 11.3H11.7357L11.1249 10H9V11.3H10.2997L12.639 16.2335L11.7617 17.8195C11.2874 18.6905 11.9113 19.7499 12.8989 19.7499H20.6968V18.4499H12.8989L13.6137 17.1499H18.4549ZM12.3531 12.6H20.2484L18.4549 15.8499H13.8932L12.3531 12.6Z" fill="#3E4958"/>
</svg>
