<svg width="33" height="38" viewBox="0 0 33 38" fill="none" xmlns="http://www.w3.org/2000/svg">
<path d="M16.0769 32.1538C24.9559 32.1538 32.1538 24.9559 32.1538 16.0769C32.1538 7.19787 24.9559 0 16.0769 0C7.19787 0 0 7.19787 0 16.0769C0 24.9559 7.19787 32.1538 16.0769 32.1538Z" fill="#50b7ed"/>
<path d="M9.96875 28.9385L16.0779 37.2985V28.9385H9.96875Z" fill="#50b7ed"/>
<path d="M22.1873 28.9385L16.0781 37.2985V28.9385H22.1873Z" fill="#50b7ed"/>
<path d="M16.0776 29.6151C23.5547 29.6151 29.6161 23.5537 29.6161 16.0766C29.6161 8.59948 23.5547 2.53809 16.0776 2.53809C8.60046 2.53809 2.53906 8.59948 2.53906 16.0766C2.53906 23.5537 8.60046 29.6151 16.0776 29.6151Z" fill="#ECECEC"/>
<path d="M14.9285 18.3333H13.1428V16H14.9285V14.0556H17.0714V16H18.8571V18.3333H17.0714V20.2778H14.9285V18.3333ZM21 12.889V21.4445C21 22.3 20.3571 23 19.5714 23H12.4286C11.6428 23 11 22.3 11 21.4445V12.889C11 12.0334 11.6428 11.3333 12.4286 11.3333H19.5714C20.3571 11.3333 21 12.0334 21 12.889ZM19.5714 12.889H12.4286V21.4445H19.5714V12.889ZM20.2857 9H11.7143V10.5556H20.2857V9Z" fill="#3E4958"/>
</svg>
