<svg width="33" height="38" viewBox="0 0 33 38" fill="none" xmlns="http://www.w3.org/2000/svg">
<path d="M16.0769 32.1538C24.9559 32.1538 32.1538 24.9559 32.1538 16.0769C32.1538 7.19787 24.9559 0 16.0769 0C7.19787 0 0 7.19787 0 16.0769C0 24.9559 7.19787 32.1538 16.0769 32.1538Z" fill="#50b7ed"/>
<path d="M9.96875 28.9385L16.0779 37.2985V28.9385H9.96875Z" fill="#50b7ed"/>
<path d="M22.1873 28.9385L16.0781 37.2985V28.9385H22.1873Z" fill="#50b7ed"/>
<path d="M16.0776 29.6151C23.5547 29.6151 29.6161 23.5537 29.6161 16.0766C29.6161 8.59948 23.5547 2.53809 16.0776 2.53809C8.60046 2.53809 2.53906 8.59948 2.53906 16.0766C2.53906 23.5537 8.60046 29.6151 16.0776 29.6151Z" fill="#ECECEC"/>
<path d="M12.4105 12.567V10.0601C12.4105 9.86066 12.4897 9.66936 12.6308 9.52836C12.7718 9.38726 12.9631 9.30806 13.1625 9.30806C13.362 9.30806 13.5533 9.38726 13.6943 9.52836C13.8354 9.66936 13.9146 9.86066 13.9146 10.0601V12.567C13.9146 12.7665 13.8354 12.9578 13.6943 13.0988C13.5533 13.2398 13.362 13.3191 13.1625 13.3191C12.9631 13.3191 12.7718 13.2398 12.6308 13.0988C12.4897 12.9578 12.4105 12.7665 12.4105 12.567ZM15.4187 9.30806C15.2193 9.30806 15.028 9.38726 14.8869 9.52836C14.7459 9.66936 14.6667 9.86066 14.6667 10.0601V13.0684C14.6667 13.4673 14.5082 13.8499 14.2261 14.132C13.944 14.414 13.5615 14.5725 13.1625 14.5725C12.7636 14.5725 12.3811 14.414 12.099 14.132C11.8169 13.8499 11.6584 13.4673 11.6584 13.0684V10.0601C11.6584 9.86066 11.5792 9.66936 11.4382 9.52836C11.2971 9.38726 11.1058 9.30806 10.9064 9.30806C10.7069 9.30806 10.5156 9.38726 10.3746 9.52836C10.2335 9.66936 10.1543 9.86066 10.1543 10.0601V13.0684C10.1561 13.735 10.3784 14.3823 10.7865 14.9094C11.1946 15.4366 11.7656 15.8139 12.4105 15.9826V22.0931C12.4105 22.2926 12.4897 22.4838 12.6308 22.6249C12.7718 22.7659 12.9631 22.8452 13.1625 22.8452C13.362 22.8452 13.5533 22.7659 13.6943 22.6249C13.8354 22.4838 13.9146 22.2926 13.9146 22.0931V15.9826C14.5595 15.8139 15.1305 15.4366 15.5386 14.9094C15.9467 14.3823 16.169 13.735 16.1708 13.0684V10.0601C16.1708 9.86066 16.0916 9.66936 15.9505 9.52836C15.8095 9.38726 15.6182 9.30806 15.4187 9.30806ZM21.4352 10.0601V22.0931C21.4352 22.2926 21.356 22.4838 21.2149 22.6249C21.0739 22.7659 20.8826 22.8452 20.6831 22.8452C20.4837 22.8452 20.2924 22.7659 20.1514 22.6249C20.0103 22.4838 19.9311 22.2926 19.9311 22.0931V18.8342H17.1735C17.0681 18.8339 16.9638 18.8115 16.8676 18.7683C16.7713 18.7251 16.6852 18.6622 16.6149 18.5836C16.5446 18.505 16.4916 18.4125 16.4593 18.312C16.4271 18.2116 16.4163 18.1055 16.4277 18.0006C16.5795 16.7299 16.8288 15.4728 17.1735 14.2403C17.9444 11.5016 19.0411 9.85956 20.4262 9.35196C20.5399 9.31056 20.6619 9.29726 20.7819 9.31316C20.9018 9.32906 21.0162 9.37366 21.1152 9.44316C21.2142 9.51266 21.295 9.60506 21.3507 9.71246C21.4065 9.81986 21.4354 9.93906 21.4352 10.0601ZM19.9311 11.6269C19.4422 12.3038 18.991 13.3316 18.615 14.654C18.3723 15.5344 18.1798 16.4278 18.0384 17.3301H19.9311V11.6269Z" fill="#3E4958"/>
</svg>
