<svg width="26" height="26" viewBox="0 0 26 26" fill="none" xmlns="http://www.w3.org/2000/svg">
<path d="M12.9998 3.25C7.0415 3.25 2.1665 7.12833 2.1665 11.9167C2.1937 13.0679 2.47485 14.199 2.98985 15.229C3.50485 16.259 4.24099 17.1625 5.14567 17.875C5.14567 18.525 4.69067 20.2258 2.1665 22.75C4.734 22.6308 7.19317 21.6667 9.17567 20.0417C10.4107 20.3992 11.7107 20.5833 12.9998 20.5833C18.9582 20.5833 23.8332 16.705 23.8332 11.9167C23.8332 7.12833 18.9582 3.25 12.9998 3.25ZM12.9998 18.4167C8.2115 18.4167 4.33317 15.5025 4.33317 11.9167C4.33317 8.33083 8.2115 5.41667 12.9998 5.41667C17.7882 5.41667 21.6665 8.33083 21.6665 11.9167C21.6665 15.5025 17.7882 18.4167 12.9998 18.4167ZM18.4165 13V10.8333H16.2498V13H18.4165ZM14.0832 13V10.8333H11.9165V13H14.0832ZM9.74984 13V10.8333H7.58317V13H9.74984Z" fill="#50b7ed"/>
</svg>
