<svg width="27" height="27" viewBox="0 0 27 27" fill="none" xmlns="http://www.w3.org/2000/svg">
<circle cx="13.5" cy="13.5" r="13.5" fill="#ADAFAF" fill-opacity="0.5"/>
<path fill-rule="evenodd" clip-rule="evenodd" d="M16.89 20.5823C16.6518 20.5823 16.4587 20.3892 16.4587 20.151L16.4587 6.78128C16.4587 6.54309 16.6518 6.35 16.89 6.35C17.1282 6.35 17.3213 6.54309 17.3213 6.78128V10.2313C17.3213 10.2314 17.3213 10.2312 17.3213 10.2313L17.3213 20.151C17.3213 20.3892 17.1282 20.5823 16.89 20.5823Z" fill="white"/>
<path fill-rule="evenodd" clip-rule="evenodd" d="M17.6713 20.151C17.6713 20.5825 17.3215 20.9323 16.89 20.9323C16.4585 20.9323 16.1087 20.5825 16.1087 20.151L16.1087 6.78128C16.1087 6.34979 16.4585 6 16.89 6C17.3215 6 17.6713 6.34979 17.6713 6.78128L17.6713 20.151ZM16.9713 10.2313V6.78128C16.9713 6.73639 16.9349 6.7 16.89 6.7C16.8451 6.7 16.8087 6.73639 16.8087 6.78128L16.8087 20.151C16.8087 20.1959 16.8451 20.2323 16.89 20.2323C16.9349 20.2323 16.9713 20.1959 16.9713 20.151V10.2313ZM17.6685 10.2752C17.67 10.2607 17.671 10.244 17.6712 10.2394L17.6711 10.2422C17.6708 10.2481 17.5234 10.3924 17.3217 10.4043C17.427 10.4102 17.547 10.38 17.6685 10.2752ZM16.9714 10.2205L16.9713 10.224C16.9714 10.2234 16.9713 10.2224 16.9714 10.2205C16.9714 10.2204 16.9714 10.2206 16.9714 10.2205ZM17.3217 10.0583C17.5206 10.0699 17.6669 10.2105 17.671 10.2199C17.6706 10.2131 17.6697 10.1993 17.6685 10.1871C17.5469 10.0824 17.4269 10.0523 17.3217 10.0583Z" fill="white"/>
<path fill-rule="evenodd" clip-rule="evenodd" d="M10.9382 6.56678C11.1764 6.56678 11.3695 6.75987 11.3695 6.99806L11.3695 20.3678C11.3695 20.606 11.1764 20.7991 10.9382 20.7991C10.7 20.7991 10.507 20.606 10.507 20.3678V16.9178C10.507 16.9177 10.507 16.9179 10.507 16.9178L10.507 6.99806C10.507 6.75987 10.7 6.56678 10.9382 6.56678Z" fill="white"/>
<path fill-rule="evenodd" clip-rule="evenodd" d="M10.157 6.99806C10.157 6.56657 10.5068 6.21678 10.9382 6.21678C11.3697 6.21678 11.7195 6.56657 11.7195 6.99806L11.7195 20.3678C11.7195 20.7993 11.3697 21.1491 10.9382 21.1491C10.5067 21.1491 10.157 20.7993 10.157 20.3678L10.157 6.99806ZM10.857 16.9178V20.3678C10.857 20.4127 10.8933 20.4491 10.9382 20.4491C10.9831 20.4491 11.0195 20.4127 11.0195 20.3678L11.0195 6.99806C11.0195 6.95317 10.9831 6.91678 10.9382 6.91678C10.8933 6.91678 10.857 6.95317 10.857 6.99806L10.857 16.9178ZM10.1597 16.8739C10.1582 16.8884 10.1573 16.9051 10.1571 16.9097L10.1571 16.907C10.1574 16.901 10.3048 16.7567 10.5065 16.7448C10.4012 16.7389 10.2812 16.7691 10.1597 16.8739ZM10.8568 16.9286L10.8569 16.9251C10.8569 16.9257 10.8569 16.9267 10.8568 16.9286C10.8568 16.9287 10.8568 16.9285 10.8568 16.9286ZM10.5066 17.0908C10.3076 17.0792 10.1613 16.9387 10.1572 16.9292C10.1576 16.936 10.1585 16.9498 10.1598 16.962C10.2813 17.0667 10.4013 17.0968 10.5066 17.0908Z" fill="white"/>
<path fill-rule="evenodd" clip-rule="evenodd" d="M16.8894 18.4261C17.8422 18.4261 18.6145 17.6537 18.6145 16.7009C18.6145 15.7482 17.8422 14.9758 16.8894 14.9758C15.9366 14.9758 15.1643 15.7482 15.1643 16.7009C15.1643 17.6537 15.9366 18.4261 16.8894 18.4261ZM19.4771 16.7009C19.4771 18.1301 18.3185 19.2886 16.8894 19.2886C15.4603 19.2886 14.3017 18.1301 14.3017 16.7009C14.3017 15.2718 15.4603 14.1132 16.8894 14.1132C18.3185 14.1132 19.4771 15.2718 19.4771 16.7009Z" fill="white"/>
<path fill-rule="evenodd" clip-rule="evenodd" d="M19.8271 16.7009C19.8271 18.3234 18.5118 19.6386 16.8894 19.6386C15.267 19.6386 13.9517 18.3234 13.9517 16.7009C13.9517 15.0785 15.267 13.7632 16.8894 13.7632C18.5118 13.7632 19.8271 15.0785 19.8271 16.7009ZM16.8894 18.9386C18.1252 18.9386 19.1271 17.9368 19.1271 16.7009C19.1271 15.4651 18.1252 14.4632 16.8894 14.4632C15.6536 14.4632 14.6517 15.4651 14.6517 16.7009C14.6517 17.9368 15.6536 18.9386 16.8894 18.9386ZM16.8894 18.0761C17.6489 18.0761 18.2645 17.4604 18.2645 16.7009C18.2645 15.9415 17.6489 15.3258 16.8894 15.3258C16.1299 15.3258 15.5143 15.9415 15.5143 16.7009C15.5143 17.4604 16.1299 18.0761 16.8894 18.0761ZM18.9645 16.7009C18.9645 17.847 18.0355 18.7761 16.8894 18.7761C15.7433 18.7761 14.8143 17.847 14.8143 16.7009C14.8143 15.5549 15.7433 14.6258 16.8894 14.6258C18.0355 14.6258 18.9645 15.5549 18.9645 16.7009Z" fill="white"/>
<path fill-rule="evenodd" clip-rule="evenodd" d="M10.9377 8.72318C9.98493 8.72318 9.21257 9.49555 9.21257 10.4483C9.21257 11.4011 9.98493 12.1734 10.9377 12.1734C11.8905 12.1734 12.6628 11.4011 12.6628 10.4483C12.6628 9.49555 11.8905 8.72318 10.9377 8.72318ZM8.35 10.4483C8.35 9.01916 9.50855 7.86061 10.9377 7.86061C12.3668 7.86061 13.5254 9.01916 13.5254 10.4483C13.5254 11.8775 12.3668 13.036 10.9377 13.036C9.50855 13.036 8.35 11.8775 8.35 10.4483Z" fill="white"/>
<path fill-rule="evenodd" clip-rule="evenodd" d="M8 10.4483C8 8.82586 9.31525 7.51061 10.9377 7.51061C12.5601 7.51061 13.8754 8.82586 13.8754 10.4483C13.8754 12.0708 12.5601 13.386 10.9377 13.386C9.31525 13.386 8 12.0708 8 10.4483ZM10.9377 8.21061C9.70185 8.21061 8.7 9.21246 8.7 10.4483C8.7 11.6842 9.70185 12.686 10.9377 12.686C12.1735 12.686 13.1754 11.6842 13.1754 10.4483C13.1754 9.21246 12.1735 8.21061 10.9377 8.21061ZM10.9377 9.07318C10.1782 9.07318 9.56257 9.68885 9.56257 10.4483C9.56257 11.2078 10.1782 11.8234 10.9377 11.8234C11.6972 11.8234 12.3128 11.2078 12.3128 10.4483C12.3128 9.68885 11.6972 9.07318 10.9377 9.07318ZM8.86257 10.4483C8.86257 9.30225 9.79163 8.37318 10.9377 8.37318C12.0838 8.37318 13.0128 9.30225 13.0128 10.4483C13.0128 11.5944 12.0838 12.5234 10.9377 12.5234C9.79163 12.5234 8.86257 11.5944 8.86257 10.4483Z" fill="white"/>
<path d="M13.3498 10.35C13.3498 11.4546 12.4544 12.35 11.3498 12.35C8.85 13.35 9.3498 11.4546 9.3498 10.35C9.3498 9.24543 10.2452 8.35 11.3498 8.35C12.4544 8.35 13.3498 9.24543 13.3498 10.35Z" fill="white"/>
<path d="M19.35 16.35C19.35 17.4546 17.4546 18.85 16.35 18.85C15.2454 18.85 14.35 17.4546 14.35 16.35C14.35 15.2454 15.2454 14.35 16.35 14.35C17.4546 14.35 19.35 15.2454 19.35 16.35Z" fill="white"/>
</svg>
