<svg width="29" height="33" viewBox="0 0 29 33" fill="none" xmlns="http://www.w3.org/2000/svg">
<path d="M14.1602 28.3204C21.9807 28.3204 28.3204 21.9807 28.3204 14.1602C28.3204 6.33974 21.9807 0 14.1602 0C6.33974 0 0 6.33974 0 14.1602C0 21.9807 6.33974 28.3204 14.1602 28.3204Z" fill="white"/>
<path d="M8.7793 25.4893L14.1602 32.8526V25.4893H8.7793Z" fill="white"/>
<path d="M19.5411 25.4893L14.1602 32.8526V25.4893H19.5411Z" fill="white"/>
<path d="M14.1607 26.0842C20.7464 26.0842 26.0851 20.7454 26.0851 14.1598C26.0851 7.57409 20.7464 2.23535 14.1607 2.23535C7.57506 2.23535 2.23633 7.57409 2.23633 14.1598C2.23633 20.7454 7.57506 26.0842 14.1607 26.0842Z" fill="#ECECEC"/>
<path d="M13.2009 16.1478H11.6039V14.1604H13.2009V12.5043H15.1173V14.1604H16.7143V16.1478H15.1173V17.804H13.2009V16.1478ZM18.6308 11.5106V18.7977C18.6308 19.5264 18.0558 20.1226 17.3532 20.1226H10.9651C10.2624 20.1226 9.6875 19.5264 9.6875 18.7977V11.5106C9.6875 10.7819 10.2624 10.1856 10.9651 10.1856H17.3532C18.0558 10.1856 18.6308 10.7819 18.6308 11.5106ZM17.3532 11.5106H10.9651V18.7977H17.3532V11.5106ZM17.992 8.19824H10.3263V9.52324H17.992V8.19824Z" fill="#3E4958"/>
</svg>
