<svg width="29" height="33" viewBox="0 0 29 33" fill="none" xmlns="http://www.w3.org/2000/svg">
<path d="M14.1602 28.3204C21.9807 28.3204 28.3204 21.9807 28.3204 14.1602C28.3204 6.33974 21.9807 0 14.1602 0C6.33974 0 0 6.33974 0 14.1602C0 21.9807 6.33974 28.3204 14.1602 28.3204Z" fill="white"/>
<path d="M8.7793 25.4893L14.1601 32.8526V25.4893H8.7793Z" fill="white"/>
<path d="M19.5411 25.4893L14.1602 32.8526V25.4893H19.5411Z" fill="white"/>
<path d="M14.1588 26.0861C20.7444 26.0861 26.0832 20.7474 26.0832 14.1617C26.0832 7.57604 20.7444 2.2373 14.1588 2.2373C7.57311 2.2373 2.23438 7.57604 2.23438 14.1617C2.23438 20.7474 7.57311 26.0861 14.1588 26.0861Z" fill="#ECECEC"/>
<path d="M10.9306 11.0699V8.86188C10.9306 8.68618 11.0004 8.51768 11.1246 8.39348C11.2488 8.26928 11.4173 8.19948 11.593 8.19948C11.7687 8.19948 11.9372 8.26928 12.0614 8.39348C12.1856 8.51768 12.2554 8.68618 12.2554 8.86188V11.0699C12.2554 11.2455 12.1856 11.414 12.0614 11.5382C11.9372 11.6625 11.7687 11.7323 11.593 11.7323C11.4173 11.7323 11.2488 11.6625 11.1246 11.5382C11.0004 11.414 10.9306 11.2455 10.9306 11.0699ZM13.5802 8.19948C13.4045 8.19948 13.236 8.26928 13.1118 8.39348C12.9876 8.51768 12.9178 8.68618 12.9178 8.86188V11.5115C12.9178 11.8628 12.7782 12.1998 12.5298 12.4482C12.2813 12.6967 11.9444 12.8362 11.593 12.8362C11.2417 12.8362 10.9047 12.6967 10.6562 12.4482C10.4078 12.1998 10.2682 11.8628 10.2682 11.5115V8.86188C10.2682 8.68618 10.1984 8.51768 10.0742 8.39348C9.94996 8.26928 9.78146 8.19948 9.60576 8.19948C9.43006 8.19948 9.26166 8.26928 9.13736 8.39348C9.01316 8.51768 8.94336 8.68618 8.94336 8.86188V11.5115C8.94496 12.0986 9.14076 12.6687 9.50016 13.133C9.85966 13.5973 10.3626 13.9296 10.9306 14.0782V19.4602C10.9306 19.6359 11.0004 19.8044 11.1246 19.9286C11.2488 20.0528 11.4173 20.1226 11.593 20.1226C11.7687 20.1226 11.9372 20.0528 12.0614 19.9286C12.1856 19.8044 12.2554 19.6359 12.2554 19.4602V14.0782C12.8234 13.9296 13.3264 13.5973 13.6858 13.133C14.0452 12.6687 14.241 12.0986 14.2426 11.5115V8.86188C14.2426 8.68618 14.1728 8.51768 14.0486 8.39348C13.9244 8.26928 13.7559 8.19948 13.5802 8.19948ZM18.8794 8.86188V19.4602C18.8794 19.6359 18.8096 19.8044 18.6854 19.9286C18.5611 20.0528 18.3927 20.1226 18.217 20.1226C18.0413 20.1226 17.8728 20.0528 17.7486 19.9286C17.6244 19.8044 17.5546 19.6359 17.5546 19.4602V16.5898H15.1258C15.0329 16.5896 14.9411 16.5698 14.8563 16.5318C14.7715 16.4938 14.6957 16.4384 14.6338 16.3691C14.5718 16.2999 14.5251 16.2184 14.4967 16.1299C14.4683 16.0415 14.4589 15.948 14.4689 15.8557C14.6026 14.7365 14.8222 13.6292 15.1258 12.5437C15.8048 10.1315 16.7707 8.68518 17.9907 8.23808C18.0908 8.20168 18.1983 8.18998 18.3039 8.20398C18.4096 8.21798 18.5103 8.25718 18.5975 8.31848C18.6847 8.37968 18.7559 8.46098 18.805 8.55558C18.8541 8.65028 18.8796 8.75528 18.8794 8.86188ZM17.5546 10.2419C17.124 10.838 16.7266 11.7433 16.3954 12.908C16.1816 13.6834 16.0121 14.4704 15.8876 15.265H17.5546V10.2419Z" fill="#3E4958"/>
</svg>
