<svg width="29" height="33" viewBox="0 0 29 33" fill="none" xmlns="http://www.w3.org/2000/svg">
<path d="M14.1847 28.3694C22.0187 28.3694 28.3694 22.0187 28.3694 14.1847C28.3694 6.35071 22.0187 0 14.1847 0C6.35071 0 0 6.35071 0 14.1847C0 22.0187 6.35071 28.3694 14.1847 28.3694Z" fill="white"/>
<path d="M8.79492 25.5312L14.1851 32.9072V25.5312H8.79492Z" fill="white"/>
<path d="M19.5757 25.5312L14.1855 32.9072V25.5312H19.5757Z" fill="white"/>
<path d="M14.1872 26.1283C20.7842 26.1283 26.1322 20.7803 26.1322 14.1833C26.1322 7.58624 20.7842 2.23828 14.1872 2.23828C7.59015 2.23828 2.24219 7.58624 2.24219 14.1833C2.24219 20.7803 7.59015 26.1283 14.1872 26.1283Z" fill="#ECECEC"/>
<path d="M11.7954 17.7669C11.1386 17.7669 10.6072 18.3044 10.6072 18.9614C10.6072 19.6184 11.1386 20.1559 11.7954 20.1559C12.4522 20.1559 12.9896 19.6184 12.9896 18.9614C12.9896 18.3044 12.4522 17.7669 11.7954 17.7669ZM17.7663 17.7669C17.1095 17.7669 16.5781 18.3044 16.5781 18.9614C16.5781 19.6184 17.1095 20.1559 17.7663 20.1559C18.4231 20.1559 18.9605 19.6184 18.9605 18.9614C18.9605 18.3044 18.4231 17.7669 17.7663 17.7669ZM16.9005 14.7806C17.3483 14.7806 17.7424 14.5358 17.9454 14.1655L20.083 10.2893C20.1333 10.1988 20.1591 10.0967 20.1579 9.99314C20.1566 9.88954 20.1284 9.78814 20.0759 9.69884C20.0234 9.60954 19.9485 9.53544 19.8587 9.48404C19.7688 9.43254 19.6671 9.40544 19.5635 9.40544H10.7266L10.1654 8.21094H8.21289V9.40544H9.40709L11.5566 13.9385L10.7505 15.3958C10.3147 16.1961 10.8879 17.1696 11.7954 17.1696H18.9605V15.9751H11.7954L12.4522 14.7806H16.9005ZM11.2939 10.5999H18.5485L16.9005 13.5861H12.709L11.2939 10.5999Z" fill="#3E4958"/>
</svg>
