<svg width="27" height="27" viewBox="0 0 27 27" fill="none" xmlns="http://www.w3.org/2000/svg">
<circle cx="13.5" cy="13.5" r="13.5" fill="#50b7ed"/>
<path d="M13.9652 7.44824C14.6134 7.44824 15.2351 7.73237 15.6934 8.23811C16.1517 8.74386 16.4092 9.4298 16.4092 10.145C16.4092 10.8603 16.1517 11.5462 15.6934 12.0519C15.2351 12.5577 14.6134 12.8418 13.9652 12.8418C13.3171 12.8418 12.6954 12.5577 12.2371 12.0519C11.7788 11.5462 11.5213 10.8603 11.5213 10.145C11.5213 9.4298 11.7788 8.74386 12.2371 8.23811C12.6954 7.73237 13.3171 7.44824 13.9652 7.44824ZM9.07732 9.37452C9.46835 9.37452 9.83146 9.4901 10.1457 9.69814C10.0409 10.8 10.3342 11.8941 10.9347 12.7494C10.5856 13.4891 9.88732 13.9976 9.07732 13.9976C8.52173 13.9976 7.98891 13.7541 7.59605 13.3206C7.20319 12.8871 6.98249 12.2991 6.98249 11.6861C6.98249 11.073 7.20319 10.485 7.59605 10.0516C7.98891 9.61806 8.52173 9.37452 9.07732 9.37452ZM18.8532 9.37452C19.4088 9.37452 19.9416 9.61806 20.3344 10.0516C20.7273 10.485 20.948 11.073 20.948 11.6861C20.948 12.2991 20.7273 12.8871 20.3344 13.3206C19.9416 13.7541 19.4088 13.9976 18.8532 13.9976C18.0432 13.9976 17.3449 13.4891 16.9958 12.7494C17.6046 11.8821 17.8872 10.7893 17.7848 9.69814C18.099 9.4901 18.4621 9.37452 18.8532 9.37452ZM9.42646 17.2723C9.42646 15.6773 11.4584 14.3828 13.9652 14.3828C16.4721 14.3828 18.504 15.6773 18.504 17.2723V18.6207H9.42646V17.2723ZM5.58594 18.6207V17.4649C5.58594 16.3939 6.90568 15.4924 8.69327 15.2304C8.28128 15.7544 8.0299 16.4786 8.0299 17.2723V18.6207H5.58594ZM22.3446 18.6207H19.9006V17.2723C19.9006 16.4786 19.6492 15.7544 19.2372 15.2304C21.0248 15.4924 22.3446 16.3939 22.3446 17.4649V18.6207Z" fill="white"/>
</svg>
