<svg width="29" height="34" viewBox="0 0 29 34" fill="none" xmlns="http://www.w3.org/2000/svg">
<path d="M14.2852 28.5704C22.1747 28.5704 28.5704 22.1747 28.5704 14.2852C28.5704 6.3957 22.1747 0 14.2852 0C6.3957 0 0 6.3957 0 14.2852C0 22.1747 6.3957 28.5704 14.2852 28.5704Z" fill="white"/>
<path d="M8.85742 25.7129L14.2858 33.1412V25.7129H8.85742Z" fill="white"/>
<path d="M19.7135 25.7129L14.2852 33.1412V25.7129H19.7135Z" fill="white"/>
<path d="M14.2855 26.3141C20.9292 26.3141 26.3151 20.9282 26.3151 14.2845C26.3151 7.64072 20.9292 2.25488 14.2855 2.25488C7.64169 2.25488 2.25586 7.64072 2.25586 14.2845C2.25586 20.9282 7.64169 26.3141 14.2855 26.3141Z" fill="#ECECEC"/>
</svg>
