<svg width="23" height="24" viewBox="0 0 23 24" fill="none" xmlns="http://www.w3.org/2000/svg">
<path d="M16.3267 17.6H16.4267V17.5V14.3203V14.2894L16.4093 14.264C15.9101 13.5323 15.3153 12.8946 14.6251 12.3511C13.9868 11.8486 13.2919 11.4451 12.5406 11.1408C12.8994 10.904 13.2172 10.6366 13.4936 10.3385C13.8107 9.9964 14.0873 9.62158 14.3232 9.21417C14.56 8.8052 14.7376 8.37062 14.856 7.91067C14.9742 7.45123 15.0333 6.98094 15.0333 6.5C15.0333 5.72776 14.8856 4.99809 14.5897 4.31197C14.2945 3.62717 13.888 3.0325 13.3702 2.52891C12.8531 2.02584 12.2512 1.62876 11.5653 1.33764C10.8774 1.04568 10.142 0.9 9.36 0.9C8.57801 0.9 7.8391 1.04568 7.1442 1.33749C6.45061 1.62875 5.84815 2.02976 5.33784 2.54066C4.82806 3.05103 4.42555 3.64518 4.13041 4.32235C3.83439 5.00153 3.68667 5.72777 3.68666 6.5L3.68667 6.50074C3.69405 7.49084 3.93032 8.39581 4.39646 9.21358C4.83116 9.97622 5.42673 10.6175 6.18158 11.1372C5.41808 11.4344 4.72939 11.8285 4.11605 12.3194C3.45579 12.8479 2.88333 13.4526 2.39894 14.1334C1.91393 14.8151 1.54284 15.5585 1.28573 16.3631C1.0285 17.1682 0.9 18.0056 0.9 18.875V18.975H1H2.39333H2.49333V18.875C2.49333 18.2537 2.57559 17.6542 2.73989 17.0762C2.90447 16.4971 3.13688 15.9574 3.43702 15.4567C3.73761 14.9552 4.09544 14.4962 4.51064 14.0794C4.92523 13.6632 5.38614 13.3106 5.89352 13.0215C6.40129 12.7321 6.94873 12.506 7.53616 12.3434C8.12224 12.1812 8.73009 12.1 9.36 12.1C10.1761 12.1 10.9556 12.2342 11.6991 12.5023C12.4437 12.7708 13.1124 13.1449 13.7057 13.6246C14.2992 14.1045 14.8035 14.6761 15.2186 15.3401C15.6331 16.003 15.9227 16.7295 16.0873 17.5204L16.1038 17.6H16.1852H16.3267ZM13.44 6.5L13.44 6.50127C13.4471 7.06028 13.341 7.58292 13.1222 8.07039C12.9021 8.56082 12.6079 8.98731 12.2397 9.3507C11.8717 9.71384 11.4398 10.0005 10.943 10.2106C10.4478 10.4201 9.92045 10.525 9.36 10.525C8.79211 10.525 8.26116 10.42 7.76614 10.2106C7.26974 10.0007 6.83801 9.7107 6.47008 9.34063C6.10146 8.96986 5.81087 8.54327 5.59807 8.06027C5.3863 7.5796 5.28 7.0599 5.28 6.5C5.28 5.9548 5.38616 5.43467 5.59849 4.93877C5.81115 4.4421 6.10485 4.01282 6.47961 3.64997C6.85533 3.28619 7.28775 2.9993 7.7775 2.78916C8.26497 2.58001 8.7921 2.475 9.36 2.47501L9.36127 2.47499C9.9134 2.46801 10.4401 2.5727 10.9424 2.7891C11.4469 3.00648 11.8826 3.29688 12.2506 3.66004C12.6186 4.02318 12.9089 4.4493 13.1217 4.93925C13.3338 5.42754 13.44 5.94746 13.44 6.5ZM22 18.875V18.775H21.9H19.2133V16.125V16.025H19.1133H17.72H17.62V16.125V18.775H14.9333H14.8333V18.875V20.25V20.35H14.9333H17.62V23V23.1H17.72H19.1133H19.2133V23V20.35H21.9H22V20.25V18.875Z" fill="#50b7ed" stroke="#50b7ed" stroke-width="0.2"/>
</svg>
