<svg xmlns="http://www.w3.org/2000/svg" xmlns:xlink="http://www.w3.org/1999/xlink" width="258.531" height="194.946" viewBox="0 0 258.531 194.946">
  <defs>
    <linearGradient id="linear-gradient" x1="0.329" y1="0.554" x2="-0.255" y2="0.738" gradientUnits="objectBoundingBox">
      <stop offset="0" stop-color="#fcb148"/>
      <stop offset="0.052" stop-color="#fdb946"/>
      <stop offset="0.142" stop-color="#fec144"/>
      <stop offset="0.318" stop-color="#ffc444"/>
      <stop offset="0.485" stop-color="#fdb946"/>
      <stop offset="0.775" stop-color="#f99c4c"/>
      <stop offset="0.866" stop-color="#f8924f"/>
      <stop offset="1" stop-color="#f8924f"/>
    </linearGradient>
    <linearGradient id="linear-gradient-2" x1="0.727" y1="0.007" x2="0.207" y2="1.135" gradientUnits="objectBoundingBox">
      <stop offset="0" stop-color="#ffdb44"/>
      <stop offset="1" stop-color="#feef06"/>
    </linearGradient>
    <linearGradient id="linear-gradient-3" x1="0.636" y1="1.231" x2="0.531" y2="0.666" xlink:href="#linear-gradient"/>
    <linearGradient id="linear-gradient-4" x1="0.409" y1="0.31" x2="0.858" y2="1.247" xlink:href="#linear-gradient"/>
    <linearGradient id="linear-gradient-5" x1="0.253" y1="0.019" x2="0.711" y2="1.039" xlink:href="#linear-gradient-2"/>
    <linearGradient id="linear-gradient-6" x1="0.464" y1="0.369" x2="1.215" y2="1.306" xlink:href="#linear-gradient"/>
  </defs>
  <g id="illustration" transform="translate(-103.088 -56.063)">
    <g id="Group_6776" data-name="Group 6776" transform="translate(174.817 203.606)">
      <g id="Group_6774" data-name="Group 6774" transform="translate(57.062)">
        <path id="Path_11094" data-name="Path 11094" d="M437.691,322.581H387.237a.257.257,0,0,1,0-.515h50.453a.257.257,0,0,1,0,.515Z" transform="translate(-386.98 -322.066)" fill="#fff"/>
        <path id="Path_11095" data-name="Path 11095" d="M445.072,345.585H402.446a.257.257,0,0,1,0-.515h42.626a.257.257,0,0,1,0,.515Z" transform="translate(-394.362 -333.231)" fill="#fff"/>
        <path id="Path_11096" data-name="Path 11096" d="M456.02,334.811H425a.257.257,0,0,1,0-.515H456.02a.257.257,0,1,1,0,.515Z" transform="translate(-405.31 -328.002)" fill="#fff"/>
        <path id="Path_11097" data-name="Path 11097" d="M402.8,334.811H387.237a.257.257,0,1,1,0-.515H402.8a.257.257,0,1,1,0,.515Z" transform="translate(-386.98 -328.002)" fill="#fff"/>
      </g>
      <g id="Group_6775" data-name="Group 6775" transform="translate(0 18.779)">
        <path id="Path_11098" data-name="Path 11098" d="M326.813,359.071H276.359a.257.257,0,1,1,0-.515h50.453a.257.257,0,1,1,0,.515Z" transform="translate(-276.102 -358.556)" fill="#fff"/>
        <path id="Path_11099" data-name="Path 11099" d="M318.985,382.074H276.359a.257.257,0,1,1,0-.515h42.626a.257.257,0,0,1,0,.515Z" transform="translate(-276.102 -369.721)" fill="#fff"/>
        <path id="Path_11100" data-name="Path 11100" d="M307.377,371.3H276.359a.257.257,0,1,1,0-.515h31.018a.257.257,0,0,1,0,.515Z" transform="translate(-276.102 -364.491)" fill="#fff"/>
        <path id="Path_11101" data-name="Path 11101" d="M359.714,371.3H344.146a.257.257,0,0,1,0-.515h15.567a.257.257,0,1,1,0,.515Z" transform="translate(-309.003 -364.491)" fill="#fff"/>
      </g>
    </g>
    <g id="Group_6798" data-name="Group 6798" transform="translate(238.252 112.1)">
      <g id="Group_6782" data-name="Group 6782" transform="translate(0 8.08)">
        <g id="Group_6781" data-name="Group 6781">
          <g id="Group_6780" data-name="Group 6780">
            <g id="Group_6778" data-name="Group 6778">
              <path id="Path_11102" data-name="Path 11102" d="M424.677,214.865l.017-.059,7.451-25.92-.032-.025a9.312,9.312,0,0,1,2.981-3.3,8.629,8.629,0,0,0,3.439-5.692c1.64-1.587,3.489-2.942,5.163-4.493a1.189,1.189,0,0,0,.408-.572,1,1,0,0,0-.212-.745,2.958,2.958,0,0,0-3.774-.874A9.228,9.228,0,0,0,438,174.564,10.524,10.524,0,0,0,436.326,176l5.927-12.655a2.108,2.108,0,0,0-.765-2.85h0a1.762,1.762,0,0,0-1.5.03,2.384,2.384,0,0,0-.824.657l.029-.148c-6.942-5.837-15.507,14.031-15.507,14.031l-2.431,5.736L400.64,219.025a11.107,11.107,0,0,0,4.964,15.15h0c.081.04.163.074.244.112a11.2,11.2,0,0,0,5.615,1.5h40.574l8.743-20.78Zm11.56-38.677Z" transform="translate(-399.362 -159.959)" fill="#fec29e"/>
              <g id="Group_6777" data-name="Group 6777" transform="translate(17.646 54.847)">
                <path id="Path_11103" data-name="Path 11103" d="M445.311,274.512l-1.039,3.613C444.649,276.876,445,275.652,445.311,274.512Z" transform="translate(-438.806 -270.405)" fill="none"/>
                <path id="Path_11104" data-name="Path 11104" d="M434.37,307.266Z" transform="translate(-433.651 -286.292)" fill="#ff887c" opacity="0.17"/>
                <path id="Path_11105" data-name="Path 11105" d="M435.063,307.287l.332.01Z" transform="translate(-434.336 -286.313)" fill="#ff887c" opacity="0.17"/>
                <path id="Path_11106" data-name="Path 11106" d="M442.335,266.532l-1.181,4.107c-.307,1.14-.661,2.364-1.039,3.613l-1.427,4.963a11.187,11.187,0,0,1-.74,1.81c-1.228,3.674-2.241,6.491-2.241,6.491L450.3,266.623C446.671,266.623,445.838,266.536,442.335,266.532Z" transform="translate(-434.65 -266.532)" fill="#ff887c" opacity="0.17"/>
                <path id="Path_11107" data-name="Path 11107" d="M435.049,307.287h0Z" transform="translate(-434.33 -286.313)" fill="#ff887c" opacity="0.17"/>
              </g>
              <path id="Path_11108" data-name="Path 11108" d="M459.756,191.247a.257.257,0,0,1-.207-.41,4.715,4.715,0,0,1,6.105-1.595.257.257,0,0,1-.252.449,4.15,4.15,0,0,0-5.44,1.452A.255.255,0,0,1,459.756,191.247Z" transform="translate(-428.55 -173.915)" fill="#fb8e77"/>
              <path id="Path_11109" data-name="Path 11109" d="M472.1,162a39.277,39.277,0,0,0-2.947,4.24,19.218,19.218,0,0,0-1.171,2.28,5.616,5.616,0,0,0-.551,2.4v.016a.257.257,0,0,1-.514.028v-.006a6.028,6.028,0,0,1,.639-2.615,19.649,19.649,0,0,1,1.244-2.311,39.7,39.7,0,0,1,3.062-4.223.154.154,0,0,1,.239.193Z" transform="translate(-432.151 -160.827)" fill="#fb8e77"/>
              <path id="Path_11110" data-name="Path 11110" d="M468.116,160.527a9.67,9.67,0,0,0-1.834,1.729,15.38,15.38,0,0,0-1.458,2.086,18.529,18.529,0,0,0-1.113,2.292c-.168.391-.294.8-.443,1.2l-.369,1.222,0,.015a.257.257,0,0,1-.493-.149l0,0,.4-1.242c.16-.4.3-.819.476-1.216a18.867,18.867,0,0,1,1.185-2.327A15.759,15.759,0,0,1,466,162.017a9.951,9.951,0,0,1,1.948-1.763.16.16,0,0,1,.179.265Z" transform="translate(-429.955 -160.089)" fill="#fb8e77"/>
              <path id="Path_11111" data-name="Path 11111" d="M463.422,160.95a25.083,25.083,0,0,0-2.695,3.33,14.27,14.27,0,0,0-1.062,1.843,7.54,7.54,0,0,0-.649,1.977v.006a.257.257,0,0,1-.508-.08v-.006a8.005,8.005,0,0,1,.744-2.1,14.749,14.749,0,0,1,1.14-1.871,25.368,25.368,0,0,1,2.82-3.313.15.15,0,0,1,.215.209Z" transform="translate(-428.067 -160.315)" fill="#fb8e77"/>
            </g>
            <g id="Group_6779" data-name="Group 6779" transform="translate(36.221 54.83)">
              <path id="Path_11112" data-name="Path 11112" d="M552.482,304.318l-9.953-27.13c-1.185-5.953-6.848-10.466-13.662-10.466l-27.8-.221-31.322.119V287.5h9.721l-5.017,54.462,68.973.39-.386-36.879Z" transform="translate(-469.743 -266.5)" fill="#222"/>
              <path id="Path_11113" data-name="Path 11113" d="M497.381,337.332" transform="translate(-483.157 -300.879)" fill="none" stroke="#fb8e77" stroke-linecap="round" stroke-width="1"/>
            </g>
            <path id="Path_11114" data-name="Path 11114" d="M501.011,266.733l.055-.233-31.322.119V287.5h9.721l.051-.551C479.514,275.929,489.1,266.974,501.011,266.733Z" transform="translate(-433.522 -211.67)" fill="#1b1b25" opacity="0.05"/>
            <path id="Path_11115" data-name="Path 11115" d="M453.584,208.238s1.758,14.932,1.861,14.573l3.016-10.492Z" transform="translate(-425.679 -183.392)" fill="#ff887c" opacity="0.18"/>
          </g>
        </g>
      </g>
      <g id="Group_6785" data-name="Group 6785" transform="translate(49.71 83.223)">
        <g id="Group_6783" data-name="Group 6783">
          <path id="Path_11116" data-name="Path 11116" d="M515.205,331.27,512.573,318l-2.031-10.236a2.238,2.238,0,0,0-2.624-1.754l-10.167,2.017A2.238,2.238,0,0,0,496,310.653l2.044,10.3,1.622,8.171,1,5.029a2.239,2.239,0,0,0,2.624,1.755l6.005-1.191,4.162-.826A2.239,2.239,0,0,0,515.205,331.27Z" transform="translate(-495.954 -305.97)" fill="#fafafc"/>
        </g>
        <g id="Group_6784" data-name="Group 6784" transform="translate(0.434 12.033)">
          <path id="Path_11117" data-name="Path 11117" d="M569.733,354.844l-4.585-19.964L544.3,337.43l1.145,5.078-.106-.026-22.66-5.61-.019.028a7.589,7.589,0,0,1-2.833-2.6,6.782,6.782,0,0,0-5.092-2.917c-.615-.644-1.188-1.333-1.754-2.028l.531,2.676-.133.07a8.583,8.583,0,0,1-4.691.975l-9.963-.778a1.517,1.517,0,0,0-1.49.848c-2.916,6.13,9.605,11.739,12.463,12.925h0l.1.041.117.048.109.044.091.037.085.033.033.013.042.016,4.9,1.837,38.8,19.1a11.238,11.238,0,0,0,1.092.454,9.682,9.682,0,0,0,6.219.643h0A11.253,11.253,0,0,0,569.733,354.844Z" transform="translate(-496.798 -329.351)" fill="#fec29e"/>
          <path id="Path_11118" data-name="Path 11118" d="M613.057,356.028,589.1,345.05c.8,3.484.334,1.946,1.039,5.052l1.63.4C598.671,350.971,613.057,356.028,613.057,356.028Z" transform="translate(-541.6 -336.971)" fill="#ff887c" opacity="0.17"/>
        </g>
        <path id="Path_11119" data-name="Path 11119" d="M582.279,331.393a.257.257,0,0,1-.252-.205l-2.993-14.5a.257.257,0,0,1,.5-.1l2.945,14.263,10.079-1.282a.257.257,0,1,1,.065.511l-10.316,1.313Z" transform="translate(-536.276 -311.023)" fill="#1b1b25" opacity="0.35"/>
      </g>
      <g id="Group_6786" data-name="Group 6786" transform="translate(121.601 114.313)">
        <path id="Path_11120" data-name="Path 11120" d="M635.963,367.984l.041.205Z" transform="translate(-635.8 -367.159)" fill="#ff887c" opacity="0.17"/>
        <path id="Path_11121" data-name="Path 11121" d="M636.042,368.383Z" transform="translate(-635.838 -367.353)" fill="#ff887c" opacity="0.17"/>
        <path id="Path_11122" data-name="Path 11122" d="M635.646,366.381s.056.28.109.55Z" transform="translate(-635.646 -366.381)" fill="#ff887c" opacity="0.17"/>
        <path id="Path_11123" data-name="Path 11123" d="M635.857,367.45l.055.275Z" transform="translate(-635.748 -366.9)" fill="#ff887c" opacity="0.17"/>
      </g>
      <g id="Group_6797" data-name="Group 6797" transform="translate(56.099 0)">
        <g id="Group_6788" data-name="Group 6788">
          <path id="Path_11124" data-name="Path 11124" d="M545.623,153.642a8.2,8.2,0,0,0-12.257-5.91,7.22,7.22,0,0,0-11.2-1.434A9.531,9.531,0,0,0,511.6,161.974l-1.938,10.354a5.474,5.474,0,0,0,4.374,6.389l22.965,4.3a5.475,5.475,0,0,0,6.389-4.374l3.763-20.1A5.469,5.469,0,0,0,545.623,153.642Z" transform="translate(-508.368 -144.259)" fill="#1b1b25"/>
          <g id="Group_6787" data-name="Group 6787" transform="translate(2.073 4.18)">
            <path id="Path_11125" data-name="Path 11125" d="M514.105,163.246a.259.259,0,0,1-.218-.12,7.721,7.721,0,0,1,1.606-10.7.257.257,0,0,1,.3.418c-.219.158-5.31,3.927-1.47,10a.257.257,0,0,1-.218.395Z" transform="translate(-512.395 -152.382)" fill="#fcf0e3"/>
          </g>
        </g>
        <g id="Group_6790" data-name="Group 6790" transform="translate(0.602 17.363)">
          <g id="Group_6789" data-name="Group 6789">
            <path id="Path_11126" data-name="Path 11126" d="M542.476,190.314l-.5-.094-5.07-10.9a8.205,8.205,0,0,1-3.43-1.326,6.173,6.173,0,0,1-8.715.366,9.521,9.521,0,0,1-11.51.811l-3.532,18.864a10.389,10.389,0,0,0,1.309,7.27,10.553,10.553,0,0,0,7.426,6.341v12.457a7.891,7.891,0,0,0,7.868,7.868H528.8a7.891,7.891,0,0,0,7.868-7.868V209.963a10.508,10.508,0,0,0,2.574-5.157l.645-3.444.5.094a5.53,5.53,0,0,0,6.434-4.4l.057-.3A5.529,5.529,0,0,0,542.476,190.314Z" transform="translate(-509.539 -177.998)" fill="#fec29e"/>
          </g>
          <path id="Path_11127" data-name="Path 11127" d="M540.123,222.547l-.46,2.457a10.443,10.443,0,0,1-12.186,8.343l-8.014-1.5a10.4,10.4,0,0,1-7.034-4.915,10.558,10.558,0,0,0,7.855,6.444l.32.06a7.885,7.885,0,0,0,7.083,4.475H530.2a7.893,7.893,0,0,0,7.654-6.083,10.516,10.516,0,0,0,2.791-5.4l.645-3.444Z" transform="translate(-510.942 -199.62)" fill="#ff887c" opacity="0.32"/>
        </g>
        <g id="Group_6796" data-name="Group 6796" transform="translate(2.117 24.127)">
          <path id="Path_11128" data-name="Path 11128" d="M572.265,212.138a.258.258,0,0,1-.157-.054l-2-1.554a.259.259,0,0,1-.1-.191.256.256,0,0,1,.08-.2l2.469-2.331a.257.257,0,0,1,.353.375l-2.251,2.124,1.765,1.37a.257.257,0,0,1-.158.461Z" transform="translate(-540.401 -199.196)" fill="#fb8e77"/>
          <g id="Group_6795" data-name="Group 6795" transform="translate(0)">
            <g id="Group_6794" data-name="Group 6794" transform="translate(2.479)">
              <g id="Group_6793" data-name="Group 6793">
                <g id="Group_6791" data-name="Group 6791" transform="translate(11.879)">
                  <path id="Path_11129" data-name="Path 11129" d="M545.152,194.506a3.05,3.05,0,0,1-1.182-.45c-.4-.214-.8-.419-1.155-.585s-.774-.344-1.192-.509a3.026,3.026,0,0,1-1.1-.615c-.246-.273-.2-.7.378-.989a3.489,3.489,0,0,1,2.848.2,3.384,3.384,0,0,1,1.951,2.042C545.832,194.213,545.523,194.521,545.152,194.506Z" transform="translate(-540.38 -191.14)" fill="#1b1b25"/>
                </g>
                <g id="Group_6792" data-name="Group 6792" transform="translate(0 0.425)">
                  <path id="Path_11130" data-name="Path 11130" d="M517.575,193.5a3.422,3.422,0,0,0,1.238.256c.448.039.9.087,1.287.143s.837.131,1.278.217a3.407,3.407,0,0,0,1.258.094c.352-.079.537-.42.2-.918a3.735,3.735,0,0,0-2.515-1.271,3.59,3.59,0,0,0-2.728.537C517.153,192.942,517.252,193.323,517.575,193.5Z" transform="translate(-517.297 -191.966)" fill="#1b1b25"/>
                </g>
              </g>
            </g>
            <rect id="Rectangle_1039" data-name="Rectangle 1039" width="1.309" height="2.103" rx="0.655" transform="matrix(-0.983, -0.184, 0.184, -0.983, 16.006, 7.889)" fill="#1b1b25"/>
            <rect id="Rectangle_1040" data-name="Rectangle 1040" width="1.309" height="2.103" rx="0.655" transform="matrix(-0.983, -0.184, 0.184, -0.983, 4.913, 6.086)" fill="#1b1b25"/>
            <path id="Rectangle_1041" data-name="Rectangle 1041" d="M.81,0H3.058a.811.811,0,0,1,.811.811v0a.81.81,0,0,1-.81.81H.811A.811.811,0,0,1,0,.81v0A.81.81,0,0,1,.81,0Z" transform="translate(18.864 11.058) rotate(-173.583)" fill="#ff887c" opacity="0.17"/>
            <path id="Rectangle_1042" data-name="Rectangle 1042" d="M.811,0H3.059a.81.81,0,0,1,.81.81v0a.811.811,0,0,1-.811.811H.81A.81.81,0,0,1,0,.811v0A.811.811,0,0,1,.811,0Z" transform="matrix(-0.994, -0.112, 0.112, -0.994, 3.845, 8.693)" fill="#ff887c" opacity="0.17"/>
            <path id="Path_11131" data-name="Path 11131" d="M526.657,229.146a.258.258,0,0,1-.152-.465,2.433,2.433,0,0,1,2.775,0,.257.257,0,0,1-.295.422,1.93,1.93,0,0,0-2.176,0A.257.257,0,0,1,526.657,229.146Z" transform="translate(-519.236 -209.147)" fill="#fb8e77"/>
            <path id="Path_11132" data-name="Path 11132" d="M530.281,214.976l6.019-.86-.659,2.09a3.215,3.215,0,0,1-3.066,2.248h0a2.136,2.136,0,0,1-2.124-1.908Z" transform="translate(-521.12 -202.292)" fill="#fff"/>
            <path id="Path_11133" data-name="Path 11133" d="M529.63,202.628a.259.259,0,0,1-.065-.009l-1.866-.485a2.625,2.625,0,0,1-1.634-3.815l2.841-5.115a.257.257,0,1,1,.45.25l-2.841,5.115a2.11,2.11,0,0,0,1.313,3.067l1.866.486a.257.257,0,0,1-.065.506Z" transform="translate(-518.913 -192.077)" fill="#fb8e77"/>
          </g>
        </g>
      </g>
    </g>
    <g id="Group_6817" data-name="Group 6817" transform="translate(103.088 124.668)">
      <g id="Group_6802" data-name="Group 6802" transform="translate(3.989 0)">
        <g id="Group_6801" data-name="Group 6801">
          <g id="Group_6799" data-name="Group 6799" transform="translate(69.234)">
            <path id="Path_11134" data-name="Path 11134" d="M322.48,227.832l-20.617-38.226-2.431-5.736s-8.565-19.868-15.507-14.03l.029.147a2.382,2.382,0,0,0-.824-.656,1.761,1.761,0,0,0-1.5-.03h0a2.108,2.108,0,0,0-.765,2.85l5.927,12.655a10.469,10.469,0,0,0-1.676-1.434A9.193,9.193,0,0,0,283,181.989a2.957,2.957,0,0,0-3.774.874,1,1,0,0,0-.212.745,1.19,1.19,0,0,0,.408.572c1.675,1.551,3.523,2.905,5.164,4.493a8.625,8.625,0,0,0,3.438,5.692,9.312,9.312,0,0,1,2.981,3.3l-.032.024,7.467,25.979-10.906.146V244.6h24.119a11.193,11.193,0,0,0,5.622-1.506c.079-.037.159-.07.238-.108h0A11.106,11.106,0,0,0,322.48,227.832Z" transform="translate(-279.003 -168.722)" fill="#fec29e"/>
            <path id="Path_11135" data-name="Path 11135" d="M315.89,296.322h0s-5.6-15.078-6.567-20.984c-3.714,0-4.278.165-7.992.165Z" transform="translate(-289.84 -220.448)" fill="#ff887c" opacity="0.17"/>
            <path id="Path_11136" data-name="Path 11136" d="M299.644,200.053a.256.256,0,0,1-.207-.1A4.148,4.148,0,0,0,294,198.5a.257.257,0,0,1-.252-.449,4.717,4.717,0,0,1,6.1,1.595.258.258,0,0,1-.054.36A.255.255,0,0,1,299.644,200.053Z" transform="translate(-286.095 -182.678)" fill="#fb8e77"/>
            <path id="Path_11137" data-name="Path 11137" d="M288.531,170.6a21.648,21.648,0,0,1,1.733,1.976,21.4,21.4,0,0,1,1.491,2.167,15.876,15.876,0,0,1,1.153,2.379,10.125,10.125,0,0,1,.578,2.607.257.257,0,1,1-.513.04v-.014a9.677,9.677,0,0,0-.5-2.477,15.431,15.431,0,0,0-1.072-2.329,21.15,21.15,0,0,0-1.421-2.154,21.415,21.415,0,0,0-1.664-1.976l0,0a.154.154,0,0,1,.219-.215Z" transform="translate(-283.5 -169.59)" fill="#fb8e77"/>
            <path id="Path_11138" data-name="Path 11138" d="M291.94,168.7a6.78,6.78,0,0,1,2.029,1.759,13.939,13.939,0,0,1,1.48,2.2,22.843,22.843,0,0,1,1.14,2.39l.468,1.237.416,1.255a.257.257,0,1,1-.488.162v0l0-.012-.386-1.242-.437-1.225a22.2,22.2,0,0,0-1.074-2.362,13.54,13.54,0,0,0-1.4-2.172,6.554,6.554,0,0,0-1.868-1.7l-.024-.013a.159.159,0,0,1,.149-.281Z" transform="translate(-285.169 -168.682)" fill="#fb8e77"/>
            <path id="Path_11139" data-name="Path 11139" d="M297.422,169.531a12.826,12.826,0,0,1,1.572,1.532,14.812,14.812,0,0,1,1.322,1.747,13.963,13.963,0,0,1,1.059,1.923,14.455,14.455,0,0,1,.759,2.067.257.257,0,0,1-.493.148l0,0,0-.013a13.912,13.912,0,0,0-.683-2.011,13.445,13.445,0,0,0-.981-1.891,14.452,14.452,0,0,0-1.246-1.735,12.525,12.525,0,0,0-1.488-1.525l-.006-.006a.15.15,0,0,1,.191-.231Z" transform="translate(-287.824 -169.078)" fill="#fb8e77"/>
            <path id="Path_11140" data-name="Path 11140" d="M300.463,221.189l7.967-.983-4.927,9.8S302.037,222.718,300.463,221.189Z" transform="translate(-289.419 -193.689)" fill="#ff887c" opacity="0.18"/>
          </g>
          <g id="Group_6800" data-name="Group 6800" transform="translate(0 54.993)">
            <path id="Path_11141" data-name="Path 11141" d="M192.736,275.64l0,.009c-.123,0-.245-.009-.368-.009H167.195A12.785,12.785,0,0,0,155.24,283.9h0l-.038.1-.019.05-10.707,29.186,9.94,1.216v32.411h54.095l4.045-50.445h9.41V275.539Z" transform="translate(-144.474 -275.539)" fill="#50b7ed"/>
            <path id="Path_11142" data-name="Path 11142" d="M268.483,275.539l-28.739.119v0a20.226,20.226,0,0,1,19.373,20.207l-.044.551h9.41Z" transform="translate(-190.714 -275.539)" fill="#1b1b25" opacity="0.05"/>
            <path id="Path_11143" data-name="Path 11143" d="M278.149,346.139" transform="translate(-209.355 -309.805)" fill="none" stroke="#fb8e77" stroke-linecap="round" stroke-width="1"/>
          </g>
        </g>
      </g>
      <g id="Group_6805" data-name="Group 6805" transform="translate(0 75.186)">
        <path id="Path_11144" data-name="Path 11144" d="M259.582,316.836l-10.167-2.017a2.238,2.238,0,0,0-2.624,1.755l-2.031,10.236-2.632,13.266a2.238,2.238,0,0,0,1.755,2.624l4.162.826,6.005,1.191a2.238,2.238,0,0,0,2.623-1.754l1-5.029,1.621-8.171,2.044-10.3A2.238,2.238,0,0,0,259.582,316.836Z" transform="translate(-187.862 -314.776)" fill="#1b1b25"/>
        <g id="Group_6804" data-name="Group 6804" transform="translate(0 4.303)">
          <path id="Path_11145" data-name="Path 11145" d="M209.509,341.845a1.478,1.478,0,0,0-.57-.625c-.043-.064-.078-.128-.125-.191l-.243.03a1.528,1.528,0,0,0-.553-.061l-9.963.778a8.585,8.585,0,0,1-4.691-.975l-.241-.128.5-2.515c-.538.659-1.084,1.31-1.663,1.926a6.964,6.964,0,0,0-3.541,1.336,6.39,6.39,0,0,0-1.642,1.683,8.138,8.138,0,0,1-1.842,1.978,6.351,6.351,0,0,1-.851.522l-.02-.028-22.662,5.61-.1.026,1.15-5.1L141.6,343.583l-4.585,19.964a11.252,11.252,0,0,0,8.449,13.486h0a9.677,9.677,0,0,0,6.219-.642,11.324,11.324,0,0,0,1.093-.454l38.358-18.881,5.2-1.949s.21-.081.578-.234l-.076-.015C199.2,353.892,212.5,348.143,209.509,341.845Z" transform="translate(-136.723 -330.428)" fill="#fec29e"/>
          <g id="Group_6803" data-name="Group 6803" transform="translate(1.421 15.785)">
            <path id="Path_11146" data-name="Path 11146" d="M139.535,376.756c-.021.109-.034.176-.041.206Z" transform="translate(-139.489 -364.947)" fill="#ff887c" opacity="0.17"/>
            <path id="Path_11147" data-name="Path 11147" d="M162.8,358.886c.47-2.16.333-1.974,1.046-5.076l-23.957,11s2.374-.715,5.65-1.584c.3-.111.614-.214.934-.3Z" transform="translate(-139.679 -353.81)" fill="#ff887c" opacity="0.17"/>
            <path id="Path_11148" data-name="Path 11148" d="M139.632,376.184l-.059.294Z" transform="translate(-139.528 -364.669)" fill="#ff887c" opacity="0.17"/>
            <path id="Path_11149" data-name="Path 11149" d="M139.49,377.157c-.006.03-.006.032,0,0Z" transform="translate(-139.485 -365.142)" fill="#ff887c" opacity="0.17"/>
            <path id="Path_11150" data-name="Path 11150" d="M139.788,375.188l-.1.513Z" transform="translate(-139.583 -364.186)" fill="#ff887c" opacity="0.17"/>
          </g>
          <path id="Path_11151" data-name="Path 11151" d="M185.653,339.18l-.031,0-4.548-.561a.257.257,0,1,1,.063-.51l4.3.531,2.395-15.282a.258.258,0,0,1,.509.079l-2.434,15.528A.258.258,0,0,1,185.653,339.18Z" transform="translate(-158.139 -323.137)" fill="#1b1b25" opacity="0.35"/>
        </g>
        <path id="Path_11152" data-name="Path 11152" d="M200.511,356.093l10.27-.257c1.916.252,4.966-1.477,4.611-3.377h0Z" transform="translate(-167.683 -333.066)" fill="#ff887c" opacity="0.08"/>
      </g>
      <g id="Group_6816" data-name="Group 6816" transform="translate(15.474 1.72)">
        <g id="Group_6806" data-name="Group 6806">
          <path id="Path_11153" data-name="Path 11153" d="M216.544,218.824l-3.492-23.77a26.275,26.275,0,0,0-2.2-7.327l1.9-.3s-1.331-19.294-22.97-14.687a26.3,26.3,0,0,0-6.542.142h0A19.239,19.239,0,0,0,167,194.708l2.036,13.857A19.239,19.239,0,0,0,190.865,224.8l23.838-3.5A2.182,2.182,0,0,0,216.544,218.824Z" transform="translate(-166.791 -172.024)" fill="#1b1b25"/>
          <path id="Path_11154" data-name="Path 11154" d="M235.331,189.744a.258.258,0,0,1-.035-.513l6.959-.95a.209.209,0,0,0,.139-.084.193.193,0,0,0,.035-.147c-1.125-6.272-6.9-9.166-6.962-9.195a.257.257,0,0,1,.226-.462c.061.029,6.07,3.031,7.243,9.566a.7.7,0,0,1-.126.541.725.725,0,0,1-.486.291l-6.958.951Z" transform="translate(-199.933 -175.103)" fill="#fcf0e3"/>
        </g>
        <g id="Group_6808" data-name="Group 6808" transform="translate(8.899 12.24)">
          <g id="Group_6807" data-name="Group 6807">
            <path id="Path_11155" data-name="Path 11155" d="M217.285,199.585l-19.048,3.061-4.624-6.838c.908,7.629-4.717,12.556-4.717,12.556s-.058-.079-.157-.223l-.158.029a5.53,5.53,0,0,0-4.4,6.435h0a5.529,5.529,0,0,0,6.434,4.4l.364-.068a14.185,14.185,0,0,0,4.122,7.215v12.208a7.891,7.891,0,0,0,7.868,7.868h0a7.891,7.891,0,0,0,7.868-7.868v-9.641a14.279,14.279,0,0,0,6.989-7.008l.009-.014a14.069,14.069,0,0,0,1.755-9.832Z" transform="translate(-184.082 -195.808)" fill="#fec29e"/>
          </g>
          <path id="Path_11156" data-name="Path 11156" d="M214.811,250.007h0a14.128,14.128,0,0,1-16.03-9.5c-.071-.219-1.314.067-1.282.2a14.182,14.182,0,0,0,4.146,7.143,7.892,7.892,0,0,0,7.831,7.143h0a7.885,7.885,0,0,0,6.969-4.239,14.264,14.264,0,0,0,7.9-7.394A14.091,14.091,0,0,1,214.811,250.007Z" transform="translate(-190.594 -217.462)" fill="#ff887c" opacity="0.32"/>
        </g>
        <g id="Group_6815" data-name="Group 6815" transform="translate(12.11 18.582)">
          <path id="Path_11157" data-name="Path 11157" d="M191.034,229.814a.258.258,0,0,1-.158-.461l1.711-1.328-2.184-2.061a.257.257,0,0,1,.353-.375l2.4,2.267a.258.258,0,0,1-.019.391l-1.948,1.512A.255.255,0,0,1,191.034,229.814Z" transform="translate(-190.322 -216.571)" fill="#fb8e77"/>
          <g id="Group_6814" data-name="Group 6814" transform="translate(13.266)">
            <g id="Group_6813" data-name="Group 6813">
              <g id="Group_6812" data-name="Group 6812" transform="translate(0.809)">
                <g id="Group_6811" data-name="Group 6811">
                  <g id="Group_6809" data-name="Group 6809" transform="translate(0 1.863)">
                    <path id="Path_11158" data-name="Path 11158" d="M218.013,213.749a1.809,1.809,0,0,0,.7-.267c.235-.127.474-.249.686-.347s.459-.2.708-.3a1.8,1.8,0,0,0,.655-.365c.146-.162.117-.416-.224-.587a2.07,2.07,0,0,0-1.691.115,2.01,2.01,0,0,0-1.158,1.212C217.61,213.575,217.793,213.758,218.013,213.749Z" transform="translate(-217.671 -211.751)" fill="#1b1b25"/>
                  </g>
                  <g id="Group_6810" data-name="Group 6810" transform="translate(10.849)">
                    <path id="Path_11159" data-name="Path 11159" d="M241.9,209.617a1.81,1.81,0,0,1-.748-.062c-.261-.057-.525-.108-.755-.145s-.5-.069-.764-.095a1.793,1.793,0,0,1-.73-.17c-.185-.115-.228-.368.053-.626a2.07,2.07,0,0,1,1.657-.357,2.007,2.007,0,0,1,1.448.845C242.236,209.339,242.11,209.565,241.9,209.617Z" transform="translate(-238.751 -208.13)" fill="#1b1b25"/>
                  </g>
                </g>
              </g>
              <path id="Path_11160" data-name="Path 11160" d="M226.484,234.343a5.071,5.071,0,0,1-3.537-1.678.257.257,0,0,1,.4-.33,4.093,4.093,0,0,0,4.763,1.119.257.257,0,0,1,.216.467A4.341,4.341,0,0,1,226.484,234.343Z" transform="translate(-219.394 -219.834)" fill="#fb8e77"/>
              <path id="Path_11161" data-name="Path 11161" d="M232.619,221.977a.257.257,0,0,1-.049-.51l1.81-.356a2.081,2.081,0,0,0,1.638-2.441.753.753,0,0,0-.882-.592,1.76,1.76,0,0,1-2.064-1.385l-.437-2.22a.257.257,0,1,1,.5-.1l.437,2.22a1.245,1.245,0,0,0,1.46.979,1.265,1.265,0,0,1,1.486,1,2.6,2.6,0,0,1-2.044,3.046l-1.81.356A.235.235,0,0,1,232.619,221.977Z" transform="translate(-223.992 -211.06)" fill="#fb8e77"/>
              <path id="Path_11162" data-name="Path 11162" d="M222.054,222.164h0a.638.638,0,0,1-.743-.508l-.143-.76a.639.639,0,0,1,.509-.743h0a.639.639,0,0,1,.743.509l.142.759A.639.639,0,0,1,222.054,222.164Z" transform="translate(-218.555 -213.96)" fill="#1b1b25"/>
              <path id="Path_11163" data-name="Path 11163" d="M243.024,218.757h0a.639.639,0,0,1-.743-.509l-.142-.759a.639.639,0,0,1,.509-.743h0a.639.639,0,0,1,.743.508l.142.76A.639.639,0,0,1,243.024,218.757Z" transform="translate(-228.733 -212.307)" fill="#1b1b25"/>
              <path id="Path_11164" data-name="Path 11164" d="M219.149,228.162l-2.173.244a.791.791,0,0,1-.872-.7h0a.791.791,0,0,1,.7-.872l2.173-.244a.79.79,0,0,1,.872.7h0A.791.791,0,0,1,219.149,228.162Z" transform="translate(-216.099 -217.09)" fill="#ff887c" opacity="0.17"/>
              <path id="Path_11165" data-name="Path 11165" d="M247.542,223.689l-2.173.244a.791.791,0,0,1-.872-.7h0a.791.791,0,0,1,.7-.872l2.173-.244a.791.791,0,0,1,.872.7h0A.791.791,0,0,1,247.542,223.689Z" transform="translate(-229.88 -214.919)" fill="#ff887c" opacity="0.17"/>
              <path id="Path_11166" data-name="Path 11166" d="M235.4,246.362a.255.255,0,0,1-.151-.049,1.871,1.871,0,0,0-2.108,0,.257.257,0,0,1-.3-.422,2.373,2.373,0,0,1,2.707,0,.257.257,0,0,1-.152.465Z" transform="translate(-224.174 -226.252)" fill="#fb8e77"/>
            </g>
          </g>
        </g>
      </g>
    </g>
    <rect id="Rectangle_513" data-name="Rectangle 513" width="64.411" height="58.985" rx="19.75" transform="translate(189.412 99.098) rotate(-17)" fill="#f6f6f9"/>
    <rect id="Rectangle_519" data-name="Rectangle 519" width="26.417" height="24.192" rx="12.096" transform="translate(228.833 63.787) rotate(-17)" fill="#f6f6f9"/>
    <rect id="Rectangle_520" data-name="Rectangle 520" width="15.18" height="13.901" rx="6.95" transform="translate(197.702 72.16) rotate(-17)" fill="#f6f6f9"/>
    <g id="Group_2074" data-name="Group 2074" transform="matrix(0.899, -0.438, 0.438, 0.899, 206.992, 110.73)">
      <path id="Path_751" data-name="Path 751" d="M30.739,16.685a14.32,14.32,0,0,1-14.814,14.6A16.766,16.766,0,0,1,0,14.612,14.28,14.28,0,0,1,15.925.083,16.877,16.877,0,0,1,30.739,16.685Z" transform="translate(0 0.717)" fill="url(#linear-gradient)"/>
      <path id="Path_752" data-name="Path 752" d="M30.742,16.684a14.321,14.321,0,0,1-14.815,14.6A16.768,16.768,0,0,1,0,14.612,14.28,14.28,0,0,1,15.926.083,16.878,16.878,0,0,1,30.742,16.684Z" transform="translate(2.246 0)" fill="url(#linear-gradient-2)"/>
      <path id="Path_753" data-name="Path 753" d="M29.335,15.924A13.666,13.666,0,0,1,15.173,29.861,16.006,16.006,0,0,1,0,13.945,13.629,13.629,0,0,1,15.173.077,16.1,16.1,0,0,1,29.335,15.924Z" transform="translate(2.997 0.717)" fill="url(#linear-gradient-3)"/>
      <path id="Path_754" data-name="Path 754" d="M28.334,15.38a13.2,13.2,0,0,1-13.7,13.461A15.46,15.46,0,0,1,0,13.469,13.164,13.164,0,0,1,14.638.073,15.553,15.553,0,0,1,28.334,15.38Z" transform="translate(3.533 1.228)" fill="url(#linear-gradient-4)"/>
      <g id="Group_919" data-name="Group 919" transform="translate(11.067 3.914)">
        <path id="Path_755" data-name="Path 755" d="M7.025,0h0a.835.835,0,0,1,.739.82V2.239a20.86,20.86,0,0,1,2.454.427q.905.212,1.8.505a.826.826,0,0,1,.564.85L12.407,5.8a.665.665,0,0,1-.95.552A10.306,10.306,0,0,0,10.25,5.9a10.927,10.927,0,0,0-2.276-.425l-.21-.018V9.51a10.639,10.639,0,0,1,4.706,2.406,5.086,5.086,0,0,1,1.508,3.757,4.946,4.946,0,0,1-1.667,3.905,7.607,7.607,0,0,1-4.716,1.66V22.8a.71.71,0,0,1-.739.721H6.842a.785.785,0,0,1-.741-.783V21.2l-.33-.015a21.564,21.564,0,0,1-2.732-.292,17.962,17.962,0,0,1-1.888-.434.814.814,0,0,1-.592-.841l.2-2.282a.722.722,0,0,1,1.008-.6,14.893,14.893,0,0,0,1.662.545,14.517,14.517,0,0,0,2.655.443L6.1,13.218a9.777,9.777,0,0,1-4.583-2.249A5.146,5.146,0,0,1,0,7.144,4.472,4.472,0,0,1,1.646,3.428a7.3,7.3,0,0,1,4.638-1.3V.686A.667.667,0,0,1,7.025,0Zm-.741,5.41a2.5,2.5,0,0,0-1.477.522,1.517,1.517,0,0,0-.53,1.216,1.633,1.633,0,0,0,.491,1.21,3.482,3.482,0,0,0,1.517.774ZM7.594,13.58v4.134a2.283,2.283,0,0,0,1.582-.492,1.767,1.767,0,0,0,.55-1.391,1.905,1.905,0,0,0-.512-1.361A3.747,3.747,0,0,0,7.594,13.58Z" transform="translate(0 0)" fill="url(#linear-gradient-5)"/>
      </g>
      <path id="Path_756" data-name="Path 756" d="M12.16,17.188c.463-4.57,4.664-6.5,4.115-10.71C15.937,3.888,13.973,1.7,11.783,0A13.166,13.166,0,0,0,0,13.394,15.459,15.459,0,0,0,14.638,28.765a13.757,13.757,0,0,0,2.261-.11C13.739,25.509,11.763,21.114,12.16,17.188Z" transform="translate(3.533 1.304)" opacity="0.3" fill="url(#linear-gradient-6)" style="mix-blend-mode: multiply;isolation: isolate"/>
    </g>
    <g id="Group_2075" data-name="Group 2075" transform="matrix(0.899, -0.438, 0.438, 0.899, 236.043, 68.558)">
      <path id="Path_751-2" data-name="Path 751" d="M12.607,6.843a5.873,5.873,0,0,1-6.076,5.989A6.877,6.877,0,0,1,0,5.993,5.857,5.857,0,0,1,6.531.034,6.922,6.922,0,0,1,12.607,6.843Z" transform="translate(0 0.294)" fill="url(#linear-gradient)"/>
      <path id="Path_752-2" data-name="Path 752" d="M12.608,6.842a5.873,5.873,0,0,1-6.076,5.99A6.877,6.877,0,0,1,0,5.993,5.857,5.857,0,0,1,6.532.034,6.922,6.922,0,0,1,12.608,6.842Z" transform="translate(0.921 0)" fill="url(#linear-gradient-2)"/>
      <path id="Path_753-2" data-name="Path 753" d="M12.032,6.531a5.605,5.605,0,0,1-5.808,5.716A6.564,6.564,0,0,1,0,5.72,5.59,5.59,0,0,1,6.223.032,6.6,6.6,0,0,1,12.032,6.531Z" transform="translate(1.229 0.294)" fill="url(#linear-gradient-3)"/>
      <path id="Path_754-2" data-name="Path 754" d="M11.621,6.308A5.414,5.414,0,0,1,6,11.829a6.341,6.341,0,0,1-6-6.3A5.4,5.4,0,0,1,6,.03,6.379,6.379,0,0,1,11.621,6.308Z" transform="translate(1.449 0.504)" fill="url(#linear-gradient-4)"/>
      <g id="Group_919-2" data-name="Group 919" transform="translate(4.539 1.605)">
        <path id="Path_755-2" data-name="Path 755" d="M2.881,0h0a.343.343,0,0,1,.3.336v.58a8.565,8.565,0,0,1,1.006.175q.371.087.738.207a.339.339,0,0,1,.231.349l-.071.728A.273.273,0,0,1,4.7,2.6a4.231,4.231,0,0,0-.5-.184,4.482,4.482,0,0,0-.933-.174l-.086-.007V3.9a4.364,4.364,0,0,1,1.93.987,2.086,2.086,0,0,1,.618,1.541,2.029,2.029,0,0,1-.684,1.6,3.119,3.119,0,0,1-1.934.681v.641a.291.291,0,0,1-.3.3H2.806a.322.322,0,0,1-.3-.321V8.694l-.135-.006a8.83,8.83,0,0,1-1.121-.12A7.337,7.337,0,0,1,.472,8.39a.334.334,0,0,1-.243-.345l.084-.936a.3.3,0,0,1,.414-.244,6.091,6.091,0,0,0,.682.224A5.952,5.952,0,0,0,2.5,7.27L2.5,5.421A4.01,4.01,0,0,1,.622,4.5,2.111,2.111,0,0,1,0,2.93,1.834,1.834,0,0,1,.675,1.406a3,3,0,0,1,1.9-.531V.282A.274.274,0,0,1,2.881,0Zm-.3,2.219a1.025,1.025,0,0,0-.606.214.622.622,0,0,0-.218.5.67.67,0,0,0,.2.5,1.429,1.429,0,0,0,.622.317ZM3.115,5.57v1.7a.937.937,0,0,0,.649-.2.725.725,0,0,0,.226-.57.781.781,0,0,0-.21-.558A1.538,1.538,0,0,0,3.115,5.57Z" transform="translate(0 0)" fill="url(#linear-gradient-5)"/>
      </g>
      <path id="Path_756-2" data-name="Path 756" d="M4.987,7.049C5.177,5.175,6.9,4.382,6.675,2.657A4.345,4.345,0,0,0,4.833,0,5.4,5.4,0,0,0,0,5.493a6.341,6.341,0,0,0,6,6.3,5.649,5.649,0,0,0,.928-.045A6.138,6.138,0,0,1,4.987,7.049Z" transform="translate(1.449 0.535)" opacity="0.3" fill="url(#linear-gradient-6)" style="mix-blend-mode: multiply;isolation: isolate"/>
    </g>
    <g id="Group_2076" data-name="Group 2076" transform="matrix(0.899, -0.438, 0.438, 0.899, 201.845, 74.901)">
      <path id="Path_751-3" data-name="Path 751" d="M7.244,3.932A3.375,3.375,0,0,1,3.753,7.374,3.951,3.951,0,0,1,0,3.444,3.365,3.365,0,0,1,3.753.02,3.977,3.977,0,0,1,7.244,3.932Z" transform="translate(0 0.169)" fill="url(#linear-gradient)"/>
      <path id="Path_752-3" data-name="Path 752" d="M7.245,3.932A3.375,3.375,0,0,1,3.753,7.374,3.952,3.952,0,0,1,0,3.444,3.365,3.365,0,0,1,3.753.02,3.978,3.978,0,0,1,7.245,3.932Z" transform="translate(0.529 0)" fill="url(#linear-gradient-2)"/>
      <path id="Path_753-3" data-name="Path 753" d="M6.913,3.753A3.221,3.221,0,0,1,3.576,7.037,3.772,3.772,0,0,1,0,3.287,3.212,3.212,0,0,1,3.576.018,3.8,3.8,0,0,1,6.913,3.753Z" transform="translate(0.706 0.169)" fill="url(#linear-gradient-3)"/>
      <path id="Path_754-3" data-name="Path 754" d="M6.677,3.625A3.111,3.111,0,0,1,3.45,6.8,3.643,3.643,0,0,1,0,3.174,3.1,3.1,0,0,1,3.45.017,3.665,3.665,0,0,1,6.677,3.625Z" transform="translate(0.833 0.29)" fill="url(#linear-gradient-4)"/>
      <g id="Group_919-3" data-name="Group 919" transform="translate(2.608 0.922)">
        <path id="Path_755-3" data-name="Path 755" d="M1.655,0h0A.2.2,0,0,1,1.83.194V.528a4.921,4.921,0,0,1,.578.1q.213.05.424.119a.2.2,0,0,1,.133.2l-.041.418A.157.157,0,0,1,2.7,1.5a2.431,2.431,0,0,0-.284-.106,2.576,2.576,0,0,0-.536-.1l-.049,0v.955a2.507,2.507,0,0,1,1.109.567,1.2,1.2,0,0,1,.355.885,1.166,1.166,0,0,1-.393.92,1.792,1.792,0,0,1-1.111.391v.368a.167.167,0,0,1-.174.17h0a.185.185,0,0,1-.175-.185V5l-.078,0a5.074,5.074,0,0,1-.644-.069,4.216,4.216,0,0,1-.445-.1.192.192,0,0,1-.14-.2L.18,4.085a.17.17,0,0,1,.238-.14,3.5,3.5,0,0,0,.392.128,3.42,3.42,0,0,0,.626.1l0-1.063a2.3,2.3,0,0,1-1.08-.53A1.213,1.213,0,0,1,0,1.684,1.054,1.054,0,0,1,.388.808,1.721,1.721,0,0,1,1.481.5V.162A.157.157,0,0,1,1.655,0ZM1.481,1.276a.589.589,0,0,0-.348.123.358.358,0,0,0-.125.287.385.385,0,0,0,.116.285.821.821,0,0,0,.358.182ZM1.79,3.2v.974a.538.538,0,0,0,.373-.116.416.416,0,0,0,.13-.328.449.449,0,0,0-.121-.321A.884.884,0,0,0,1.79,3.2Z" transform="translate(0 0)" fill="url(#linear-gradient-5)"/>
      </g>
      <path id="Path_756-3" data-name="Path 756" d="M2.866,4.051c.109-1.077,1.1-1.533.97-2.524A2.5,2.5,0,0,0,2.777,0,3.1,3.1,0,0,0,0,3.157,3.643,3.643,0,0,0,3.45,6.779a3.246,3.246,0,0,0,.533-.026A3.527,3.527,0,0,1,2.866,4.051Z" transform="translate(0.833 0.307)" opacity="0.3" fill="url(#linear-gradient-6)" style="mix-blend-mode: multiply;isolation: isolate"/>
    </g>
  </g>
</svg>
