<svg xmlns="http://www.w3.org/2000/svg" width="104.206" height="104.208" viewBox="0 0 104.206 104.208">
  <g id="rewarded" transform="translate(-28.093 -28.093)">
    <path id="Path_10925" data-name="Path 10925" d="M23.225,104.834l25.26-56.467c-1.143,5.945,5.739,16.7,13.229,24.19,9.1,9.1,19.32,14.442,24.612,13.081L29.438,111.047c-1.3.6-3.26-.028-4.715-1.5s-2.1-3.416-1.5-4.715Z" transform="translate(5.093 21.029)" fill="#f0f1f1"/>
    <path id="Path_10926" data-name="Path 10926" d="M23.225,104.834l25.26-56.467c-1.141,5.94,5.726,16.679,13.208,24.169L24.7,109.524c-1.454-1.451-2.071-3.4-1.477-4.691Z" transform="translate(5.093 21.029)" fill="#fff"/>
    <circle id="Ellipse_5704" data-name="Ellipse 5704" cx="2.5" cy="2.5" r="2.5" transform="translate(63.196 48.196)" fill="#90f"/>
    <circle id="Ellipse_5705" data-name="Ellipse 5705" cx="3.5" cy="3.5" r="3.5" transform="translate(88.196 53.196)" fill="#f37a10"/>
    <circle id="Ellipse_5706" data-name="Ellipse 5706" cx="3" cy="3" r="3" transform="translate(119.196 67.196)" fill="#059bbf"/>
    <circle id="Ellipse_5707" data-name="Ellipse 5707" cx="3" cy="3" r="3" transform="translate(121.196 103.196)" fill="#90f"/>
    <circle id="Ellipse_5708" data-name="Ellipse 5708" cx="3" cy="3" r="3" transform="translate(83.196 31.196)" fill="#12b2a0"/>
    <path id="Path_10927" data-name="Path 10927" d="M79.378,27.357l-6.435,3.279-5.108-5.108,1.13,7.135-6.436,3.279,7.135,1.13,1.13,7.133,3.279-6.436,7.133,1.13L76.1,33.794Z" transform="translate(29.926 6.681)" fill="#f55a00"/>
    <path id="Path_10928" data-name="Path 10928" d="M74.57,60l-1.552,4.774H68l4.061,2.7-1.552,4.647L74.57,69.1l4.061,2.918-1.552-4.535,4.061-2.713H76.122Z" transform="translate(33.362 28.337)" fill="#f37a10"/>
    <path id="Path_10929" data-name="Path 10929" d="M65.628,63.193c16.219,0,19.628-10.311,22.367-18.6,2.281-6.894,4.082-12.34,11.826-12.34a1.628,1.628,0,0,0,0-3.256c-10.1,0-12.547,7.41-14.916,14.574-2.783,8.415-5.411,16.362-19.276,16.362a1.628,1.628,0,1,0,0,3.256Z" transform="translate(30.85 8.862)" fill="#00c22d"/>
    <path id="Path_10930" data-name="Path 10930" d="M53.274,56.836c11.411-9.129,7.358-15.24,3.439-21.152-2.192-3.3-4.456-6.72-4.456-11.056a1.628,1.628,0,1,0-3.256,0c0,5.318,2.656,9.322,5,12.856,3.81,5.744,6.327,9.541-2.76,16.81a1.628,1.628,0,1,0,2.035,2.542Z" transform="translate(21.426 5.093)" fill="#50b7ed"/>
    <path id="Path_10931" data-name="Path 10931" d="M98.564,66.847a1.628,1.628,0,1,0,0-3.256c-4.653,0-8.367-2.477-11.959-4.872-5.8-3.867-11.8-7.868-20.128.464a1.628,1.628,0,0,0,2.3,2.3c6.443-6.441,10.251-3.9,16.018-.057C88.608,63.968,92.924,66.847,98.564,66.847Z" transform="translate(32.106 24.746)" fill="#f55a00"/>
    <path id="Path_10932" data-name="Path 10932" d="M47.694,89.15c-14.844,6.69,3.028-1.329-11.831,5.331A114.56,114.56,0,0,1,25.733,82.465l6.05-13.526A85.823,85.823,0,0,0,47.694,89.15Z" transform="translate(6.81 33.952)" fill="#139ba6"/>
    <path id="Path_10933" data-name="Path 10933" d="M39.41,80.176l-8.656,8.657q-2.629-3.089-5.021-6.37l6.05-13.526A85.52,85.52,0,0,0,39.41,80.176Z" transform="translate(6.81 33.952)" fill="#50b7ed"/>
    <path id="Path_10934" data-name="Path 10934" d="M51.94,74.082C62.491,84.631,74.554,90.149,78.688,86.009c4.1-4.1-1.249-16.072-11.93-26.768S44.1,43.227,39.992,47.311c-4.776,4.771,3.19,18.013,11.948,26.771Z" transform="translate(14.867 19.503)" fill="#e2e4e5"/>
    <path id="Path_10935" data-name="Path 10935" d="M53.038,77.985C47.218,70.109,43.7,61.79,42.953,54.359a11.919,11.919,0,0,1-.777-5.99L33.04,68.824a85.273,85.273,0,0,0,8.809,14.727,94.513,94.513,0,0,0,12.3,13.636l12.378-5.529a65.977,65.977,0,0,1-13.49-13.674Z" transform="translate(11.4 21.03)" fill="#139ba6"/>
    <path id="Path_10936" data-name="Path 10936" d="M66.747,59.23,51.919,74.059c-8.75-8.758-16.7-21.983-11.928-26.748,4.1-4.08,16.064,1.247,26.756,11.92Z" transform="translate(14.867 19.503)" fill="#f0f1f1"/>
    <path id="Path_10937" data-name="Path 10937" d="M42.176,48.369,33.04,68.824a85.273,85.273,0,0,0,8.809,14.727c.357.482.738.941,1.1,1.417l8.814-8.814c-5.051-7.332-8.131-14.947-8.818-21.81A11.907,11.907,0,0,1,42.176,48.369Z" transform="translate(11.4 21.03)" fill="#50b7ed"/>
  </g>
</svg>
