<svg xmlns="http://www.w3.org/2000/svg" width="19" height="12" viewBox="0 0 19 12">
  <g id="now" transform="translate(-4 -15)">
    <path id="Path_4116" data-name="Path 4116" d="M41.626,25.708l-1.463,2.9a.371.371,0,0,1-.333.19.617.617,0,0,1-.077-.006.335.335,0,0,1-.289-.316V26.543h-1.1a.38.38,0,0,1-.307-.148.29.29,0,0,1-.026-.307l1.463-2.9a.377.377,0,0,1,.41-.184.335.335,0,0,1,.289.316v1.934h1.1a.38.38,0,0,1,.307.148A.29.29,0,0,1,41.626,25.708Z" transform="translate(-22.661 -4.898)" fill="#222"/>
    <path id="Path_4117" data-name="Path 4117" d="M19.8,15H10.7a.707.707,0,0,0,0,1.412.353.353,0,0,1,0,.706H8.675a.707.707,0,0,0,0,1.412h5.383a.331.331,0,0,1,.294.135A.366.366,0,0,1,14.4,19a6.31,6.31,0,0,0-.253,1.048.344.344,0,0,1-.361.3.359.359,0,0,1-.138-.046h-2.28a.707.707,0,0,0,0,1.412h2.364l.057-.011a.334.334,0,0,1,.361.282A6.228,6.228,0,0,0,14.4,23a.365.365,0,0,1-.115.4.321.321,0,0,1-.26.064H8.675a.707.707,0,0,0,0,1.412H10.7a.353.353,0,0,1,0,.706A.707.707,0,0,0,10.7,27H19.8a5.871,5.871,0,0,0,5.733-6A5.871,5.871,0,0,0,19.8,15Zm0,10.588a4.593,4.593,0,0,1,0-9.176,4.593,4.593,0,0,1,0,9.176Z" transform="translate(-2.537 0)" fill="#222"/>
    <path id="Path_4118" data-name="Path 4118" d="M5.463,31.463a.731.731,0,0,0,0-1.463H4.731a.731.731,0,0,0,0,1.463Z" transform="translate(0 -9.731)" fill="#222"/>
  </g>
</svg>
