<svg width="19" height="12" viewBox="0 0 19 12" fill="none" xmlns="http://www.w3.org/2000/svg">
<path d="M14.9656 5.80998L13.5026 8.70998C13.4696 8.76897 13.4212 8.81785 13.3625 8.85133C13.3038 8.88482 13.2371 8.90164 13.1696 8.89998C13.1438 8.89959 13.1181 8.89759 13.0926 8.89398C13.0151 8.88333 12.9438 8.8459 12.891 8.78819C12.8382 8.73047 12.8073 8.65611 12.8036 8.57798V6.64498H11.7036C11.6444 6.64592 11.5858 6.63303 11.5325 6.60733C11.4792 6.58164 11.4327 6.54385 11.3966 6.49699C11.3638 6.45342 11.344 6.40152 11.3394 6.34722C11.3348 6.29293 11.3456 6.23843 11.3706 6.18998L12.8336 3.28998C12.8731 3.21937 12.9343 3.16335 13.0081 3.13022C13.082 3.09708 13.1645 3.08858 13.2436 3.10598C13.321 3.11664 13.3924 3.15406 13.4451 3.21178C13.4979 3.26949 13.5288 3.34386 13.5326 3.42198V5.35598H14.6326C14.6917 5.35505 14.7503 5.36794 14.8036 5.39364C14.8569 5.41933 14.9034 5.45712 14.9396 5.50399C14.9721 5.54744 14.9918 5.59916 14.9964 5.65326C15.001 5.70736 14.9903 5.76166 14.9656 5.80998Z" fill="white"/>
<path d="M13.2636 0H4.16365C3.9829 0.00962347 3.81273 0.0882021 3.6882 0.219547C3.56366 0.350892 3.49424 0.525 3.49424 0.706C3.49424 0.887001 3.56366 1.06111 3.6882 1.19245C3.81273 1.3238 3.9829 1.40238 4.16365 1.412C4.25727 1.412 4.34706 1.44919 4.41326 1.51539C4.47946 1.58159 4.51665 1.67138 4.51665 1.765C4.51665 1.85862 4.47946 1.94841 4.41326 2.01461C4.34706 2.08081 4.25727 2.118 4.16365 2.118H2.13865C1.9579 2.12762 1.78773 2.2062 1.6632 2.33755C1.53866 2.46889 1.46924 2.643 1.46924 2.824C1.46924 3.005 1.53866 3.17911 1.6632 3.31045C1.78773 3.4418 1.9579 3.52038 2.13865 3.53H7.52165C7.57811 3.52547 7.63479 3.5355 7.68627 3.55914C7.73774 3.58277 7.78229 3.61922 7.81565 3.665C7.85002 3.71285 7.87234 3.7683 7.88069 3.82662C7.88905 3.88494 7.8832 3.94442 7.86365 4C7.74957 4.34148 7.66493 4.69209 7.61065 5.048C7.59965 5.13442 7.55627 5.21345 7.48926 5.26914C7.42226 5.32482 7.33663 5.353 7.24965 5.348C7.20099 5.34224 7.15403 5.32659 7.11165 5.302H4.83165C4.6509 5.31162 4.48073 5.3902 4.3562 5.52155C4.23166 5.65289 4.16224 5.827 4.16224 6.008C4.16224 6.189 4.23166 6.36311 4.3562 6.49445C4.48073 6.6258 4.6509 6.70438 4.83165 6.714H7.19565L7.25265 6.703C7.33743 6.69513 7.42201 6.71995 7.48911 6.77236C7.55621 6.82478 7.60076 6.90084 7.61365 6.985C7.66839 7.32974 7.75202 7.66927 7.86365 8C7.88752 8.07045 7.8893 8.14651 7.86875 8.218C7.8482 8.28948 7.80629 8.35299 7.74865 8.4C7.71247 8.42875 7.67051 8.44936 7.62564 8.4604C7.58077 8.47145 7.53404 8.47268 7.48865 8.464H2.13865C1.9579 8.47362 1.78773 8.5522 1.6632 8.68355C1.53866 8.81489 1.46924 8.989 1.46924 9.17C1.46924 9.351 1.53866 9.52511 1.6632 9.65645C1.78773 9.7878 1.9579 9.86638 2.13865 9.876H4.16365C4.25727 9.876 4.34706 9.91319 4.41326 9.97939C4.47946 10.0456 4.51665 10.1354 4.51665 10.229C4.51665 10.3226 4.47946 10.4124 4.41326 10.4786C4.34706 10.5448 4.25727 10.582 4.16365 10.582C3.97561 10.582 3.79527 10.6567 3.66231 10.7897C3.52935 10.9226 3.45465 11.103 3.45465 11.291C3.45465 11.479 3.52935 11.6594 3.66231 11.7923C3.79527 11.9253 3.97561 12 4.16365 12H13.2636C14.8193 11.9638 16.2969 11.3115 17.3719 10.1865C18.4469 9.06145 19.0313 7.55567 18.9967 6C19.0313 4.44433 18.4469 2.93855 17.3719 1.81351C16.2969 0.688466 14.8193 0.0361906 13.2636 0V0ZM13.2636 10.588C12.0839 10.5329 10.9707 10.0255 10.1553 9.17109C9.33986 8.3167 8.8849 7.18105 8.8849 6C8.8849 4.81895 9.33986 3.6833 10.1553 2.82891C10.9707 1.97453 12.0839 1.46709 13.2636 1.412C14.4434 1.46709 15.5566 1.97453 16.372 2.82891C17.1874 3.6833 17.6424 4.81895 17.6424 6C17.6424 7.18105 17.1874 8.3167 16.372 9.17109C15.5566 10.0255 14.4434 10.5329 13.2636 10.588V10.588Z" fill="white"/>
<path d="M1.4635 6.73204C1.65751 6.73204 1.84357 6.65497 1.98075 6.51779C2.11793 6.38061 2.195 6.19455 2.195 6.00054C2.195 5.80654 2.11793 5.62048 1.98075 5.48329C1.84357 5.34611 1.65751 5.26904 1.4635 5.26904H0.7315C0.537494 5.26904 0.351434 5.34611 0.214251 5.48329C0.0770684 5.62048 0 5.80654 0 6.00054C0 6.19455 0.0770684 6.38061 0.214251 6.51779C0.351434 6.65497 0.537494 6.73204 0.7315 6.73204H1.4635Z" fill="white"/>
</svg>
