<svg xmlns="http://www.w3.org/2000/svg" width="17" height="15" viewBox="0 0 17 15">
  <g id="schedule" transform="translate(0 -30.988)">
    <path id="Path_4119" data-name="Path 4119" d="M.5,158.978H13.514a.5.5,0,0,0,.319-.116c.125-.1,2.977-2.565,3.151-7.875H3c-.173,4.82-2.8,7.086-2.827,7.108a.5.5,0,0,0,.32.882Z" transform="translate(0 -115.995)" fill="#fff"/>
    <path id="Path_4120" data-name="Path 4120" d="M103.939,31.987h-2.395v-.5a.479.479,0,1,0-.958,0v.5H98.16v-.5a.479.479,0,1,0-.958,0v.5H94.807v-.5a.479.479,0,1,0-.958,0v.5H91.455a.485.485,0,0,0-.479.5v1.5h13.441v-1.5A.485.485,0,0,0,103.939,31.987Z" transform="translate(-87.418 0)" fill="#fff"/>
    <path id="Path_4121" data-name="Path 4121" d="M101.988,301.594a1.406,1.406,0,0,1-.922.349H90.977v1.5a.489.489,0,0,0,.479.5H103.94a.489.489,0,0,0,.479-.5v-5.6A9.9,9.9,0,0,1,101.988,301.594Z" transform="translate(-87.419 -257.953)" fill="#fff"/>
  </g>
</svg>
