<svg width="17" height="15" viewBox="0 0 17 15" fill="none" xmlns="http://www.w3.org/2000/svg">
<g clip-path="url(#clip0_501_7)">
<path d="M0.500005 11.9949H13.514C13.6306 11.9946 13.7435 11.9536 13.833 11.8789C13.958 11.7789 16.81 9.31391 16.984 4.00391H3.00001C2.82701 8.82391 0.200005 11.0899 0.173005 11.1119C0.0948823 11.1779 0.038865 11.2662 0.012505 11.365C-0.0138549 11.4638 -0.00928995 11.5683 0.0255845 11.6644C0.0604589 11.7606 0.123966 11.8437 0.207544 11.9026C0.291122 11.9615 0.390753 11.9934 0.493005 11.9939L0.500005 11.9949Z" fill="#222222"/>
<path d="M16.5209 0.99902H14.1259V0.49902C14.1259 0.371981 14.0754 0.250146 13.9856 0.160316C13.8957 0.0704865 13.7739 0.0200195 13.6469 0.0200195C13.5198 0.0200195 13.398 0.0704865 13.3081 0.160316C13.2183 0.250146 13.1679 0.371981 13.1679 0.49902V0.99902H10.7419V0.49902C10.7419 0.371981 10.6914 0.250146 10.6016 0.160316C10.5117 0.0704865 10.3899 0.0200195 10.2629 0.0200195C10.1358 0.0200195 10.014 0.0704865 9.92415 0.160316C9.83432 0.250146 9.78386 0.371981 9.78386 0.49902V0.99902H7.38885V0.49902C7.38885 0.371981 7.33838 0.250146 7.24855 0.160316C7.15872 0.0704865 7.03689 0.0200195 6.90986 0.0200195C6.78282 0.0200195 6.66098 0.0704865 6.57115 0.160316C6.48132 0.250146 6.43085 0.371981 6.43085 0.49902V0.99902H4.03685C3.97239 0.999786 3.90872 1.0134 3.84958 1.03906C3.79043 1.06472 3.73699 1.10192 3.69239 1.14847C3.64779 1.19503 3.61293 1.25001 3.58983 1.3102C3.56672 1.37039 3.55585 1.43458 3.55785 1.49902V2.99902H16.9989V1.49902C17.0008 1.43466 16.99 1.37055 16.967 1.31043C16.9439 1.2503 16.9092 1.19537 16.8647 1.14883C16.8202 1.10228 16.7668 1.06507 16.7078 1.03935C16.6488 1.01363 16.5852 0.999918 16.5209 0.99902V0.99902Z" fill="#222222"/>
<path d="M14.5692 12.6529C14.3141 12.8767 13.9866 13.0006 13.6472 13.0019H3.55823V14.5019C3.55677 14.5662 3.56802 14.6301 3.59131 14.6901C3.61461 14.75 3.6495 14.8048 3.694 14.8513C3.73849 14.8977 3.79171 14.9349 3.85061 14.9608C3.90951 14.9866 3.97293 15.0006 4.03724 15.0019H16.5212C16.5855 15.0006 16.649 14.9866 16.7079 14.9608C16.7668 14.9349 16.82 14.8977 16.8645 14.8513C16.909 14.8048 16.9439 14.75 16.9672 14.6901C16.9905 14.6301 17.0017 14.5662 17.0002 14.5019V8.90186C16.4865 10.3212 15.6549 11.6042 14.5692 12.6529V12.6529Z" fill="#222222"/>
</g>
<defs>
<clipPath id="clip0_501_7">
<rect width="17" height="15" fill="white"/>
</clipPath>
</defs>
</svg>
