<svg xmlns="http://www.w3.org/2000/svg" width="34.532" height="11.203" viewBox="0 0 34.532 11.203">
  <g id="visa" transform="translate(-2.197 -10.08)">
    <g id="Group_6828" data-name="Group 6828" transform="translate(2.197 10.08)">
      <path id="Path_11188" data-name="Path 11188" d="M26.2,62.535H23.378l1.761-10.823h2.818ZM21.008,51.712l-2.686,7.444L18,57.553h0l-.948-4.867a1.206,1.206,0,0,0-1.337-.974H11.278l-.052.183a10.541,10.541,0,0,1,2.947,1.237l2.448,9.4h2.936L24.04,51.712ZM43.171,62.535h2.587L43.5,51.712H41.237a1.3,1.3,0,0,0-1.3.807l-4.2,10.017h2.937l.587-1.608h3.582l.33,1.608Zm-3.1-3.828,1.481-4.05.833,4.05Zm-4.116-4.392.4-2.324a8.133,8.133,0,0,0-2.534-.472c-1.4,0-4.719.611-4.719,3.583,0,2.8,3.9,2.831,3.9,4.3s-3.5,1.205-4.649.279l-.419,2.43a7.9,7.9,0,0,0,3.18.611c1.923,0,4.824-1,4.824-3.705,0-2.814-3.932-3.076-3.932-4.3s2.744-1.067,3.95-.4Z" transform="translate(-11.226 -51.519)" fill="#2566af"/>
    </g>
    <path id="Path_11189" data-name="Path 11189" d="M18,58.028l-.948-4.867a1.206,1.206,0,0,0-1.337-.974H11.278l-.052.183a10.917,10.917,0,0,1,4.182,2.1A8.439,8.439,0,0,1,18,58.028Z" transform="translate(-9.029 -41.912)" fill="#e6a540"/>
  </g>
</svg>
