<svg width="65" height="65" viewBox="0 0 65 65" fill="none" xmlns="http://www.w3.org/2000/svg">
<path d="M32.5 65C50.4492 65 65 50.4493 65 32.5C65 14.5507 50.4493 1.01925e-07 32.5 6.56613e-08C14.5507 2.93975e-08 -2.93975e-08 14.5507 -6.56613e-08 32.5C-1.01925e-07 50.4493 14.5507 65 32.5 65Z" fill="#00FF00"/>
<path d="M29.0738 36.4234C30.9789 38.2517 33.1571 39.7723 35.53 40.9305L39.1468 37.1361C39.3603 36.8839 39.645 36.7021 39.9635 36.6143C40.2821 36.5266 40.6197 36.537 40.9322 36.6441C42.684 37.2036 44.5092 37.4999 46.348 37.5236C46.5687 37.5175 46.7883 37.5568 46.9933 37.6388C47.1983 37.7209 47.3843 37.8441 47.5399 38.0008C47.7039 38.1486 47.8358 38.3285 47.9276 38.5294C48.0194 38.7302 48.0691 38.9477 48.0736 39.1685L48.2121 45.1207C48.2118 45.5643 48.041 45.9908 47.7349 46.3119C47.4288 46.633 47.011 46.8241 46.5679 46.8456C42.8983 46.8962 39.255 46.2196 35.8481 44.8549C32.4413 43.4903 29.3383 41.4645 26.7183 38.8946C24.0259 36.4007 21.8539 33.3982 20.3276 30.0606C18.8014 26.7229 17.9511 23.1161 17.8259 19.4481C17.8262 19.0045 17.997 18.578 18.3031 18.2569C18.6092 17.9358 19.027 17.7447 19.4701 17.7232L25.4222 17.5805C25.8658 17.5808 26.2923 17.7516 26.6134 18.0577C26.9345 18.3638 27.1256 18.7816 27.1472 19.2247C27.2725 21.0584 27.6556 22.8652 28.2852 24.592C28.4095 24.8852 28.4425 25.209 28.3798 25.5212C28.3171 25.8334 28.1617 26.1194 27.9339 26.3419L24.3192 30.1341C25.5469 32.4788 27.1542 34.6042 29.076 36.4241L29.0738 36.4234Z" fill="white"/>
</svg>
