<svg width="65" height="65" viewBox="0 0 65 65" fill="none" xmlns="http://www.w3.org/2000/svg">
<path d="M32.5 65C50.4493 65 65 50.4493 65 32.5C65 14.5507 50.4493 0 32.5 0C14.5507 0 0 14.5507 0 32.5C0 50.4493 14.5507 65 32.5 65Z" fill="#ED0000"/>
<path d="M32.3305 28.4168C29.69 28.4078 27.0642 28.81 24.5475 29.6089V34.8509C24.5668 35.1807 24.4862 35.5087 24.3162 35.792C24.1462 36.0753 23.8947 36.3008 23.5945 36.4389C21.9404 37.2426 20.4148 38.2873 19.0675 39.5389C18.9119 39.6955 18.7259 39.8187 18.5208 39.9007C18.3158 39.9828 18.0962 40.0219 17.8755 40.0159C17.6547 40.0219 17.4351 39.9828 17.2301 39.9007C17.0251 39.8187 16.8391 39.6955 16.6835 39.5389L12.4765 35.3258C12.1706 35.0046 12 34.578 12 34.1343C12 33.6907 12.1706 33.2641 12.4765 32.9428C15.0979 30.3744 18.2019 28.3504 21.6095 26.9876C25.0171 25.6249 28.6609 24.9503 32.3305 25.0029C36.0002 24.9504 39.6439 25.6252 43.0515 26.9881C46.4591 28.351 49.5631 30.3752 52.1845 32.9439C52.4904 33.2651 52.661 33.6917 52.661 34.1354C52.661 34.579 52.4904 35.0056 52.1845 35.3269L47.9745 39.5368C47.6532 39.8427 47.2266 40.0133 46.783 40.0133C46.3394 40.0133 45.9128 39.8427 45.5915 39.5368C44.2356 38.296 42.7116 37.2525 41.0645 36.4368C40.7722 36.3105 40.5249 36.0988 40.3549 35.8296C40.1848 35.5603 40.1 35.2461 40.1115 34.9279V29.6888C37.605 28.8387 34.9752 28.4092 32.3285 28.4179L32.3305 28.4168Z" fill="white"/>
</svg>
