<svg width="30" height="28" viewBox="0 0 30 28" fill="none" xmlns="http://www.w3.org/2000/svg">
<path d="M21.3328 9.82751C20.9759 7.14693 19.6142 4.70198 17.5231 2.98733C15.4319 1.27268 12.7676 0.416374 10.069 0.591659C7.37049 0.766944 4.83929 1.96073 2.98754 3.93149C1.1358 5.90225 0.101793 8.50282 0.0947266 11.207C0.0947266 13.7288 0.970427 16.0467 2.43526 17.8728C3.51222 19.2176 4.09336 20.7038 4.09336 22.2779V27.2016H16.0892L16.0906 23.2029H18.755C19.462 23.2029 20.14 22.9221 20.64 22.4221C21.1399 21.9222 21.4208 21.2442 21.4208 20.5372V16.6332L24.0332 15.5136C24.489 15.319 24.529 14.8551 24.3318 14.5446L21.3328 9.82751ZM2.76048 11.207C2.75843 9.1747 3.53023 7.21781 4.91904 5.73403C6.30785 4.25024 8.20947 3.35087 10.2375 3.21866C12.2655 3.08646 14.2678 3.73134 15.8375 5.02227C17.4072 6.3132 18.4265 8.15332 18.6884 10.1687L18.7643 10.7579L20.821 13.9901L18.755 14.8751V20.5372H13.4262L13.4235 24.5358H6.75911V22.2779C6.75911 20.0933 5.97138 18.0234 4.51321 16.2053C3.37495 14.7885 2.75637 13.0245 2.76048 11.207ZM26.9575 22.006L24.7383 20.5265C26.0546 18.5574 26.7557 16.2414 26.7523 13.8728C26.7564 11.5039 26.0558 9.18731 24.7396 7.21774L26.9575 5.73824C28.5666 8.14558 29.4231 10.9772 29.418 13.8728C29.418 16.8824 28.5117 19.6788 26.9575 22.006Z" fill="white"/>
</svg>
